<svg id="iconArrowDown" xmlns="http://www.w3.org/2000/svg" width="33.404" height="33.404" viewBox="0 0 33.404 33.404">
  <g id="Path_2329" data-name="Path 2329" transform="translate(33.404) rotate(90)" fill="none">
    <path d="M16.7,0A16.7,16.7,0,1,1,0,16.7,16.7,16.7,0,0,1,16.7,0Z" stroke="none"/>
    <path d="M 16.7021484375 1.999998092651367 C 12.77505874633789 1.999998092651367 9.083028793334961 3.529289245605469 6.306158065795898 6.306158065795898 C 3.529289245605469 9.083028793334961 1.999998092651367 12.77505874633789 1.999998092651367 16.7021484375 C 1.999998092651367 20.62923812866211 3.529289245605469 24.32126808166504 6.306158065795898 27.0981388092041 C 9.083028793334961 29.87500762939453 12.77505874633789 31.40429878234863 16.7021484375 31.40429878234863 C 20.62923812866211 31.40429878234863 24.32126808166504 29.87500762939453 27.0981388092041 27.0981388092041 C 29.87500762939453 24.32126808166504 31.40429878234863 20.62923812866211 31.40429878234863 16.7021484375 C 31.40429878234863 12.77505874633789 29.87500762939453 9.083028793334961 27.0981388092041 6.306158065795898 C 24.32126808166504 3.529289245605469 20.62923812866211 1.999998092651367 16.7021484375 1.999998092651367 M 16.7021484375 0 C 25.92648887634277 0 33.404296875 7.477807998657227 33.404296875 16.7021484375 C 33.404296875 25.92648887634277 25.92648887634277 33.404296875 16.7021484375 33.404296875 C 7.477807998657227 33.404296875 0 25.92648887634277 0 16.7021484375 C 0 7.477807998657227 7.477807998657227 0 16.7021484375 0 Z" stroke="none" fill="#1e9f3b"/>
  </g>
  <g id="Icon_feather-arrow-right" data-name="Icon feather-arrow-right" transform="translate(20.1 13.052) rotate(90)">
    <path id="Path_27" data-name="Path 27" d="M0,0H7.3" transform="translate(0 3.651)" fill="none" stroke="#1e9f3b" stroke-linecap="round" stroke-linejoin="round" stroke-width="2"/>
    <path id="Path_28" data-name="Path 28" d="M0,7.3,3.651,3.651,0,0" transform="translate(3.651)" fill="none" stroke="#1e9f3b" stroke-linecap="round" stroke-linejoin="round" stroke-width="2"/>
  </g>
</svg>
