<svg xmlns="http://www.w3.org/2000/svg" width="23.534" height="15.417" viewBox="0 0 23.534 15.417">
  <g id="Icon_ionic-ios-eye" data-name="Icon ionic-ios-eye" transform="translate(-1.696 -7.375)">
    <path id="Path_1" data-name="Path 1" d="M13.453,7.875c-4.025,0-7.2,2.533-10.993,6.673a.791.791,0,0,0-.005,1.066c3.249,3.589,6.112,6.678,11,6.678,4.826,0,8.445-3.889,11.018-6.708a.785.785,0,0,0,.025-1.036C21.873,11.369,18.244,7.875,13.453,7.875Zm.22,11.709a4.505,4.505,0,1,1,4.29-4.29A4.507,4.507,0,0,1,13.674,19.584Z" fill="none" stroke="#fff" stroke-width="1"/>
    <path id="Path_2" data-name="Path 2" d="M16.7,14.351a2.352,2.352,0,0,1,.155-.846c-.05,0-.1-.005-.155-.005a3.2,3.2,0,1,0,3.2,3.2c0-.065-.005-.13-.005-.2a2.22,2.22,0,0,1-.911.2A2.324,2.324,0,0,1,16.7,14.351Z" transform="translate(-3.241 -1.62)" fill="none" stroke="#fff" stroke-width="1"/>
  </g>
</svg>
