<svg xmlns="http://www.w3.org/2000/svg" width="200" height="113.425" viewBox="0 0 200 113.425">
  <g id="logo_TooPopTech" transform="translate(-140 -125.575)">
    <g id="Group_2880" data-name="Group 2880" transform="translate(0 93.575)">
      <g id="Group_2879" data-name="Group 2879" transform="translate(140 32)">
        <path id="Path_874" data-name="Path 874" d="M91.91,82.7a9.152,9.152,0,0,1,.148,18.3H82.77V91.852A9.152,9.152,0,0,1,91.922,82.7" transform="translate(-62.296 -62.244)" fill="#133e6a" fill-rule="evenodd"/>
        <path id="Path_875" data-name="Path 875" d="M95.846,0A29.677,29.677,0,0,0,88,1.051V11.888a19.38,19.38,0,1,1,7.851,37.1h-.307V59.207h0V87.38c.3.03.6.045.9.045a9.228,9.228,0,0,0,9.305-9.152v-.294h.027V57.51A29.613,29.613,0,0,0,95.846,0" transform="translate(-66.233 0)" fill="#133e6a" fill-rule="evenodd"/>
        <path id="Path_876" data-name="Path 876" d="M21.72,138.785a19.385,19.385,0,0,1-11.49-17.33H21.72V111.22H10.236V92.146h-.027v-.294A9.232,9.232,0,0,0,.9,82.7c-.3,0-.6.015-.9.042v38.669H0a29.621,29.621,0,0,0,21.72,28.213Z" transform="translate(0 -62.244)" fill="#133e6a" fill-rule="evenodd"/>
      </g>
      <g id="Group_2878" data-name="Group 2878" transform="translate(218.403 73.772)">
        <path id="Path_877" data-name="Path 877" d="M382.966,98H385.8V92.6h3.71V98h2.827V84.757h-2.832v5.236H385.8V84.757h-2.83ZM381.4,94.411a3.822,3.822,0,0,1-2.686,1.059,4.084,4.084,0,0,1,0-8.148,3.809,3.809,0,0,1,2.686,1.059v-3.3a6.628,6.628,0,0,0-2.686-.549,6.854,6.854,0,0,0,0,13.706,6.677,6.677,0,0,0,2.686-.547ZM362.757,98h8.262V95.21h-5.424v-3.08h5.086V89.41h-5.086V87.518h5.331v-2.76h-8.163Zm-7.173,0h2.835V87.518h3v-2.76h-8.848v2.76h3.005Zm-11.247-8.657a1.784,1.784,0,0,1-1.892,1.949h-1.756V87.367h1.756a1.927,1.927,0,0,1,1.885,1.964Zm2.892,0a4.559,4.559,0,0,0-4.536-4.574h-4.848V98h2.837v-4.1h2a4.524,4.524,0,0,0,4.537-4.511c0-.022,0-.043,0-.065Zm-21.211,2.06a9.709,9.709,0,1,0-.007-.015Zm-2.968,0a5.41,5.41,0,1,0-.007-.023v.008Zm-3.4-2.06a1.782,1.782,0,0,1-1.89,1.949H316V87.367h1.759a1.925,1.925,0,0,1,1.882,1.964Zm2.892,0A4.559,4.559,0,0,0,318,84.772h-4.846V98h2.835v-4.1h2a4.524,4.524,0,0,0,4.537-4.511c0-.022,0-.043,0-.065Zm-25.955,2.06a9.763,9.763,0,1,0-.007-.015Zm-2.968,0a5.5,5.5,0,1,0-.007-.025v.01Zm-11.094,0a16.934,16.934,0,1,0-.01-.015Zm-2.968,0a5.4,5.4,0,1,0-.01-.03v.015Zm-5.7,6.6h2.835V87.518H279.7v-2.76H270.85v2.76h3.005Z" transform="translate(-270.783 -84.529)" fill="#133e6a"/>
        <path id="Path_878" data-name="Path 878" d="M575.729,175.913a2.08,2.08,0,0,1,0,2.733,1.67,1.67,0,0,1-1.269.547,1.7,1.7,0,0,1-1.286-.544,1.9,1.9,0,0,1-.517-1.36h-.01a1.9,1.9,0,0,1,.527-1.375c.012-.015.027-.027.04-.04a1.778,1.778,0,0,1,2.516.04" transform="translate(-497.928 -152.901)" fill="#133e6a"/>
        <path id="Path_879" data-name="Path 879" d="M571.169,163.418a1.778,1.778,0,0,0-2.516-.04c-.012.012-.027.025-.04.04a1.9,1.9,0,0,0-.512,1.375H568.1a1.9,1.9,0,0,0,.517,1.36,1.7,1.7,0,0,0,1.286.544,1.671,1.671,0,0,0,1.269-.547,2.08,2.08,0,0,0,0-2.733m0,0a1.778,1.778,0,0,0-2.516-.04c-.012.012-.027.025-.04.04a1.9,1.9,0,0,0-.512,1.375H568.1a1.9,1.9,0,0,0,.517,1.36,1.7,1.7,0,0,0,1.286.544,1.671,1.671,0,0,0,1.269-.547,2.08,2.08,0,0,0,0-2.733m0,0a1.778,1.778,0,0,0-2.516-.04c-.012.012-.027.025-.04.04a1.9,1.9,0,0,0-.512,1.375H568.1a1.9,1.9,0,0,0,.517,1.36,1.7,1.7,0,0,0,1.286.544,1.671,1.671,0,0,0,1.269-.547,2.08,2.08,0,0,0,0-2.733m0,0a1.778,1.778,0,0,0-2.516-.04c-.012.012-.027.025-.04.04a1.9,1.9,0,0,0-.512,1.375H568.1a1.9,1.9,0,0,0,.517,1.36,1.7,1.7,0,0,0,1.286.544,1.671,1.671,0,0,0,1.269-.547,2.08,2.08,0,0,0,0-2.733m-40.5,5.689h57.263V158.77H530.67Zm6.56-2.08a2.042,2.042,0,0,1-1.571.638,1.943,1.943,0,0,1-1.484-.611,2.27,2.27,0,0,1-.591-1.613h.94a1.369,1.369,0,0,0,.331.89,1.026,1.026,0,0,0,.794.334,1.142,1.142,0,0,0,.861-.334,1.232,1.232,0,0,0,.324-.89,1.1,1.1,0,0,0-.247-.754,2.229,2.229,0,0,0-.989-.495l-.134-.037a2.287,2.287,0,0,1-1.3-.794,1.782,1.782,0,0,1-.272-.517,1.8,1.8,0,0,1-.092-.584,2.085,2.085,0,0,1,.547-1.5,1.9,1.9,0,0,1,1.435-.569,1.8,1.8,0,0,1,1.328.512,2.087,2.087,0,0,1,.557,1.4h-.975a1.031,1.031,0,0,0-.289-.7.965.965,0,0,0-1.358.03,1.085,1.085,0,0,0-.267.759.979.979,0,0,0,.049.3.858.858,0,0,0,.153.27,1.821,1.821,0,0,0,.908.435c.213.054.378.1.495.143a2.259,2.259,0,0,1,1.076.777,2.026,2.026,0,0,1,.369,1.219,2.364,2.364,0,0,1-.594,1.68m8.229-1.224a2.829,2.829,0,0,1-.562.923,2.908,2.908,0,0,1-.93.69,2.642,2.642,0,0,1-1.1.233,2.663,2.663,0,0,1-2.006-.848,2.96,2.96,0,0,1-.6-.933,2.808,2.808,0,0,1-.225-1.064l.01-.01a2.925,2.925,0,0,1,.2-1.078,2.766,2.766,0,0,1,.574-.9,2.9,2.9,0,0,1,.925-.675,2.494,2.494,0,0,1,1.066-.247,2.731,2.731,0,0,1,2.016.841,2.9,2.9,0,0,1,.616.923,2.749,2.749,0,0,1,.215,1.061,3.042,3.042,0,0,1-.2,1.088m3.639,1.707-.972,0v-7.2h.972Zm6.389,0v-.606a1.927,1.927,0,0,1-.658.547,1.78,1.78,0,0,1-.814.181,2.017,2.017,0,0,1-1.59-.638,2.6,2.6,0,0,1-.564-1.791V162.08h.989v2.847a2.287,2.287,0,0,0,.312,1.321,1.07,1.07,0,0,0,.933.44,1.312,1.312,0,0,0,.688-.181,1.275,1.275,0,0,0,.458-.507,1.578,1.578,0,0,0,.156-.495,6.07,6.07,0,0,0,.047-.925v-2.5h.972l.01,5.434Zm5.825-4.549h-.779v4.544l-.962,0v-4.541H558.8v-.893h.769v-1.769h.972v1.761h.769Zm3.3,4.549h-.972v-5.442h.972Zm0-6.075h-.972v-1.128h.972Zm7.876,4.363a2.829,2.829,0,0,1-.561.923,2.907,2.907,0,0,1-.93.69,2.642,2.642,0,0,1-1.1.233,2.663,2.663,0,0,1-2.006-.848,2.96,2.96,0,0,1-.6-.933,2.853,2.853,0,0,1-.213-1.064v-.01a2.922,2.922,0,0,1,.2-1.078,2.727,2.727,0,0,1,.574-.9,2.9,2.9,0,0,1,.925-.675,2.494,2.494,0,0,1,1.066-.247,2.731,2.731,0,0,1,2.016.841,2.863,2.863,0,0,1,.616.923,2.749,2.749,0,0,1,.215,1.061,3.041,3.041,0,0,1-.2,1.088m7.329,1.707h-.989v-2.877a2.1,2.1,0,0,0-.319-1.284,1.385,1.385,0,0,0-1.962-.022,1.133,1.133,0,0,0-.092.1,3.016,3.016,0,0,0-.329,1.623l.012,2.469h-.989v-5.442h.942v.618a1.828,1.828,0,0,1,1.516-.71,2.11,2.11,0,0,1,1.64.628,2.6,2.6,0,0,1,.569,1.8Zm5.382-.336a1.722,1.722,0,0,1-1.237.495,1.577,1.577,0,0,1-1.222-.512,2.148,2.148,0,0,1-.519-1.4h.92a1.053,1.053,0,0,0,.247.712.739.739,0,0,0,.6.28.778.778,0,0,0,.559-.21.706.706,0,0,0,.22-.537.758.758,0,0,0-.156-.495,1.218,1.218,0,0,0-.495-.336c-.079-.032-.19-.077-.334-.129a3.271,3.271,0,0,1-.742-.346,1.467,1.467,0,0,1-.428-.524,1.614,1.614,0,0,1,1.435-2.268h.017a1.5,1.5,0,0,1,1.1.416,1.675,1.675,0,0,1,.45,1.143h-.945a.71.71,0,0,0-.2-.47.645.645,0,0,0-.465-.168.592.592,0,0,0-.438.181.62.62,0,0,0-.173.448q0,.456.789.742l.351.136a1.912,1.912,0,0,1,.89.628,1.7,1.7,0,0,1,.267,1,1.64,1.64,0,0,1-.495,1.217m-16.55-3.794c-.012.012-.027.025-.04.04a1.9,1.9,0,0,0-.512,1.375H568.1a1.9,1.9,0,0,0,.517,1.36,1.7,1.7,0,0,0,1.286.544,1.671,1.671,0,0,0,1.269-.547,2.08,2.08,0,0,0,0-2.733,1.778,1.778,0,0,0-2.516-.04m2.516.04a1.778,1.778,0,0,0-2.516-.04c-.012.012-.027.025-.04.04a1.9,1.9,0,0,0-.512,1.375H568.1a1.9,1.9,0,0,0,.517,1.36,1.7,1.7,0,0,0,1.286.544,1.671,1.671,0,0,0,1.269-.547,2.08,2.08,0,0,0,0-2.733m0,0a1.778,1.778,0,0,0-2.516-.04c-.012.012-.027.025-.04.04a1.9,1.9,0,0,0-.512,1.375H568.1a1.9,1.9,0,0,0,.517,1.36,1.7,1.7,0,0,0,1.286.544,1.671,1.671,0,0,0,1.269-.547,2.08,2.08,0,0,0,0-2.733" transform="translate(-466.336 -140.406)" fill="#133e6a"/>
        <path id="Path_880" data-name="Path 880" d="M331.511,172.205v-.665a2.562,2.562,0,0,1-.836.589,2.438,2.438,0,0,1-.989.2,2.743,2.743,0,0,1-2.036-.819,2.79,2.79,0,0,1-.809-2.048,2.926,2.926,0,0,1,.2-1.088,2.718,2.718,0,0,1,.581-.9,2.663,2.663,0,0,1,.9-.636,2.837,2.837,0,0,1,1.108-.205,2.551,2.551,0,0,1,1.892.8V165h.989v7.2Zm-3.653-2.753a1.915,1.915,0,0,0,.544,1.385,1.8,1.8,0,0,0,1.338.559,1.731,1.731,0,0,0,1.271-.564,1.8,1.8,0,0,0,.552-1.309,1.92,1.92,0,0,0-.547-1.375,1.731,1.731,0,0,0-1.3-.569,1.853,1.853,0,0,0-1.863,1.843C327.857,169.433,327.857,169.443,327.857,169.452Zm-7.789.4a1.827,1.827,0,0,0,.616,1.1,1.731,1.731,0,0,0,1.167.425,1.707,1.707,0,0,0,1.516-.893h1.1a3.108,3.108,0,0,1-1.049,1.385,2.65,2.65,0,0,1-1.571.48,2.8,2.8,0,0,1-1.1-.213,2.768,2.768,0,0,1-.9-.638,2.951,2.951,0,0,1-.6-.93,2.874,2.874,0,0,1-.215-1.086,2.946,2.946,0,0,1,.2-1.071,2.865,2.865,0,0,1,.576-.91,2.723,2.723,0,0,1,.913-.67,2.852,2.852,0,0,1,2.444.111,2.709,2.709,0,0,1,1.368,1.731,4.163,4.163,0,0,1,.111,1.009v.156Zm3.5-.89a1.978,1.978,0,0,0-.633-1.039,1.644,1.644,0,0,0-1.076-.366,1.731,1.731,0,0,0-1.116.376,1.921,1.921,0,0,0-.648,1.029Zm-8.309,3.24v-4.536h-.769v-.893h.769V165h.972v1.761H317v.893h-.769V172.2Zm-4.086,0v-.665a2.589,2.589,0,0,1-.836.589,2.45,2.45,0,0,1-.989.2,2.738,2.738,0,0,1-2.036-.819,2.792,2.792,0,0,1-.811-2.048,2.966,2.966,0,0,1,.2-1.088,2.766,2.766,0,0,1,.586-.89,2.652,2.652,0,0,1,.9-.636,2.85,2.85,0,0,1,1.111-.205,2.636,2.636,0,0,1,1.027.2,2.55,2.55,0,0,1,.853.6v-.658h.989v5.442Zm-3.653-2.746a1.906,1.906,0,0,0,.544,1.385,1.791,1.791,0,0,0,1.336.559,1.731,1.731,0,0,0,1.274-.564,1.806,1.806,0,0,0,.549-1.309,1.916,1.916,0,0,0-.544-1.375,1.731,1.731,0,0,0-1.3-.569,1.853,1.853,0,0,0-1.863,1.843C307.522,169.433,307.522,169.443,307.522,169.452Zm-4.3,2.753h-.989v-5.442h.925v.626a1.607,1.607,0,0,1,.554-.537,1.538,1.538,0,0,1,.73-.181V167.7a1.291,1.291,0,0,0-.942.388,1.692,1.692,0,0,0-.282,1.088Zm-8.41-2.753a1.9,1.9,0,0,0,.544,1.385,1.791,1.791,0,0,0,1.336.559,1.731,1.731,0,0,0,1.274-.564,1.808,1.808,0,0,0,.552-1.309,1.92,1.92,0,0,0-.547-1.375,1.731,1.731,0,0,0-1.3-.569,1.853,1.853,0,0,0-1.863,1.843C294.813,169.433,294.813,169.443,294.813,169.452Zm-.658,3.188H295.2a1.563,1.563,0,0,0,.6.581,1.73,1.73,0,0,0,.841.2,1.81,1.81,0,0,0,1.331-.495,1.761,1.761,0,0,0,.495-1.316v-.069a2.625,2.625,0,0,1-.836.589,2.438,2.438,0,0,1-.989.2,2.739,2.739,0,0,1-2.036-.819,2.793,2.793,0,0,1-.811-2.048,2.966,2.966,0,0,1,.2-1.088,2.765,2.765,0,0,1,.579-.9,2.651,2.651,0,0,1,.9-.636,2.86,2.86,0,0,1,1.111-.205,2.537,2.537,0,0,1,1.89.8v-.658h.989v4.539a3.168,3.168,0,0,1-.742,2.226,2.612,2.612,0,0,1-2.026.8,2.805,2.805,0,0,1-1.6-.443,2.392,2.392,0,0,1-.925-1.254Zm-7.124-2.793a1.853,1.853,0,0,0,.616,1.1,1.731,1.731,0,0,0,1.167.425,1.71,1.71,0,0,0,.883-.235,1.672,1.672,0,0,0,.633-.658h1.106a3.1,3.1,0,0,1-1.051,1.385,2.642,2.642,0,0,1-1.568.48,2.8,2.8,0,0,1-1.1-.213,2.774,2.774,0,0,1-.905-.638,3.043,3.043,0,0,1-.6-.93,2.953,2.953,0,0,1-.017-2.157,2.821,2.821,0,0,1,.576-.91,2.77,2.77,0,0,1,3.357-.559,2.709,2.709,0,0,1,1.368,1.731,4.162,4.162,0,0,1,.111,1.009v.156Zm3.5-.89a1.977,1.977,0,0,0-.631-1.039,1.647,1.647,0,0,0-1.078-.366,1.731,1.731,0,0,0-1.113.376,1.908,1.908,0,0,0-.648,1.029Zm-8.306,3.24v-4.536h-.769v-.893h.769V165h.972v1.761h.769v.893H283.2V172.2Zm-6.792,0h-.989v-5.442h.942v.618a1.836,1.836,0,0,1,1.516-.71,2.11,2.11,0,0,1,1.64.628,2.6,2.6,0,0,1,.569,1.8v3.1h-.989v-2.872a2.1,2.1,0,0,0-.319-1.284,1.387,1.387,0,0,0-1.962-.023c-.032.031-.062.064-.091.1a3.012,3.012,0,0,0-.331,1.623Zm-3.812,0H270.58V165h1.044Z" transform="translate(-270.58 -145.095)" fill="#133e6a"/>
        <path id="Path_881" data-name="Path 881" d="M275.517,232.568V232.1a.1.1,0,0,1,.109-.109h.989a.094.094,0,0,1,.106.109v3.515a.628.628,0,0,0,.126.45.541.541,0,0,0,.4.124h.413c.289,0,.433.183.433.549a.643.643,0,0,1-.1.435.454.454,0,0,1-.331.1h-.883a1.58,1.58,0,0,1-.831-.186.96.96,0,0,1-.4-.66,1.515,1.515,0,0,1-.544.3,2.184,2.184,0,0,1-.663.1,2.577,2.577,0,0,1-.8-.121,1.707,1.707,0,0,1-1.091-1,2.386,2.386,0,0,1-.163-.93,2.743,2.743,0,0,1,.178-1.056,1.784,1.784,0,0,1,.48-.678,1.806,1.806,0,0,1,.678-.366,2.911,2.911,0,0,1,.794-.109Zm-2.078-1.326a.1.1,0,0,1-.109-.082.091.091,0,0,1,0-.029v-.942a.1.1,0,0,1,.109-.111h.915a.1.1,0,0,1,.109.082.091.091,0,0,1,0,.029v.942a.1.1,0,0,1-.109.111Zm1.056,4.5a.957.957,0,0,0,.772-.3,1.329,1.329,0,0,0,.247-.871v-.92h-.967a.943.943,0,0,0-1.024,1.123.942.942,0,0,0,.262.742,1.023,1.023,0,0,0,.71.225Zm.359-4.5a.1.1,0,0,1-.109-.082.091.091,0,0,1,0-.029v-.942a.1.1,0,0,1,.109-.111h.913a.1.1,0,0,1,.109.082.089.089,0,0,1,0,.029v.942a.1.1,0,0,1-.109.111Z" transform="translate(-271.863 -194.074)" fill="#133e6a"/>
        <path id="Path_882" data-name="Path 882" d="M293.789,235.594a.534.534,0,0,0,.4-.124.628.628,0,0,0,.126-.45V229.4a.094.094,0,0,1,.077-.109.1.1,0,0,1,.029,0h1a.094.094,0,0,1,.106.109v5.526a.577.577,0,0,0,.247.495,1.116,1.116,0,0,0,.658.173h.186a.423.423,0,0,1,.327.121.616.616,0,0,1,.109.408.688.688,0,0,1-.1.438.413.413,0,0,1-.331.121,2.37,2.37,0,0,1-.742-.1.883.883,0,0,1-.495-.455.863.863,0,0,1-.435.433,1.943,1.943,0,0,1-.772.126h-.915a.462.462,0,0,1-.326-.1.665.665,0,0,1-.109-.455.625.625,0,0,1,.1-.413.429.429,0,0,1,.331-.116Z" transform="translate(-287.318 -193.48)" fill="#133e6a"/>
        <path id="Path_883" data-name="Path 883" d="M310.149,244.914a3.044,3.044,0,0,1-.989-.148,1.66,1.66,0,0,1-.742-.495.988.988,0,0,1-.262.287,1.317,1.317,0,0,1-.317.171,1.611,1.611,0,0,1-.339.082,2.569,2.569,0,0,1-.326.022h-.381a.413.413,0,0,1-.327-.126.653.653,0,0,1-.109-.423.635.635,0,0,1,.1-.428.435.435,0,0,1,.331-.111h.425a.647.647,0,0,0,.247-.047.577.577,0,0,0,.215-.163.885.885,0,0,0,.163-.3,1.437,1.437,0,0,0,.067-.472,1.3,1.3,0,0,1-.012-.161v-.163a3.19,3.19,0,0,1,.181-1.069,1.869,1.869,0,0,1,.47-.715,1.756,1.756,0,0,1,.7-.4,3.131,3.131,0,0,1,1.776,0,1.824,1.824,0,0,1,.715.413,1.914,1.914,0,0,1,.47.742,3.4,3.4,0,0,1,.168,1.133,3.168,3.168,0,0,1-.163,1.086,1.888,1.888,0,0,1-.458.742,1.778,1.778,0,0,1-.7.425,3.055,3.055,0,0,1-.915.124m0-3.7a.893.893,0,0,0-.769.336,1.62,1.62,0,0,0-.247.975,1.581,1.581,0,0,0,.247.989,1.133,1.133,0,0,0,1.548,0,1.576,1.576,0,0,0,.247-.989q0-1.309-1.029-1.311Z" transform="translate(-297.504 -201.634)" fill="#133e6a"/>
        <path id="Path_884" data-name="Path 884" d="M335.866,229.4a.094.094,0,0,1,.077-.109.1.1,0,0,1,.03,0h1a.094.094,0,0,1,.107.079.092.092,0,0,1,0,.03v5.625a.628.628,0,0,0,.126.45.54.54,0,0,0,.4.124h.381a.406.406,0,0,1,.327.126.682.682,0,0,1,.109.435.608.608,0,0,1-.1.433.5.5,0,0,1-.331.094h-.851a1.237,1.237,0,0,1-.97-.331,1.537,1.537,0,0,1-.292-1.039Z" transform="translate(-319.716 -193.48)" fill="#133e6a"/>
        <path id="Path_885" data-name="Path 885" d="M343.772,232.261a.2.2,0,0,1,.064-.141,1.448,1.448,0,0,0,.109-.121l2.35-2.763a.1.1,0,0,1,.141-.032l.7.586a.114.114,0,0,1,.045.153l-1.791,2.1a9.141,9.141,0,0,1,1.027.077,2.177,2.177,0,0,1,.811.267,1.37,1.37,0,0,1,.534.586,2.342,2.342,0,0,1,.2,1.039v.9a.512.512,0,0,0,.247.453,1.2,1.2,0,0,0,.648.156h.186a.428.428,0,0,1,.327.121.616.616,0,0,1,.109.408.688.688,0,0,1-.1.438.414.414,0,0,1-.331.121,2.329,2.329,0,0,1-.794-.121.908.908,0,0,1-.519-.495,1.01,1.01,0,0,1-.519.495,2.228,2.228,0,0,1-.843.136h-3.213a.406.406,0,0,1-.327-.126.682.682,0,0,1-.109-.445.6.6,0,0,1,.1-.418.47.47,0,0,1,.331-.1h2.7a1.991,1.991,0,0,0,.467-.042.55.55,0,0,0,.267-.141.47.47,0,0,0,.119-.26,2.684,2.684,0,0,0,.027-.411v-.594q0-.952-1.108-.952h-1.751a.1.1,0,0,1-.109-.082.094.094,0,0,1,0-.026Z" transform="translate(-324.869 -193.407)" fill="#133e6a"/>
        <path id="Path_886" data-name="Path 886" d="M369.449,238.043a.827.827,0,0,1-.458.438,2.287,2.287,0,0,1-.826.121h-1.012a.462.462,0,0,1-.327-.1.584.584,0,0,1-.109-.413.721.721,0,0,1,.1-.445.405.405,0,0,1,.331-.126h.707a.611.611,0,0,0,.3-.059.349.349,0,0,0,.151-.183,1.023,1.023,0,0,0,.062-.327v-2.751a.086.086,0,0,1,.059-.087.352.352,0,0,1,.124-.022h.95a.094.094,0,0,1,.107.079.088.088,0,0,1,0,.03v2.647a.572.572,0,0,0,.247.495,1.116,1.116,0,0,0,.658.173h.186a.421.421,0,0,1,.326.121.616.616,0,0,1,.109.408.688.688,0,0,1-.1.438.408.408,0,0,1-.331.121,2.37,2.37,0,0,1-.742-.1.884.884,0,0,1-.512-.45M367.838,233a.1.1,0,0,1-.109-.082.092.092,0,0,1,0-.029v-.942a.1.1,0,0,1,.109-.111h.925a.1.1,0,0,1,.111.085.094.094,0,0,1,0,.026v.942a.1.1,0,0,1-.085.111.1.1,0,0,1-.026,0Zm1.415,0a.1.1,0,0,1-.109-.111v-.942c0-.074.035-.111.109-.111h.913a.1.1,0,0,1,.109.082.092.092,0,0,1,0,.029v.942a.1.1,0,0,1-.079.111.1.1,0,0,1-.029,0Z" transform="translate(-342.935 -195.399)" fill="#133e6a"/>
        <path id="Path_887" data-name="Path 887" d="M382.592,242.46a3.132,3.132,0,0,1,.178-1.069,1.868,1.868,0,0,1,.47-.715,1.771,1.771,0,0,1,.7-.4,2.949,2.949,0,0,1,.883-.126,2.993,2.993,0,0,1,.9.131,1.825,1.825,0,0,1,.712.411,1.9,1.9,0,0,1,.47.742,3.369,3.369,0,0,1,.168,1.128v.369a.883.883,0,0,0,.21.646.661.661,0,0,0,.463.188h.317a.428.428,0,0,1,.326.121.616.616,0,0,1,.109.408.688.688,0,0,1-.1.438.413.413,0,0,1-.331.121h-.386a1.757,1.757,0,0,1-.4-.072,1.625,1.625,0,0,1-.383-.176,1.158,1.158,0,0,1-.322-.327,1.677,1.677,0,0,1-.742.507,3.313,3.313,0,0,1-1.979,0,1.641,1.641,0,0,1-.727-.495,1.02,1.02,0,0,1-.265.287,1.276,1.276,0,0,1-.317.171,1.58,1.58,0,0,1-.339.082,2.576,2.576,0,0,1-.327.022h-.381a.4.4,0,0,1-.324-.126.639.639,0,0,1-.109-.423.653.653,0,0,1,.1-.428.435.435,0,0,1,.331-.111h.425a.639.639,0,0,0,.467-.21,1.146,1.146,0,0,0,.218-.777,1.262,1.262,0,0,1,0-.161Zm2.226-1.222a.887.887,0,0,0-.767.336,1.6,1.6,0,0,0-.247.975,1.563,1.563,0,0,0,.247.989,1.13,1.13,0,0,0,1.546,0,1.574,1.574,0,0,0,.247-.989q.01-1.309-1.019-1.311Z" transform="translate(-353.728 -201.656)" fill="#133e6a"/>
        <path id="Path_888" data-name="Path 888" d="M407.912,236.683a.455.455,0,0,1-.327-.1.6.6,0,0,1-.109-.423.7.7,0,0,1,.1-.435.4.4,0,0,1,.331-.126h.532a.541.541,0,0,0,.4-.124.629.629,0,0,0,.124-.45V229.4a.1.1,0,0,1,.109-.109h1a.1.1,0,0,1,.109.109v5.917a1.537,1.537,0,0,1-.292,1.039,1.237,1.237,0,0,1-.97.331Z" transform="translate(-373.611 -193.48)" fill="#133e6a"/>
        <path id="Path_889" data-name="Path 889" d="M425.413,236.589a.094.094,0,0,1-.077.109.1.1,0,0,1-.03,0h-1a.094.094,0,0,1-.106-.109v-7.173a.094.094,0,0,1,.077-.109.1.1,0,0,1,.029,0h1a.094.094,0,0,1,.106.109Z" transform="translate(-386.197 -193.495)" fill="#133e6a"/>
        <path id="Path_890" data-name="Path 890" d="M444.933,234.266q.045-.077.163-.022l.881.349q.057.017.059.059a.144.144,0,0,1-.015.082,5.353,5.353,0,0,0-.334.712,2.473,2.473,0,0,0-.156.9,1.638,1.638,0,0,0,.136.712,1.289,1.289,0,0,0,.346.463,1.235,1.235,0,0,0,.475.247,1.951,1.951,0,0,0,.51.072,1.484,1.484,0,0,0,1.012-.331,1.353,1.353,0,0,0,.381-1.074v-7.025a.1.1,0,0,1,.082-.109.094.094,0,0,1,.026,0h.989a.094.094,0,0,1,.107.079.092.092,0,0,1,0,.029v7.059a2.876,2.876,0,0,1-.188,1.086,2.05,2.05,0,0,1-.544.779,2.3,2.3,0,0,1-.841.463,3.634,3.634,0,0,1-1.086.151,3.489,3.489,0,0,1-1.056-.151,2.335,2.335,0,0,1-.841-.463,2.113,2.113,0,0,1-.559-.779,2.721,2.721,0,0,1-.2-1.1,3.893,3.893,0,0,1,.186-1.175,4.235,4.235,0,0,1,.47-1.012" transform="translate(-401.312 -193.487)" fill="#133e6a"/>
        <path id="Path_891" data-name="Path 891" d="M471.917,247.056a.1.1,0,0,1-.109-.109v-.868a.1.1,0,0,1,.079-.111.1.1,0,0,1,.029,0h1.264a1.741,1.741,0,0,0,.435-.047.68.68,0,0,0,.3-.168.79.79,0,0,0,.183-.339,1.911,1.911,0,0,0,.067-.554h-1.088a3.261,3.261,0,0,1-.908-.114,1.551,1.551,0,0,1-.67-.381,1.748,1.748,0,0,1-.418-.69,3.71,3.71,0,0,1,.037-2.182,2.171,2.171,0,0,1,.495-.772,1.874,1.874,0,0,1,.707-.435,2.7,2.7,0,0,1,.851-.136,2.969,2.969,0,0,1,.9.131,1.77,1.77,0,0,1,.7.411,1.891,1.891,0,0,1,.458.742,3.314,3.314,0,0,1,.163,1.116v1.224h.742a.418.418,0,0,1,.324.121.6.6,0,0,1,.109.408.7.7,0,0,1-.1.455.454.454,0,0,1-.331.1H475.4v.247a1.905,1.905,0,0,1-.514,1.484,2.157,2.157,0,0,1-1.5.467Zm1.261-5.818a.908.908,0,0,0-.767.369,1.608,1.608,0,0,0-.277.989,1.238,1.238,0,0,0,.277.933,1.163,1.163,0,0,0,.8.247h.96v-1.237a1.659,1.659,0,0,0-.247-.97.873.873,0,0,0-.742-.331Z" transform="translate(-421.38 -201.656)" fill="#133e6a"/>
        <path id="Path_892" data-name="Path 892" d="M491.182,235.594a.539.539,0,0,0,.4-.124.628.628,0,0,0,.126-.45V229.4a.094.094,0,0,1,.077-.109.1.1,0,0,1,.029,0h1a.094.094,0,0,1,.107.079.09.09,0,0,1,0,.03v5.526a.577.577,0,0,0,.247.495,1.115,1.115,0,0,0,.658.173h.186a.428.428,0,0,1,.327.121.616.616,0,0,1,.109.408.688.688,0,0,1-.1.438.413.413,0,0,1-.331.121,2.363,2.363,0,0,1-.742-.1.883.883,0,0,1-.495-.455.873.873,0,0,1-.435.433,1.943,1.943,0,0,1-.772.126h-.908a.462.462,0,0,1-.327-.1.665.665,0,0,1-.109-.455.625.625,0,0,1,.1-.413.429.429,0,0,1,.331-.116Z" transform="translate(-435.89 -193.48)" fill="#133e6a"/>
        <path id="Path_893" data-name="Path 893" d="M504.819,241.034a2.9,2.9,0,0,1,.806-.631,2.4,2.4,0,0,1,1.14-.247,2.942,2.942,0,0,1,1.219.223,2.038,2.038,0,0,1,.782.6,2.289,2.289,0,0,1,.418.868,4.2,4.2,0,0,1,.126,1.046v.141a1.159,1.159,0,0,0,0,.131.608.608,0,0,0,.265.455,1.117,1.117,0,0,0,.638.161h.183a.421.421,0,0,1,.326.121.616.616,0,0,1,.109.408.688.688,0,0,1-.1.438.405.405,0,0,1-.331.121,2.369,2.369,0,0,1-.8-.121.918.918,0,0,1-.527-.527,1.083,1.083,0,0,1-.571.512,2.529,2.529,0,0,1-.885.136h-3.371a.413.413,0,0,1-.327-.126.652.652,0,0,1-.109-.423.635.635,0,0,1,.1-.428.435.435,0,0,1,.331-.111h2.894a1.912,1.912,0,0,0,.455-.042.53.53,0,0,0,.272-.151.571.571,0,0,0,.131-.287,2.476,2.476,0,0,0,.032-.44,3.023,3.023,0,0,0-.064-.638,1.439,1.439,0,0,0-.218-.51,1.09,1.09,0,0,0-.4-.341,1.355,1.355,0,0,0-.613-.124,1.485,1.485,0,0,0-.653.141,1.826,1.826,0,0,0-.522.381.1.1,0,0,1-.136.015.09.09,0,0,1-.015-.015l-.566-.579c-.057-.059-.064-.109-.022-.153" transform="translate(-446.114 -201.66)" fill="#133e6a"/>
        <path id="Path_894" data-name="Path 894" d="M529.614,235.594a.54.54,0,0,0,.4-.124.629.629,0,0,0,.126-.45V229.4a.094.094,0,0,1,.077-.109.1.1,0,0,1,.03,0h1a.094.094,0,0,1,.106.109v5.526a.577.577,0,0,0,.247.495,1.116,1.116,0,0,0,.658.173h.181a.428.428,0,0,1,.327.121.616.616,0,0,1,.109.408.688.688,0,0,1-.1.438.413.413,0,0,1-.331.121,2.363,2.363,0,0,1-.742-.1.884.884,0,0,1-.495-.455.864.864,0,0,1-.435.433,1.943,1.943,0,0,1-.772.126h-.915a.462.462,0,0,1-.327-.1.665.665,0,0,1-.109-.455.624.624,0,0,1,.1-.413.428.428,0,0,1,.331-.116Z" transform="translate(-464.807 -193.48)" fill="#133e6a"/>
        <path id="Path_895" data-name="Path 895" d="M542.712,236.683a.462.462,0,0,1-.327-.1.6.6,0,0,1-.109-.423.7.7,0,0,1,.1-.435.405.405,0,0,1,.331-.126h.534a.539.539,0,0,0,.4-.124.629.629,0,0,0,.126-.45V229.4a.094.094,0,0,1,.077-.109.1.1,0,0,1,.03,0h1a.094.094,0,0,1,.106.109v5.917a1.539,1.539,0,0,1-.292,1.039,1.238,1.238,0,0,1-.97.331Z" transform="translate(-475.068 -193.48)" fill="#133e6a"/>
        <path id="Path_896" data-name="Path 896" d="M576.591,234.922a.582.582,0,0,0,.247.495,1.094,1.094,0,0,0,.653.173h.185a.428.428,0,0,1,.327.121.615.615,0,0,1,.109.408.686.686,0,0,1-.1.438.413.413,0,0,1-.331.121,2.331,2.331,0,0,1-.73-.1.871.871,0,0,1-.495-.455.841.841,0,0,1-.458.438,2.265,2.265,0,0,1-.826.121h-5.313a1.249,1.249,0,0,1-.989-.334,1.567,1.567,0,0,1-.292-1.046v-2.34a.1.1,0,0,1,.082-.109.094.094,0,0,1,.027,0h.989a.1.1,0,0,1,.109.082.1.1,0,0,1,0,.027v2.056c0,.262.069.423.208.495a1.98,1.98,0,0,0,.742.091h4.089a.645.645,0,0,0,.3-.054.346.346,0,0,0,.156-.173.858.858,0,0,0,.067-.314V229.4a.1.1,0,0,1,.109-.109h.99a.1.1,0,0,1,.109.082.092.092,0,0,1,0,.026Zm-3.856-3.067h.185a.631.631,0,0,1,.52.2.957.957,0,0,1,.161.608v.208a.839.839,0,0,1-.153.586.67.67,0,0,1-.495.153h-1.284a.1.1,0,0,1-.109-.082.106.106,0,0,1,0-.026v-.324a.1.1,0,0,1,.109-.109h1.1c.094,0,.156-.017.181-.054a.315.315,0,0,0,.037-.173.586.586,0,0,0-.072-.366.551.551,0,0,0-.346-.069h-.512a.134.134,0,0,1-.151-.153V232a.171.171,0,0,1,.027-.1.6.6,0,0,1,.047-.064l.841-.989q.089-.109.178-.022l.272.247c.035.037.049.064.042.087a.528.528,0,0,1-.042.087Z" transform="translate(-494.86 -193.48)" fill="#133e6a"/>
        <path id="Path_897" data-name="Path 897" d="M606.529,244.885a.839.839,0,0,1-.458.438,2.286,2.286,0,0,1-.826.121h-1.012a.462.462,0,0,1-.327-.1.584.584,0,0,1-.109-.413.721.721,0,0,1,.1-.445.405.405,0,0,1,.331-.126h.707a.611.611,0,0,0,.3-.059.35.35,0,0,0,.151-.183,1.019,1.019,0,0,0,.062-.327v-2.751a.086.086,0,0,1,.059-.087.352.352,0,0,1,.124-.022h.93a.094.094,0,0,1,.107.079.091.091,0,0,1,0,.03v2.647a.572.572,0,0,0,.247.495,1.115,1.115,0,0,0,.658.173h.186a.421.421,0,0,1,.327.121.616.616,0,0,1,.109.408.688.688,0,0,1-.1.438.408.408,0,0,1-.331.121,2.371,2.371,0,0,1-.742-.1.869.869,0,0,1-.492-.45m-1.694,2.647a.1.1,0,0,1-.109-.109v-.945a.1.1,0,0,1,.109-.109h.915a.1.1,0,0,1,.109.082.091.091,0,0,1,0,.026v.945a.1.1,0,0,1-.082.109.094.094,0,0,1-.027,0Zm1.415,0a.1.1,0,0,1-.109-.109v-.945a.1.1,0,0,1,.109-.109h.913a.1.1,0,0,1,.109.082.091.091,0,0,1,0,.026v.945a.1.1,0,0,1-.082.109.094.094,0,0,1-.026,0Z" transform="translate(-521.372 -202.24)" fill="#133e6a"/>
        <path id="Path_898" data-name="Path 898" d="M618.563,238.6a.455.455,0,0,1-.326-.1.546.546,0,0,1-.109-.4.743.743,0,0,1,.1-.45.389.389,0,0,1,.331-.134h.7a.541.541,0,0,0,.4-.124.629.629,0,0,0,.124-.45V234.2a.1.1,0,0,1,.082-.109.1.1,0,0,1,.026,0h1a.1.1,0,0,1,.109.082.1.1,0,0,1,0,.026v3.035a1.538,1.538,0,0,1-.292,1.039,1.237,1.237,0,0,1-.97.331Zm.673-5.6a.1.1,0,0,1-.109-.082.09.09,0,0,1,0-.029v-.942a.1.1,0,0,1,.109-.111h.913a.1.1,0,0,1,.111.085.1.1,0,0,1,0,.026v.942a.1.1,0,0,1-.085.111.1.1,0,0,1-.026,0Zm1.415,0a.1.1,0,0,1-.109-.111v-.942c0-.074.035-.111.109-.111h.905a.1.1,0,0,1,.109.082.09.09,0,0,1,0,.029v.942a.1.1,0,0,1-.079.111.1.1,0,0,1-.029,0Z" transform="translate(-532.157 -195.399)" fill="#133e6a"/>
        <path id="Path_899" data-name="Path 899" d="M652.3,244.239a.64.64,0,0,0,.124-.45v-2.743a.1.1,0,0,1,.082-.109.094.094,0,0,1,.026,0h.989a.1.1,0,0,1,.109.109v3.035a1.536,1.536,0,0,1-.294,1.039,1.276,1.276,0,0,1-.99.331h-5.427a1.237,1.237,0,0,1-.977-.334,1.569,1.569,0,0,1-.294-1.046v-2.34a.1.1,0,0,1,.109-.109h.989a.094.094,0,0,1,.107.079.091.091,0,0,1,0,.03v2.056a.635.635,0,0,0,.126.453.539.539,0,0,0,.4.124h4.517a.559.559,0,0,0,.408-.124m-3.193,3.3a.1.1,0,0,1-.109-.082.092.092,0,0,1,0-.026v-.945a.1.1,0,0,1,.109-.109h1.044a.1.1,0,0,1,.109.082.092.092,0,0,1,0,.026v.945a.1.1,0,0,1-.082.109.094.094,0,0,1-.026,0Z" transform="translate(-552.867 -202.248)" fill="#133e6a"/>
        <path id="Path_900" data-name="Path 900" d="M683.386,247.056a.1.1,0,0,1-.109-.082.1.1,0,0,1,0-.026v-.868a.1.1,0,0,1,.079-.111.1.1,0,0,1,.029,0h1.274a1.741,1.741,0,0,0,.435-.047.664.664,0,0,0,.3-.168.816.816,0,0,0,.186-.339,2.012,2.012,0,0,0,.064-.554h-1.1a3.262,3.262,0,0,1-.908-.114,1.566,1.566,0,0,1-.67-.381,1.774,1.774,0,0,1-.42-.69,3.184,3.184,0,0,1-.146-1.044,3.121,3.121,0,0,1,.185-1.138,2.163,2.163,0,0,1,.495-.772,1.873,1.873,0,0,1,.7-.435,2.7,2.7,0,0,1,.851-.136,2.969,2.969,0,0,1,.9.131,1.77,1.77,0,0,1,.7.411,1.893,1.893,0,0,1,.458.742,3.316,3.316,0,0,1,.163,1.116v1.224h.742a.428.428,0,0,1,.327.121.616.616,0,0,1,.109.408.682.682,0,0,1-.1.455.454.454,0,0,1-.331.1h-.742v.247a1.9,1.9,0,0,1-.515,1.484,2.156,2.156,0,0,1-1.5.467Zm1.261-5.818a.908.908,0,0,0-.767.369,1.608,1.608,0,0,0-.277.989,1.237,1.237,0,0,0,.277.933,1.165,1.165,0,0,0,.8.247h.967v-1.237a1.64,1.64,0,0,0-.247-.97.874.874,0,0,0-.755-.331" transform="translate(-580.539 -201.656)" fill="#133e6a"/>
        <path id="Path_901" data-name="Path 901" d="M702.1,245.451a.567.567,0,0,1-.326-.077.358.358,0,0,1-.109-.307,1.115,1.115,0,0,1,.1-.495.347.347,0,0,1,.331-.215h.534a.534.534,0,0,0,.4-.124.628.628,0,0,0,.126-.45v-2.738a.094.094,0,0,1,.077-.109.1.1,0,0,1,.03,0h1a.094.094,0,0,1,.107.079.1.1,0,0,1,0,.03v3.035a1.551,1.551,0,0,1-.289,1.039,1.237,1.237,0,0,1-.972.331Zm.957,2.065a.1.1,0,0,1-.109-.109v-.945a.1.1,0,0,1,.082-.109.093.093,0,0,1,.026,0H704.1a.1.1,0,0,1,.109.082.091.091,0,0,1,0,.026v.945a.094.094,0,0,1-.076.109.089.089,0,0,1-.032,0Z" transform="translate(-595.029 -202.248)" fill="#133e6a"/>
        <path id="Path_902" data-name="Path 902" d="M729.077,247.056a.1.1,0,0,1-.109-.109v-.868c0-.074.035-.111.109-.111h1.271a1.744,1.744,0,0,0,.435-.047.651.651,0,0,0,.3-.168.815.815,0,0,0,.186-.339,2.008,2.008,0,0,0,.064-.554h-1.1a3.262,3.262,0,0,1-.908-.114,1.564,1.564,0,0,1-.67-.381,1.775,1.775,0,0,1-.418-.69,3.254,3.254,0,0,1-.146-1.044,3.121,3.121,0,0,1,.186-1.138,2.2,2.2,0,0,1,.495-.772,1.868,1.868,0,0,1,.71-.435,2.671,2.671,0,0,1,.848-.136,2.955,2.955,0,0,1,.9.131,1.771,1.771,0,0,1,.7.411,1.867,1.867,0,0,1,.458.742,3.316,3.316,0,0,1,.166,1.116v1.224h.742a.428.428,0,0,1,.326.121.616.616,0,0,1,.109.408.681.681,0,0,1-.1.455.454.454,0,0,1-.331.1h-.742v.247a1.9,1.9,0,0,1-.517,1.484,2.157,2.157,0,0,1-1.484.467Zm1.261-5.818a.905.905,0,0,0-.767.369,1.592,1.592,0,0,0-.277.989,1.227,1.227,0,0,0,.277.933,1.152,1.152,0,0,0,.8.247h.967v-1.237a1.64,1.64,0,0,0-.247-.97.874.874,0,0,0-.752-.331" transform="translate(-614.928 -201.656)" fill="#133e6a"/>
        <path id="Path_903" data-name="Path 903" d="M747.78,238.6a.45.45,0,0,1-.324-.1.547.547,0,0,1-.109-.4.76.76,0,0,1,.1-.45.4.4,0,0,1,.331-.134h.715a.543.543,0,0,0,.4-.124.64.64,0,0,0,.124-.45V234.2a.1.1,0,0,1,.082-.109.094.094,0,0,1,.026,0h1a.1.1,0,0,1,.109.109v3.035a1.552,1.552,0,0,1-.292,1.039,1.237,1.237,0,0,1-.97.331Zm.675-5.6a.1.1,0,0,1-.109-.082.09.09,0,0,1,0-.029v-.942a.1.1,0,0,1,.109-.111h.913c.074,0,.109.037.109.111v.942c0,.074-.035.111-.109.111Zm1.415,0a.1.1,0,0,1-.109-.111v-.942c0-.074.035-.111.109-.111h.913a.1.1,0,0,1,.109.082.09.09,0,0,1,0,.029v.942a.1.1,0,0,1-.079.111.1.1,0,0,1-.029,0Z" transform="translate(-629.414 -195.399)" fill="#133e6a"/>
      </g>
    </g>
    <text id="POWERED_BY" data-name="POWERED BY" transform="translate(140 236)" fill="#133e6a" font-size="10" font-family="Montserrat-Regular, Montserrat" letter-spacing="1.413em"><tspan x="0" y="0">POWERED BY</tspan></text>
  </g>
</svg>
