<svg xmlns="http://www.w3.org/2000/svg" xmlns:xlink="http://www.w3.org/1999/xlink" width="282.403" height="318.752" viewBox="0 0 282.403 318.752">
  <defs>
    <clipPath id="clip-path">
      <rect id="Rectangle_161316" data-name="Rectangle 161316" width="282.403" height="318.752" transform="translate(0)" fill="#fff"/>
    </clipPath>
  </defs>
  <g id="logo" clip-path="url(#clip-path)">
    <g id="Group_151079" data-name="Group 151079" transform="translate(2.351 -2.843)">
      <path id="Path_627" data-name="Path 627" d="M792.222,121.378c-.763,5.942-1.51,11.752-2.3,17.935-4.019-.742-7.826-1.444-11.541-2.131-.666,3.035-1.228,5.694-1.839,8.342-.335,1.459-.3,2.44,1.559,2.955a54.1,54.1,0,0,1,7.28,2.829c.483.214,1.111,1.248.959,1.571-2.211,4.7-4.542,9.338-6.971,14.248-2.411-1.114-4.748-2.209-7.1-3.274-2.731-1.239-2.761-1.242-4.193,1.423-.925,1.724-2.7,3.694-2.372,5.186.308,1.421,2.833,2.373,4.4,3.514,1.481,1.078,2.98,2.134,4.591,3.286-3.407,4.063-6.709,8-10.009,11.94-.769.919-1.519.653-2.307.015-1.88-1.519-3.812-2.977-5.646-4.549-1.128-.965-1.995-.785-2.94.208-1.709,1.8-3.529,3.5-5.143,5.371a2.343,2.343,0,0,0-.076,2.128,73.045,73.045,0,0,0,4.1,6.645c.907,1.3,1.065,2.032-.516,2.943-3.579,2.064-7.087,4.257-10.535,6.532-1.637,1.082-2.616.708-3.549-.831-1.311-2.162-2.706-4.273-4.218-6.642-3.156,1.625-6.283,3.159-9.3,4.88-.384.219-.447,1.478-.256,2.139.841,2.905,1.83,5.767,2.795,8.738l-16.835,5.077c-.581-2.552-1.09-5-1.706-7.421-.584-2.3-.938-2.52-3.177-2.067-2.307.467-4.586,1.057-6.892,1.525a1.618,1.618,0,0,0-1.507,1.975c.2,2.723.361,5.449.415,8.177.009.482-.572,1.394-.892,1.4-5.336.087-10.675.063-16.18.063,0-2.971-.118-5.746.047-8.5.09-1.524-.236-2.221-1.848-2.327-3.113-.205-6.214-.627-9.328-.76a2.418,2.418,0,0,0-1.862,1.3,65.691,65.691,0,0,0-1.736,7.009c-.263,1.3-.688,1.9-2.163,1.533a83.434,83.434,0,0,1-15.1-5.119c.967-2.8,1.843-5.426,2.789-8.03.376-1.033.206-1.566-.9-2.009-3.6-1.433-7.173-2.952-10.718-4.523a1.531,1.531,0,0,0-2.224.681c-1.355,2.073-2.766,4.11-4.124,6.182-.642.982-1.362,1.542-2.493.724q-6.106-4.415-12.2-8.851a2.6,2.6,0,0,1-.5-.643l6.127-7.851c-2.691-2.256-5.143-4.455-7.777-6.408a3,3,0,0,0-2.685.158,52.41,52.41,0,0,0-4.975,3.849c-1.4,1.147-2.581,1.088-3.7-.416-2.845-3.812-5.732-7.592-8.746-11.571l8.192-6.5c-1.161-1.793-2.33-3.723-3.621-5.57-2.555-3.653-2.584-3.635-6.9-2.249-1.513.486-3.044.926-4.528,1.487a1.281,1.281,0,0,1-1.932-.838c-1.619-4.132-3.222-8.271-4.9-12.379-.488-1.195-.28-1.949.924-2.4,2.258-.844,4.484-1.805,6.8-2.464,1.218-.346,1.564-.754,1.259-1.955-.9-3.541-1.721-7.1-2.6-10.786l-10.734,3.291c-.557-6.223-1.086-12.139-1.635-18.268h24.02c.217,1.409.5,2.945.685,4.493a92.508,92.508,0,0,0,13.5,37.9c11.348,18.509,27.7,30.477,49.081,34.9,14.5,3,29.231,3.281,43.477-1.314,23.321-7.525,41.381-21.609,51.877-44.157a75.121,75.121,0,0,0,7.006-30.014c.04-1.594.488-1.993,2.076-1.966,7.583.132,15.166.119,22.751.162.366,0,.731.04,1.251.069" transform="translate(-544.741 64.179)" fill="#030102"/>
      <path id="Subtraction_2" data-name="Subtraction 2" d="M0,71.972c1.856-6.3,3.226-12.79,5.653-18.862C14.173,31.8,29.806,17.783,51.315,10A77.165,77.165,0,0,1,68.794,6.2c1.86-.216,3.193-.493,3.444-2.832A3.878,3.878,0,0,1,76.791.043a3.718,3.718,0,0,1,3.333,4.141c-.059,1.427.44,1.823,1.815,1.964,26.846,2.74,46.931,16.014,60.4,39.133a66.635,66.635,0,0,1,8.615,25.445c.156,1.256-.069,1.774-1.392,1.749-1.973-.04-3.951.026-5.926.027q-68.931.051-137.862.1c-1.7,0-5.778,0-5.778,0M100.093,20.1c-.164.623-11.354,19.638-16.932,28.948-2.628,4.388-2.516,5.206,1.546,8.371,7.418,5.784,15.773,7.019,24.739,4.86a21.146,21.146,0,0,0,11.387-6.931,3.737,3.737,0,0,0,.887-2.605,8.5,8.5,0,0,0-1.434-3.069c-5.819-9.3-11.551-18.659-17.593-27.814a21.549,21.549,0,0,0-6.354-6.189C86.4,9.435,75.811,7.151,64.26,11.016c-7.231,2.42-13.386,6-17.317,12.795-2.443,4.228-5.128,8.317-7.646,12.5-2.912,4.839-5.853,9.66-8.6,14.594-1.548,2.783-1.274,3.413,1.082,5.688.227.22.468.428.707.639,6.02,5.3,13.212,6.569,20.889,5.793a24.456,24.456,0,0,0,15.96-8.115,2.36,2.36,0,0,0,.3-3.341c-5.608-8.837-11.113-17.741-16.628-26.638-.92-1.488-1.726-3.049-2.733-4.837ZM75.969,5.755c1.025.012,2,.061,1.909-1.4-.079-1.215-.448-1.992-1.872-2.039s-1.663.75-1.71,1.876c-.053,1.239,1.674,1.563,1.674,1.563" transform="translate(63.859 103.706)" fill="#009e3a"/>
      <path id="Path_629" data-name="Path 629" d="M587.459,147.989c0-1.828.046-3.659-.057-5.481-.012-.231-.786-.442-1.224-.621a44.577,44.577,0,0,1-6.084-2.53,7.343,7.343,0,0,1-3.6-6.725q.082-64.688.121-129.377c0-1.03.119-2.059.183-3.09L577.545,0a7.041,7.041,0,0,1,.93,2.336q.025,47.538-.053,95.078c-.011,10.352-.029,20.705.017,31.057,0,.6.546,1.193.837,1.788.284-.546.817-1.092.818-1.64q.092-30.477.092-60.956.014-28.773,0-57.544c0-2.6-.075-5.2-.021-7.8a5.155,5.155,0,0,1,.672-1.655c.32.552.917,1.1.917,1.657,0,10.032-.117,20.063-.117,30.1q0,45.241.054,90.484c0,2.412-.128,4.825-.108,7.237.009,1.025-.02,2.206,1.666,2.59a14.46,14.46,0,0,0,.191-1.638q-.046-63.738-.106-127.477a7.446,7.446,0,0,1,.139-2.079c.127-.434.643-.756.984-1.127.372.372.944.687,1.071,1.13a8.329,8.329,0,0,1,.148,2.267q0,61.164-.02,122.326,0,3.811.09,7.62a5.3,5.3,0,0,0,.393,1.839,1.148,1.148,0,0,0,.895.444c.167.006.457-.41.5-.667a10.815,10.815,0,0,0,.07-1.71q.032-59.261.057-118.524c0-4.381-.047-8.766,0-13.147a5.091,5.091,0,0,1,.717-1.71c.333.568.955,1.135.958,1.7.043,9.139,0,18.279-.008,27.418q-.055,51.79-.1,103.577a9.29,9.29,0,0,0,.072,2.087c.09.39.575.688.881,1.028.34-.315.792-.575.988-.962a3.045,3.045,0,0,0,.124-1.309q-.1-39.532-.2-79.061-.06-25.152-.07-50.3c0-1.36.129-2.721.208-4.311,2.065.713,2.013,2.166,2.01,3.515-.008,4.762-.1,9.526-.1,14.288q-.007,53.926.011,107.85v7.058c1.67-.139,2.057-1.161,2.117-2.351.087-1.775.1-3.554.1-5.333q0-58.587-.017-117.174c0-1.9-.158-3.809-.127-5.711a5.3,5.3,0,0,1,.642-1.674c.324.551.933,1.1.93,1.651-.043,11.049-.225,22.1-.24,33.145q-.062,42.683-.006,85.365c0,2.6.052,5.21.248,7.8.039.509.849.959,1.3,1.436.283-.517.816-1.034.816-1.551q.032-53.926-.026-107.85c-.006-5.715-.165-11.43-.167-17.147a12.989,12.989,0,0,1,.678-2.919,10.653,10.653,0,0,1,.779,2.764q.048,58.69.018,117.38c0,3.551.092,7.1.086,10.652-.009,5.838-3.078,9.555-8.842,10.425-1.608.243-2.052.82-1.917,2.293.11,1.2.038,2.409.075,3.615,0,.161.176.317.587,1,1.423-4.857,6.154-4.494,9.295-6.6,1.55,2.183.456,7.326-2.383,9.134a20.439,20.439,0,0,1-6.139,2.318c-1.14.277-1.479.581-1.426,1.681.079,1.625.02,3.257.02,4.885l.486.307c1.5-1.235,2.928-2.576,4.523-3.674s3.37-1.961,5.059-2.923c1.351,3.442-.635,10.2-5.259,11.256a22.1,22.1,0,0,1-3.17.67c-1.548.121-1.891.889-1.709,2.279a32.409,32.409,0,0,1,.024,3.644c1.017-.63,1.892-.866,2.2-1.417,1.816-3.208,5.184-3.578,8.157-4.758.916,4.693-2.168,10.607-6.385,11.027a55.7,55.7,0,0,1-9.689.064,6.514,6.514,0,0,1-5.749-4.669,31.509,31.509,0,0,1-1.524-6.365c2.766,1.149,5.877,1.144,7.88,3.72a13.234,13.234,0,0,0,2.547,2.016c.205-1.034.418-2.067.611-3.1.343-1.837-.627-2.425-2.3-2.639-5.394-.693-7.121-2.328-8.2-7.653-.258-1.282-.338-2.6-.5-3.9l.454-.425c2.4,1.566,4.8,3.127,7.191,4.7.921.607,1.816,1.251,2.722,1.879.234-1.115.5-2.224.683-3.346.083-.494-.046-1.019,0-1.522.11-1.1-.271-1.537-1.456-1.663-6.83-.72-9.719-4.169-9.531-11.649,3.636,1.83,8.079,1.814,9.937,6.414l.886-.372" transform="translate(-544.741)" fill="#009e3a"/>
      <path id="Path_630" data-name="Path 630" d="M721.494.614a7,7,0,0,1,.427,1.7c-.08,13.4-.26,26.8-.279,40.2q-.057,40.3.029,80.6a36.754,36.754,0,0,0,.277,5.129c.1.708.776,1.335,1.189,2a7.25,7.25,0,0,0,.7-2.108q.1-15.149.09-30.3.02-40.778.014-81.558c0-4.317-.137-8.634-.2-12.951a6.276,6.276,0,0,1,.077-1.892c.136-.438.648-.759.992-1.132.4.387,1.1.74,1.148,1.17a34.469,34.469,0,0,1,.064,3.994q0,59.548-.008,119.1c0,2.539-.02,5.08-.122,7.617a9.627,9.627,0,0,1-7.557,9.13c-4.422.832-3.544,1.436-3.656,4.768-.018.551.058,1.1.118,2.1a37.738,37.738,0,0,1,4.788-3.864,36.958,36.958,0,0,1,5.565-2.131c1.325,5.342-1.3,9.625-6.974,11.043-3.828.956-4.006,1.2-3.434,5.207.072.5.373,1.219.755,1.372s1.076-.176,1.493-.482c2.634-1.928,5.23-3.907,7.948-5.952,1.253,4.7-.681,9.8-4.159,11.254a14.5,14.5,0,0,1-3.7.838c-1.82.239-2.766,1.008-2.429,2.983a22.283,22.283,0,0,1,.022,3.09c1.134-.621,2.231-.86,2.657-1.525a8.277,8.277,0,0,1,5.388-3.589,16.217,16.217,0,0,0,2.781-1.264c.194,6.113-2.667,11.741-9.277,11.68-1.848-.018-3.7.058-5.542-.054-3.711-.226-6.451-1.918-7.607-5.579a26.83,26.83,0,0,1-1.089-5.772c2.9,1.556,6.541,1.339,8.426,4.517.37.624,1.274.933,2.374,1.693,0-2.01.08-3.388-.049-4.748a1.838,1.838,0,0,0-1.019-1.134,6.79,6.79,0,0,0-1.865-.34c-4.166-.6-6.486-2.663-7.272-6.662-.321-1.632-.4-3.31-.593-4.967l.521-.3,9.48,6.4c.5-.48,1.322-4.851.65-5.622-.32-.369-.99-.448-1.513-.626a37.083,37.083,0,0,1-4.832-1.66c-3.279-1.658-4.944-5.977-3.959-9.719a41.176,41.176,0,0,1,5.653,2.065,40.8,40.8,0,0,1,4.987,3.765c0-2.114.075-3.616-.051-5.1-.032-.382-.632-.844-1.073-1.036a14.713,14.713,0,0,0-1.86-.375c-5.92-1.657-8.027-4.459-8.027-10.77q0-37.921.026-75.841.018-26.678.066-53.353c0-.468.087-.935.135-1.4l.7-.136a13.3,13.3,0,0,1,.624,2.778c.063,6.16.051,12.321.049,18.483q-.01,50.592-.026,101.185v7.8c1.714.084,1.781-.97,1.808-1.877.075-2.538.077-5.079.077-7.618q.021-54.874.017-109.75c0-2.914-.3-5.827-.3-8.741,0-.629.678-1.257,1.043-1.886.4.681,1.132,1.358,1.137,2.041.021,3.361-.239,6.722-.24,10.083q-.027,56.024,0,112.047a61.713,61.713,0,0,0,.24,6.275c.055.546.86,1.016,1.32,1.521.317-.526.908-1.051.91-1.577q.085-28.486.064-56.968,0-34.872-.015-69.742a22.681,22.681,0,0,1-.133-2.46c.046-.41.555-.769.855-1.153.265.356.746.708.756,1.071.029,1.392-.148,2.789-.148,4.184q-.018,43.541-.015,87.082,0,20.294-.018,40.588a2.994,2.994,0,0,0,.032,1.13,8.7,8.7,0,0,0,.93,1.375c.365-.479,1.013-.938,1.051-1.443.161-2.149.182-4.312.181-6.471q0-48.584-.046-97.17c-.014-9.2-.2-18.409-.3-27.612a4.774,4.774,0,0,1,.078-1.7c.178-.459.7-.782,1.076-1.166.372.412,1.059.818,1.065,1.236.04,2.665-.12,5.331-.121,8q-.021,41.723-.015,83.445c-.008,12.827-.067,25.654-.1,38.481a26.852,26.852,0,0,0,.047,3.235c.05.436.554.817.852,1.224.413-.378,1.117-.711,1.185-1.144a31.1,31.1,0,0,0,.377-4.739q.066-21.34.069-42.683.012-38.3-.006-76.6c0-3.349,0-6.7,0-10.234.987-.281,1.486.026,1.482,1.5q-.145,64.124-.177,128.248c0,.618.63,1.236.967,1.854.474-.714,1.363-1.427,1.365-2.142.011-21.528-.086-43.055-.124-64.583q-.057-31.058-.041-62.119V.767l.788-.153" transform="translate(-478.275 0.042)" fill="#009e3a"/>
      <path id="Path_631" data-name="Path 631" d="M599.233,121.89H601.4c10.575,0,21.151.046,31.724-.041,1.964-.017,2.535.612,2.481,2.507-.119,4.112-.037,8.232-.037,12.674-2.948,0-5.729.055-8.5-.069-.355-.015-.918-.935-.962-1.47-.3-3.621-.262-3.656-3.981-3.69-3.44-.029-6.879.031-10.32.028-1.124,0-1.625.356-1.394,1.6a62.832,62.832,0,0,0,13.737,29.3c.4.477.844.918,1.686,1.823V150.84c-1.351-.067-2.857-.248-4.354-.184-1.1.047-1.542-.356-1.559-1.369-.026-1.522-.115-3.052,0-4.565a1.584,1.584,0,0,1,1.1-1.083c4.391-.08,8.785-.1,13.174.006a1.937,1.937,0,0,1,1.288,1.361c.168,1.827.094,3.676.094,5.518q0,14.188-.012,28.377v3.046a27.819,27.819,0,0,1-3.229-.811,31.129,31.129,0,0,1-12.016-8.871,85.529,85.529,0,0,1-20.452-42.881c-.405-2.36-.422-4.787-.646-7.494" transform="translate(-532.697 64.551)" fill="#b61133"/>
      <path id="Path_632" data-name="Path 632" d="M630.956,154.645q0-16-.016-31.99c0-.955.247-1.366,1.29-1.365,6.305,0,12.611-.037,18.917-.089,1.047-.009,1.487.356,1.461,1.452-.065,2.6-.078,5.206-.019,7.808.027,1.127-.425,1.406-1.469,1.387-2.74-.049-5.479.023-8.218-.014-1.2-.017-1.726.405-1.718,1.663q.14,23.233.19,46.467c0,1.568.522,2.093,2.033,2.22a65.23,65.23,0,0,1,6.99,1,2,2,0,0,1,1.314,1.346c.151,2.019.077,4.058.063,6.088-.008,1.16-.485,1.615-1.776,1.576-6.376-.2-12.4-2.1-18.456-3.774-.428-.119-.854-1.16-.857-1.773" transform="translate(-516.017 64.208)" fill="#b61133"/>
      <path id="Path_633" data-name="Path 633" d="M663.787,180.95c2.512-.687,4.709-1.264,6.888-1.9,1.383-.4,2.012-.145,1.891,1.49-.15,2.021.032,4.068-.109,6.09-.041.584-.612,1.521-1.089,1.628-5.706,1.268-11.44,2.414-17.167,3.583a4.747,4.747,0,0,1-.832.006c-.031-.667-.083-1.29-.083-1.914,0-21.975.023-43.95-.054-65.927-.008-1.931.5-2.521,2.417-2.486,5.671.1,11.343.058,17.015.031,1.074,0,1.663.231,1.637,1.47-.046,2.284-.012,4.572.077,6.856.049,1.265-.335,1.816-1.7,1.827-2.483.018-4.963.268-7.447.318-1.244.024-1.6.47-1.6,1.716.086,14.923.112,29.846.155,44.768,0,.737,0,1.475,0,2.438" transform="translate(-504.09 64.378)" fill="#b61133"/>
      <path id="Path_634" data-name="Path 634" d="M687.2,131.507v18.522l10.977-.571c-1.465,7.21-16.514,25.422-25.1,30.386,0-1.368-.031-2.515.006-3.659.07-2.154.352-4.317.217-6.454-.116-1.807.38-3.115,1.957-3.909,1.412-.711,1.716-1.825,1.712-3.274q-.043-15.041.018-30.084c.006-1.127-.464-1.479-1.452-1.482H673.5v-9.665c2.72,0,5.434-.008,8.146,0,2.8.009,5.6.081,8.406.029,1.284-.024,1.649.479,1.6,1.69-.1,2.278-.029,4.563-.141,6.84a1.536,1.536,0,0,1-.924,1.08,29.023,29.023,0,0,1-3.388.549" transform="translate(-493.58 64.268)" fill="#b61133"/>
      <path id="Path_636" data-name="Path 636" d="M629.274,167.288c-3.943-1.025-4.464-1.663-4.472-4.929-.006-2,0-4,0-6.058,2.994.483,4.443,2.068,4.468,4.574.021,2.058,0,4.117,0,6.413" transform="translate(-518.579 81.412)" fill="#b61133"/>
      <path id="Path_637" data-name="Path 637" d="M646.775,166.462c0-.695-.015-1.391,0-2.085.063-2.435,1.141-3.2,3.369-2.295a1.547,1.547,0,0,1,.745,1.132c.135,2.016.2,4.04.213,6.061.017,2.036-1.648,1.238-2.665,1.47-1.151.262-1.657-.352-1.677-1.44-.018-.948,0-1.9,0-2.844Z" transform="translate(-507.523 85.67)" fill="#b61133"/>
      <path id="Path_642" data-name="Path 642" d="M579.861,174.907c2.581-2,5.031-3.89,7.482-5.79.9-.7,1.784-1.43,2.7-2.113.751-.555,1.548-1.389,2.373-.106.641,1,1.557,2.007.077,3.092-1.123.82-2.2,1.69-3.5,2.694.762.537,1.378,1.033,2.048,1.435a10.326,10.326,0,0,1,3.212,15.435c-.409.565-1.033,1.482-.834,1.88a10.774,10.774,0,0,0,2.243,2.766c.1.1,1.048-.454,1.421-.869a6.948,6.948,0,0,1,12,2.226,6.167,6.167,0,0,1-2.49,7.484c-2.625,1.723-6.6,1.68-8.508-.364-3.343-3.569-6.658-7.181-9.737-10.971-6.768-8.33-13.381-16.783-20.057-25.186-.116-.15-.223-.309-.33-.465-2.547-3.688-2.123-5.2,2.258-6.543,4.142-1.267,8.29-1.518,11.791,1.813a7.6,7.6,0,0,1,1,1.152c2.024,2.9,1.837,3.864-1.118,5.815-1,.665-2.008,1.346-3.056,1.943-1.393.8-1.562,1.7-.45,2.871.433.453.8.968,1.478,1.8m10.2,13.165c2.629-3.177,2.952-5.389,1.689-7.785a6.264,6.264,0,0,0-6.579-3.15,2.706,2.706,0,0,0-1.718.933c-.191.272.228,1.137.569,1.588,1.67,2.226,3.424,4.39,5.108,6.607a11.994,11.994,0,0,1,.932,1.807m-15.432-25.781c-.474.194-1.582.341-2.076.967-.276.347.438,1.518.785,2.279a3.525,3.525,0,0,0,.884,1.219c.394.324,1.15.8,1.371.653,1.214-.817,3.115-1.689,3.271-2.76.234-1.62-1.816-1.9-3.211-2.276a8.32,8.32,0,0,0-1.023-.083m28.187,37.684c1.479-.011,2.383-.9,2.391-2.691a2.046,2.046,0,0,0-2.346-2.327c-1.813.012-3.095,1.115-3,2.708.092,1.619,1.02,2.377,2.958,2.31" transform="translate(-550.093 84.043)" fill="#030102"/>
      <path id="Path_643" data-name="Path 643" d="M606.086,183.293,597.93,195.13c5.264,2.986,10.162,5.763,15.048,8.531a5.867,5.867,0,0,0-2.3-8.574c-1.15-.528-2.409-.818-3.583-1.3-1.36-.561-1.489-1.589-.254-2.389a3.832,3.832,0,0,1,1.964-.534,8.391,8.391,0,0,1,8.629,8.336,52.946,52.946,0,0,1-.3,5.311c-.083,1.325,3.015,3.808,4.234,3.291.4-.171.668-.844.835-1.343a6.369,6.369,0,0,1,5.024-4.672c2.945-.592,5.648.33,7.063,2.544a7.312,7.312,0,0,1-.111,8.063,6.943,6.943,0,0,1-7.578,2.136,174.531,174.531,0,0,1-29-14.823c-1.712-1.063-4.123-2.137-4.6-3.693-.375-1.235,1.666-3.251,2.734-4.854,1.759-2.642,3.514-5.293,5.429-7.822,1.7-2.243,2.6-2.2,4.914-.043m25.529,24.983a3.063,3.063,0,0,0-3.032-2.784,2.637,2.637,0,0,0-2.583,2.7,2.9,2.9,0,0,0,2.745,2.821,3.045,3.045,0,0,0,2.87-2.737" transform="translate(-536.018 96.239)" fill="#030102"/>
      <path id="Path_644" data-name="Path 644" d="M647.568,196.77c.438-.061,1.117-.165,1.8-.248,1.2-.147,1.7.332,1.713,1.6.041,3.615.235,7.228.291,10.841.021,1.447.489,2.1,2.044,1.872,1.373-.2,2.778-.2,4.453-.314-.158-2.264-.32-4.384-.451-6.508-.2-3.235-.193-3.237,3.4-3.095.272,2.4.655,4.837.789,7.283.1,1.863,1.094,1.972,2.539,1.759,1.381-.2,2.723-.245,2.363-2.3s-.537-4.144-.77-6.222c-.163-1.484.58-2.165,1.9-1.484,1.917.994,3.214.269,4.8-.831,5.915-4.107,13.633-.9,15.538,6.347.289,1.1.473,2.22.751,3.557a30.843,30.843,0,0,1-3.078.851c-11.969,2.032-23.889,4.421-36.075,4.862-1.066.038-1.986.057-1.99-1.32-.015-5.5-.006-11-.006-16.65m36.173,9.414c-1.274-3.649-4.244-5.272-7.416-4.491-2.862.7-4.609,3.269-4.185,6.708,3.817-.728,7.6-1.452,11.6-2.217" transform="translate(-507.092 104.096)" fill="#030102"/>
      <path id="Path_645" data-name="Path 645" d="M697.238,184.871l3-2.259c1.478,1.655,2.926,3.231,4.319,4.854,1.655,1.928,3.222,3.931,4.924,5.812.3.335,1.4.519,1.609.294,3.765-4.1,7.448-8.282,11.141-12.437-3.233-3.287-8.089-2.185-9.988,2.137-.269.612-.575,1.459-1.077,1.657a3.153,3.153,0,0,1-2.339-.092c-.378-.193-.5-1.233-.447-1.865.422-4.65,5.89-8.21,11.036-7.152a20.4,20.4,0,0,1,3.958,1.348,1.941,1.941,0,0,0,2.669-.575c2.914-3.785,2.789-2.734-.514-5.34-1.146-.9-2.325-1.767-3.492-2.645-.918-.691-1.181-1.53-.37-2.426.695-.765,1.3-1.732,2.66-.705,2.63,1.993,5.337,3.895,8.1,5.706,1.372.9,1.4,1.7.419,2.874-4.672,5.608-9.273,11.274-13.988,16.849-2.295,2.714-4.742,5.307-7.22,7.858-.418.43-1.75.733-1.97.486-4.163-4.69-8.223-9.471-12.428-14.378" transform="translate(-480.777 87.427)" fill="#030102"/>
      <path id="Path_646" data-name="Path 646" d="M718.454,164.727a17.729,17.729,0,0,1,1.014-3.346c1.49-2.977,2.749-3.32,5.686-1.853,1.193.6,2.387,1.195,3.6,1.747,1.037.473,1.733.211,2.279-.893,1.334-2.7,1.386-2.674-1.488-3.67-3.6-1.248-5.529-4.736-4.479-8.1a6.736,6.736,0,0,1,8.685-4.66,6.446,6.446,0,0,1,4.534,8.034c-1.878,7.519-5.658,14.221-9.235,21-1.817,3.442-2.379,3.515-5.553,1.21a11.761,11.761,0,0,1-5.042-9.466m4.441-1.026a6.111,6.111,0,0,0,1.4,5.828,2.057,2.057,0,0,0,1.518.393c.8-1.311,2.115-2.8,1.943-4.052-.119-.872-2.321-1.487-3.627-2.148-.3-.153-.748-.021-1.238-.021m9.015-10.737a2.792,2.792,0,0,0,2.734-2.608,2.9,2.9,0,0,0-3.039-2.721,2.72,2.72,0,0,0-2.793,2.516,3.314,3.314,0,0,0,3.1,2.813" transform="translate(-469.539 76.095)" fill="#030102"/>
      <path id="Path_647" data-name="Path 647" d="M644.344,209.027c0-.612,0-1.227,0-1.843-.011-2.853,1.075-5.252,3.749-6.315a8.177,8.177,0,0,1,8,.765,2.453,2.453,0,0,1,.422,2.264c-.185.488-1.257.875-1.94.878a10.3,10.3,0,0,1-2.35-.713c-1.784-.457-2.989.22-3.353,1.82a2.87,2.87,0,0,0,2.062,3.694,39.624,39.624,0,0,0,4.73.615c1.329.1,1.528.785,1.394,1.924-.13,1.085-.356,1.8-1.718,1.652-6.774-.745-13.555-1.4-20.326-2.162-2.969-.337-5.928-.817-8.866-1.357-.557-.1-1.406-.768-1.44-1.224-.367-5.048,4.117-10.277,9.124-10.789a1.3,1.3,0,0,1,.379-.035c1.672.337,3.5.375,4.976,1.1,2.062,1.016.4,2.934.535,4.444a3.653,3.653,0,0,1-.052.76c-.509,4.111-.021,4.6,4.673,4.517m-15.123-2.27a33.855,33.855,0,0,0,4.784.8c.419.015,1.184-1.031,1.25-1.648a16.528,16.528,0,0,0-.274-3.59,1.613,1.613,0,0,0-.715-.02,6.969,6.969,0,0,0-5.045,4.459" transform="translate(-519.212 104.996)" fill="#030102"/>
      <path id="Path_648" data-name="Path 648" d="M576.576,155.95c-.3-.545-.607-1.9-1.306-2.151a4.937,4.937,0,0,0-3.566.21c-.586.3-.811,1.854-.71,2.79a16.066,16.066,0,0,0,1.169,3.987c.324.829.786,1.625-.407,1.975-1.069.314-2.327,1.225-3.22-.292a9.682,9.682,0,0,1-.823-2.12c-1.195-3.939-2.409-7.874-3.523-11.836-.543-1.932-1.479-3.251-3.606-3.652a18.1,18.1,0,0,1-3.379-1.279c-1.124-.464-1.839-1.157-1.26-2.5.563-1.308,1.449-1.909,2.871-1.319a15.51,15.51,0,0,0,9.7,1.051,41.338,41.338,0,0,0,4.676-1.6c.716-.265,1.456-1.166,2.065.041.542,1.074,1.227,2.379-.251,3.167-1.888,1.007-3.931,1.723-5.885,2.614-.672.307-1.85.846-1.808,1.146a13.325,13.325,0,0,0,1.195,3.7c.07.156,1.169-.037,1.73-.24,5.443-1.967,9.934,1.109,9.976,6.924.008,1.1.353,2.627-1.637,2.533-1.687-.081-2.7-.731-2-3.153" transform="translate(-555.739 73.448)" fill="#030102"/>
      <path id="Path_649" data-name="Path 649" d="M724.836,146.718c.728-2.787,1.361-3.35,3.75-3.271a20.981,20.981,0,0,1,4.727.516c1.689.454,2.437-.127,2.688-1.66.161-.976.2-1.973.289-2.994-1.536-.161-2.864-.2-4.154-.45-4.153-.8-6.413-6.581-3.95-10.032a2.283,2.283,0,0,1,3.127-.953c1.386.676.728,1.644.382,2.587-.939,2.553-.589,3.774,1.239,4.413a2.792,2.792,0,0,0,3.76-1.84,16.553,16.553,0,0,0,.594-3.167c.278-2.871.274-2.891,3.63-2.393-.211,3.417-.4,6.875-.653,10.327a40.135,40.135,0,0,1-.567,4.53c-.46,2.432-.41,4.6,2,6.121a8.355,8.355,0,0,1,1.771,1.98,1.746,1.746,0,0,1-.21,2.676,1.715,1.715,0,0,1-2.663.075c-.47-.427-.97-.825-1.419-1.271-3.154-3.133-6.818-5.048-11.4-4.906a23.683,23.683,0,0,1-2.943-.288" transform="translate(-466.157 67.401)" fill="#030102"/>
      <path id="Path_650" data-name="Path 650" d="M685.385,206.629c-1.273.119-2.2.209-3.116.292-4.9.442-8.225-2.614-7.823-7.2a6.3,6.3,0,0,1,5.03-5.952c3.312-.892,6.219-.037,7.9,2.605,2.98,4.68,2.463,9.66.869,14.629a2.151,2.151,0,0,1-1.634.953c-1.9.13-2.637-.967-2.021-2.749.259-.745.465-1.508.793-2.582m-3.538-3.671c2.021-.023,3.119-.765,3.053-2.061a4.456,4.456,0,0,0-3.457-3.341,2.809,2.809,0,0,0-2.689,2.861c.064,1.706,1.108,2.564,3.093,2.541" transform="translate(-492.869 102.473)" fill="#030102"/>
      <path id="Path_651" data-name="Path 651" d="M687.25,193.535c.026-4.738,2.585-7.213,7.372-7.129,4.246.075,7.121,3.174,7.037,7.586-.078,4-3.022,6.549-7.544,6.523-4.488-.026-6.889-2.467-6.865-6.98m4.187-.037c.027,2.074.826,3.061,2.5,3.086a3,3,0,0,0,3.286-3.272,2.652,2.652,0,0,0-2.96-2.714c-2.041.011-2.853.844-2.825,2.9" transform="translate(-486.068 98.75)" fill="#030102"/>
      <path id="Path_652" data-name="Path 652" d="M573.035,134.537c-.147,4.348-3.006,7.129-7.21,7.011-4.314-.121-7.223-3.3-7.078-7.739.136-4.143,2.94-6.612,7.606-6.28,4.941.352,7.087,2.362,6.682,7.008m-6.854-3.128a2.986,2.986,0,0,0-3.174,2.411,3.238,3.238,0,0,0,2.591,3.462,3.176,3.176,0,0,0,3.511-2.752,3.012,3.012,0,0,0-2.928-3.121" transform="translate(-554.148 67.544)" fill="#030102"/>
      <path id="Path_653" data-name="Path 653" d="M695.3,184.375c2.871-2.2,3.7-2.246,6.229-.06,4.348,3.762,6.153,8.668,6.342,14.294.058,1.692-1,1.762-2.212,1.843-1.293.087-1.775-.392-1.79-1.739-.058-5.293-2.463-9.44-6.527-12.717-.638-.514-1.284-1.019-2.042-1.622" transform="translate(-481.804 96.787)" fill="#030102"/>
      <path id="Path_654" data-name="Path 654" d="M657.213,196.895c.139,2.093-.884,2.3-1.909,2.446a1.229,1.229,0,0,1-1.5-1.585c.206-.786.961-1.856,1.623-1.975.615-.113,1.429.866,1.79,1.114" transform="translate(-503.817 103.713)" fill="#030102"/>
      <path id="Path_655" data-name="Path 655" d="M570.806,131.909c-.916,0-1.418-.425-1.429-1.215a1.347,1.347,0,0,1,1.4-1.317,1.391,1.391,0,0,1,1.482,1.316c.015.857-.413,1.215-1.452,1.216" transform="translate(-548.513 68.539)" fill="#030102"/>
      <path id="Path_656" data-name="Path 656" d="M570.806,133.909c-.916,0-1.418-.425-1.429-1.215a1.347,1.347,0,0,1,1.4-1.317,1.391,1.391,0,0,1,1.482,1.316c.015.857-.413,1.215-1.452,1.216" transform="translate(-548.513 69.598)" fill="#030102"/>
      <path id="Path_657" data-name="Path 657" d="M570.746,140.711c-.916,0-1.419-.425-1.429-1.215a1.347,1.347,0,0,1,1.4-1.317,1.391,1.391,0,0,1,1.482,1.316c.015.857-.413,1.215-1.452,1.216" transform="translate(-548.546 73.202)" fill="#030102"/>
      <path id="Path_658" data-name="Path 658" d="M573.857,150.017c-.916,0-1.418-.425-1.429-1.215a1.347,1.347,0,0,1,1.4-1.317,1.391,1.391,0,0,1,1.482,1.316c.015.857-.413,1.215-1.452,1.216" transform="translate(-546.897 78.132)" fill="#030102"/>
      <path id="Path_659" data-name="Path 659" d="M577.857,160.017c-.917,0-1.418-.425-1.429-1.215a1.347,1.347,0,0,1,1.4-1.317,1.391,1.391,0,0,1,1.482,1.316c.015.857-.413,1.215-1.451,1.216" transform="translate(-544.778 83.43)" fill="#030102"/>
      <path id="Path_660" data-name="Path 660" d="M579.857,162.017c-.916,0-1.418-.425-1.429-1.215a1.347,1.347,0,0,1,1.4-1.317,1.391,1.391,0,0,1,1.482,1.316c.015.857-.413,1.215-1.452,1.216" transform="translate(-543.718 84.489)" fill="#030102"/>
      <path id="Path_661" data-name="Path 661" d="M585.857,170.017c-.916,0-1.418-.425-1.429-1.215a1.347,1.347,0,0,1,1.4-1.317,1.391,1.391,0,0,1,1.482,1.316c.015.857-.413,1.215-1.452,1.216" transform="translate(-540.539 88.727)" fill="#030102"/>
      <path id="Path_662" data-name="Path 662" d="M594.857,180.017c-.916,0-1.418-.425-1.429-1.215a1.347,1.347,0,0,1,1.4-1.317,1.392,1.392,0,0,1,1.482,1.316c.015.857-.413,1.215-1.452,1.216" transform="translate(-535.772 94.025)" fill="#030102"/>
      <path id="Path_663" data-name="Path 663" d="M634.236,198.337c-.916-.044-1.4-.5-1.365-1.285a1.344,1.344,0,0,1,1.461-1.245,1.394,1.394,0,0,1,1.415,1.389c-.028.855-.474,1.192-1.511,1.141" transform="translate(-514.877 103.73)" fill="#030102"/>
      <path id="Path_664" data-name="Path 664" d="M631.239,198.185c-.916-.044-1.4-.5-1.364-1.285a1.345,1.345,0,0,1,1.461-1.245,1.394,1.394,0,0,1,1.415,1.389c-.028.855-.474,1.192-1.512,1.141" transform="translate(-516.464 103.649)" fill="#030102"/>
      <path id="Path_665" data-name="Path 665" d="M690.746,186.039c-.774.491-1.427.4-1.857-.263a1.347,1.347,0,0,1,.477-1.86,1.392,1.392,0,0,1,1.957.32c.471.714.3,1.247-.577,1.8" transform="translate(-485.306 97.294)" fill="#030102"/>
      <path id="Path_666" data-name="Path 666" d="M688.372,187.326c-.774.491-1.427.4-1.857-.263a1.347,1.347,0,0,1,.477-1.86,1.393,1.393,0,0,1,1.957.32c.471.714.3,1.247-.577,1.8" transform="translate(-486.563 97.976)" fill="#030102"/>
      <path id="Path_667" data-name="Path 667" d="M713.434,164.967c-.675.621-1.333.647-1.874.072a1.347,1.347,0,0,1,.138-1.915,1.394,1.394,0,0,1,1.983-.035c.591.621.517,1.175-.246,1.879" transform="translate(-473.369 86.188)" fill="#030102"/>
      <path id="Path_668" data-name="Path 668" d="M712.328,166.657c-.675.621-1.333.647-1.874.072a1.347,1.347,0,0,1,.138-1.915,1.394,1.394,0,0,1,1.983-.035c.59.621.517,1.175-.246,1.879" transform="translate(-473.954 87.083)" fill="#030102"/>
      <path id="Path_669" data-name="Path 669" d="M716.328,182.657c-.675.621-1.333.647-1.874.072a1.347,1.347,0,0,1,.138-1.915,1.394,1.394,0,0,1,1.983-.035c.591.621.517,1.175-.246,1.879" transform="translate(-471.837 95.559)" fill="#030102"/>
      <path id="Path_670" data-name="Path 670" d="M718.425,155.771c-.577.713-1.224.834-1.843.344a1.346,1.346,0,0,1-.142-1.915,1.393,1.393,0,0,1,1.957-.323c.673.528.682,1.086.029,1.894" transform="translate(-470.781 81.374)" fill="#030102"/>
      <path id="Path_671" data-name="Path 671" d="M717.577,157.6c-.577.713-1.224.834-1.843.344a1.346,1.346,0,0,1-.142-1.915,1.393,1.393,0,0,1,1.957-.323c.673.528.682,1.086.029,1.894" transform="translate(-471.231 82.345)" fill="#030102"/>
      <path id="Path_672" data-name="Path 672" d="M722.425,146.771c-.577.713-1.224.834-1.843.344a1.346,1.346,0,0,1-.142-1.915,1.393,1.393,0,0,1,1.957-.323c.673.528.682,1.086.029,1.894" transform="translate(-468.663 76.606)" fill="#030102"/>
      <path id="Path_673" data-name="Path 673" d="M725.425,131.771c-.577.713-1.224.834-1.843.344a1.346,1.346,0,0,1-.142-1.915,1.393,1.393,0,0,1,1.956-.323c.673.528.682,1.086.029,1.894" transform="translate(-467.073 68.66)" fill="#030102"/>
      <g id="Group_151077" data-name="Group 151077" transform="translate(148.497 129.043)">
        <path id="Path_641" data-name="Path 641" d="M668.515,84.454v27.359s-11.32.174-16.405,0" transform="translate(-652.11 -84.454)" fill="#009e3a"/>
        <path id="Path_674" data-name="Path 674" d="M652.11,84.454v27.359s11.32.174,16.405,0" transform="translate(-635.333 -84.454)" fill="#009e3a"/>
      </g>
      <g id="Group_151078" data-name="Group 151078" transform="translate(97.335 129.043)">
        <path id="Path_675" data-name="Path 675" d="M668.515,84.454v27.359s-11.32.174-16.405,0" transform="translate(-652.11 -84.454)" fill="#009e3a"/>
        <path id="Path_676" data-name="Path 676" d="M652.11,84.454v27.359s11.32.174,16.405,0" transform="translate(-635.333 -84.454)" fill="#009e3a"/>
      </g>
      <path id="Path_677" data-name="Path 677" d="M624.806,167.288c3.944-1.025,4.464-1.663,4.471-4.929.006-2,0-4,0-6.058-2.994.483-4.442,2.068-4.468,4.574-.022,2.058,0,4.117,0,6.413" transform="translate(-453.256 82.317)" fill="#b61133"/>
    </g>
  </g>
</svg>
