<svg xmlns="http://www.w3.org/2000/svg" xmlns:xlink="http://www.w3.org/1999/xlink" width="506.482" height="415.591" viewBox="0 0 506.482 415.591">
  <defs>
    <clipPath id="clip-path">
      <rect id="Rectangle_161316" data-name="Rectangle 161316" width="273.648" height="308.87" fill="#fff"/>
    </clipPath>
  </defs>
  <g id="logoM" transform="translate(-42.79 198.997)">
    <g id="Group_151092" data-name="Group 151092" transform="translate(42.79 144.191)">
      <g id="Group_151090" data-name="Group 151090" transform="translate(0 54.967)">
        <g id="Group_151085" data-name="Group 151085" transform="translate(0 0.049)">
          <path id="Path_576" data-name="Path 576" d="M13.368,147.21c-1.036-.378-2.054-.773-3.087-1.125a5.835,5.835,0,0,0-6.469,1.71,6.624,6.624,0,0,0-1.6,7,5.664,5.664,0,0,0,5.275,4.23,21.321,21.321,0,0,0,3.656-.123c.341-.038.631-.553.931-.861.043-.044.014-.153.022-.23.315-3.3.315-3.28-3.08-3.33-.729-.01-1.853.387-1.748-1.012.025-.325.478-.872.755-.885,1.772-.086,3.552-.09,5.325-.017a1.182,1.182,0,0,1,.777.844,43.466,43.466,0,0,1,.007,5.19,2.056,2.056,0,0,1-1.037,1.483,11.931,11.931,0,0,1-8.215.45,6.541,6.541,0,0,1-4.774-5.874,17.883,17.883,0,0,1,.162-5.156,6.41,6.41,0,0,1,6.24-5.159,33.253,33.253,0,0,1,5.307.2c1.67.218,1.965.873,1.547,2.667" transform="translate(0 -144.023)" fill="#fff"/>
          <path id="Path_578" data-name="Path 578" d="M63.419,160.926a1.69,1.69,0,0,1-2.308-1.034c-.523-1.1-.9-2.268-1.48-3.332a1.923,1.923,0,0,0-1.261-.928c-1.448-.122-2.914-.028-4.371-.064a1.478,1.478,0,0,0-1.666,1.279,23.786,23.786,0,0,1-1.15,3.083,1.623,1.623,0,0,1-.726.861,5.371,5.371,0,0,1-1.472.164,3.91,3.91,0,0,1,.031-1.306c1.769-4.533,3.577-9.051,5.381-13.572a3.065,3.065,0,0,1,.442-.829c.361-.437.778-.829,1.171-1.241.437.423,1.068.765,1.282,1.28,2,4.779,3.926,9.585,5.859,14.39a7.887,7.887,0,0,1,.267,1.248m-4.991-7c-.779-2.1-1.5-4.038-2.263-6.093l-2.584,6.093Z" transform="translate(-2.523 -144.007)" fill="#fff"/>
          <path id="Path_580" data-name="Path 580" d="M32.395,160.693c-2.017.32-2.367.122-2.943-1.518-.182-.519-.337-1.047-.529-1.562-.773-2.069-.777-2.068-2.94-2.11-4.187-.082-4.177-.078-5.8,3.827-.285.686-.323,1.6-1.376,1.711-.732.076-1.185-.12-1.058-.947a5.8,5.8,0,0,1,.3-1.253c1.8-4.527,3.59-9.056,5.453-13.556a1.9,1.9,0,0,1,1.262-.992,1.62,1.62,0,0,1,1.3.737c.709,1.353,1.288,2.775,1.867,4.191q2,4.91,3.955,9.841c.2.5.323,1.025.51,1.631m-7.557-12.85c-.856,2.224-1.569,4.08-2.36,6.136h4.983c-.864-2.022-1.68-3.929-2.623-6.136" transform="translate(-0.914 -144.021)" fill="#fff"/>
          <path id="Path_583" data-name="Path 583" d="M37.143,158.967h8.128c1.686,0,1.747.085,1.223,1.858-3.909,0-7.849,0-11.788,0-1,0-.859-.752-.637-1.242a13.711,13.711,0,0,1,1.5-2.519c2.637-3.533,5.313-7.035,7.97-10.553a5.015,5.015,0,0,0,.313-.77c-2.7,0-5.2,0-7.7,0a2.342,2.342,0,0,1-.929-.1.858.858,0,0,1-.448-.613c-.008-.171.279-.446.488-.513a3.909,3.909,0,0,1,1.167-.155c3-.014,6-.028,9-.008,1.473.01,1.734.42,1.033,1.706a21.746,21.746,0,0,1-1.7,2.547c-2.164,2.905-4.356,5.789-6.526,8.689-.344.46-.632.962-1.095,1.675" transform="translate(-1.748 -144.024)" fill="#fff"/>
        </g>
        <g id="Group_151088" data-name="Group 151088" transform="translate(227.939 0.035)">
          <path id="Path_565" data-name="Path 565" d="M285.787,157.461c.684-1.674,1.289-3.193,1.922-4.7,1.065-2.534,2.183-5.048,3.208-7.6.48-1.2,1.444-1.007,2.269-.811.325.078.674.876.679,1.35.048,4.989.03,9.979.03,15.044-.32.031-.624.049-.925.092-1.11.159-1.384-.305-1.357-1.4.082-3.38.03-6.764.03-10.025-1.942,3.8-3.331,8.02-5.42,11.924a3.271,3.271,0,0,1-2.265-2.079c-1.429-3.527-2.848-7.058-4.409-10.932v12.365c-1.868.32-2.026.2-2.03-1.4-.009-4.565-.023-9.13.007-13.695,0-.433.249-1.208.461-1.238.811-.11,1.8-.394,2.316.619.412.8.767,1.635,1.117,2.467,1.281,3.041,2.548,6.087,3.828,9.127a8.4,8.4,0,0,0,.539.887" transform="translate(-242.24 -144.003)" fill="#fff"/>
          <path id="Path_567" data-name="Path 567" d="M301.239,160.706c-1.913.278-1.975.229-1.975-1.4q0-6.85,0-13.7v-1.1c.18-.088.247-.149.316-.151,2.859-.1,2.31-.466,3.328,2.157q2,5.164,4.049,10.311a3.387,3.387,0,0,0,.529.653,7.392,7.392,0,0,0,.491-.839c1.495-3.635,2.962-7.279,4.476-10.906.672-1.61.821-1.683,2.47-1.349a1.11,1.11,0,0,1,.7.789c.052,4.921.039,9.841.07,14.762,0,.757-.329.911-1.005.916-.781.006-1.183-.231-1.167-1.071.051-2.715.076-5.43.105-8.144a11.9,11.9,0,0,0-.177-2.546q-1.633,3.881-3.266,7.763a33.8,33.8,0,0,1-1.352,3.134c-.246.449-.858,1-1.27.978a2.047,2.047,0,0,1-1.4-1c-.666-1.286-1.154-2.665-1.7-4.011-.846-2.074-1.681-4.153-2.532-6.226a1.2,1.2,0,0,0-.683-.64Z" transform="translate(-243.361 -144.004)" fill="#fff"/>
          <path id="Path_572" data-name="Path 572" d="M264.873,144.251c5.246.085,8.524,3.45,8.419,8.639-.1,5.069-3.663,8.292-9.161,8.133-3.88-.112-8.04-3.031-7.832-8.834.176-4.931,3.442-8.021,8.574-7.938m6.085,8.078c0-.184.016-.578,0-.97-.15-3.228-4.322-6.727-8.035-5.226a6.825,6.825,0,0,0-4.108,8.369,5.715,5.715,0,0,0,4.156,4.41,6.212,6.212,0,0,0,7.99-6.583" transform="translate(-241.147 -144.005)" fill="#fff"/>
          <path id="Path_574" data-name="Path 574" d="M343.676,153.846c1.154,1.751,2.223,3.346,3.26,4.961.378.59.681,1.229,1.021,1.851-1.389.582-2.268.36-3.055-.859-1.023-1.586-1.98-3.214-2.961-4.828-.6-.981-3-1.7-3.956-1.1-.236.149-.327.666-.332,1.015-.021,1.651-.024,3.305.039,4.956.03.788-.257,1.029-1.02,1.014-.7-.013-1.218-.013-1.21-.96.044-4.918.05-9.835.048-14.752,0-.634.269-.8.859-.8,2.013.015,4.027-.05,6.039-.007a4.667,4.667,0,0,1,4.705,3.727,4.906,4.906,0,0,1-2.546,5.251c-.3.17-.592.351-.892.53m-6.023-5.061c0,.785-.046,1.574.027,2.352.024.253.364.684.555.682a37.817,37.817,0,0,0,4.7-.237,2.549,2.549,0,0,0,1.978-2.364,2.676,2.676,0,0,0-1.7-2.7,10.874,10.874,0,0,0-2.627-.607c-2.928-.243-2.931-.21-2.93,2.641,0,.078,0,.157,0,.235" transform="translate(-245.227 -144.009)" fill="#fff"/>
          <path id="Path_584" data-name="Path 584" d="M370.128,153.112v5.854c2.294,0,4.492,0,6.69,0,1.4,0,1.55.172,1.519,1.759a8.336,8.336,0,0,1-.892.095c-2.844.009-5.687,0-8.53.018-.622,0-1.09-.045-1.09-.836,0-5-.02-9.995.013-14.992a.965.965,0,0,1,.673-.666c2.881-.031,5.764-.021,8.644.047.3.008.581.451.872.693-.3.23-.6.651-.912.661-2.051.074-4.1.08-6.156.063-.688,0-1.009.175-.985.931.047,1.489.015,2.981.015,4.659h5.344a2.68,2.68,0,0,1,1.054.031,5.385,5.385,0,0,1,1.053.854c-.353.276-.7.775-1.06.789-2.04.077-4.087.037-6.251.037" transform="translate(-246.894 -144.009)" fill="#fff"/>
          <path id="Path_586" data-name="Path 586" d="M323.149,145.785V151.4h4.7c.592,0,1.185.018,1.776,0s1.01.155,1,.841a.83.83,0,0,1-.958.919c-2.124-.009-4.248,0-6.447,0v5.812c2.382,0,4.738.049,7.091-.024,1.019-.031,1.272.429,1.11,1.255a.929.929,0,0,1-.654.6c-3.187.039-6.375.027-9.675.027V144.334c.521,0,1.057,0,1.592,0,2.526.009,5.052,0,7.577.06.368.009.727.4,1.09.611-.373.256-.734.712-1.119.732-1.652.085-3.312.044-4.969.047h-2.109" transform="translate(-244.486 -144.009)" fill="#fff"/>
          <path id="Path_588" data-name="Path 588" d="M363.787,147.35c-1.109-.451-2.032-.9-3-1.207a6.336,6.336,0,0,0-7.936,3.728c-1.317,3.1-.144,7.058,2.692,8.55,2.252,1.185,4.6.826,6.866-.1.729-.3,1.434-.545,1.612.509a1.37,1.37,0,0,1-.5,1.182c-2.75.989-5.554,1.546-8.418.419a8.23,8.23,0,0,1-5.12-7.807c-.051-3.693,1.65-6.726,4.932-7.835a11.112,11.112,0,0,1,8.736.373c1.15.578.218,1.392.138,2.192" transform="translate(-245.975 -143.996)" fill="#fff"/>
          <path id="Path_589" data-name="Path 589" d="M249.215,143.994c1.48.322,2.976.587,4.432,1a.967.967,0,0,1,.721,1.458c-.4.807-1,.554-1.6.28-2.6-1.182-5.149-1.412-7.6.391-3.791,2.8-3.347,9.312.836,11.369,2.145,1.055,4.384.7,6.563-.059.609-.212,1.272-.536,1.618.268a1.206,1.206,0,0,1-.238,1.129c-2.334,1.434-7.316,1.915-10.367-.3-2.626-1.91-3.874-5.933-2.955-9.355.927-3.45,3.2-6.27,8.59-6.176" transform="translate(-240.324 -143.992)" fill="#fff"/>
        </g>
        <g id="Group_151086" data-name="Group 151086" transform="translate(69.461 0.154)">
          <path id="Path_566" data-name="Path 566" d="M133.8,157.534c.7-1.693,1.288-3.132,1.887-4.567,1.058-2.539,2.107-5.082,3.194-7.609a1.672,1.672,0,0,1,2.377-1.026,1.373,1.373,0,0,1,.625,1.057c.07,2.163.059,4.33.064,6.5.006,2.91,0,5.819,0,8.884-.388.021-.8.026-1.213.069-.84.088-1.07-.282-1.06-1.1.042-3.492.018-6.985.018-10.332-2.109,3.76-3.228,8.131-5.513,11.943l-.5.051a10.119,10.119,0,0,1-1.591-2.047c-1.515-3.533-2.92-7.114-4.524-10.708v12.06c-1.806.359-1.986.216-1.991-1.411-.01-4.488-.029-8.976,0-13.464,0-.508.212-1.4.465-1.453.885-.183,1.94-.377,2.431.807.617,1.488,1.226,2.98,1.849,4.466q1.389,3.318,2.8,6.628c.147.344.36.66.69,1.255" transform="translate(-75.932 -144.12)" fill="#fff"/>
          <path id="Path_570" data-name="Path 570" d="M147.343,144.416c2.462,0,4.833-.121,7.185.045a3.712,3.712,0,0,1,3.466,2.29c.562,1.589.672,3.266-.7,4.623-.453.447-.42.692.116,1.093,1.776,1.327,1.96,3.3,1.679,5.231a3.449,3.449,0,0,1-3.308,2.781c-2.763.325-5.562.346-8.433.5Zm1.851,14.531c1.874,0,3.639.052,5.4-.018a2.985,2.985,0,0,0,2.609-2.37,2.586,2.586,0,0,0-1.751-2.878c-2.027-.852-4.127-.607-6.258-.41Zm.013-7.34c1.8-.25,3.478-.412,5.118-.737a1.978,1.978,0,0,0,1.769-1.922,2.336,2.336,0,0,0-1.524-2.518c-1.718-.765-3.514-.628-5.363-.585Z" transform="translate(-77.055 -144.13)" fill="#fff"/>
          <path id="Path_573" data-name="Path 573" d="M185.85,153.808l4.336,6.951a2.438,2.438,0,0,1-3.3-1.135c-1-1.6-1.973-3.215-2.958-4.824-.506-.825-3.2-1.511-3.921-.908-.25.21-.271.775-.277,1.179-.027,1.873-.011,3.747-.011,5.71a3.948,3.948,0,0,1-1.343.028c-.334-.12-.8-.53-.8-.815-.028-4.953.014-9.907.02-14.861,0-.644.3-.789.873-.785,2.012.014,4.025-.052,6.035,0a4.729,4.729,0,0,1,4.784,4.08c.355,1.551-.922,3.914-2.634,4.887-.3.169-.582.358-.8.494m-6.129-4.913a22.285,22.285,0,0,0,.027,2.238c.026.257.36.69.549.689a38.622,38.622,0,0,0,4.713-.229,2.666,2.666,0,0,0,.226-5.1,13.792,13.792,0,0,0-3.464-.605c-2.366-.056-2.113-.234-2.053,2.06.008.314,0,.629,0,.944" transform="translate(-78.612 -144.128)" fill="#fff"/>
          <path id="Path_579" data-name="Path 579" d="M122.2,160.857c-1.446.324-2.142.042-2.685-1.157-.47-1.036-.78-2.145-1.279-3.164a1.721,1.721,0,0,0-1.1-.913c-1.529-.112-3.071-.038-4.609-.067a1.386,1.386,0,0,0-1.459,1.1c-.368,1.034-.785,2.053-1.237,3.054a2.246,2.246,0,0,1-.771,1.007,4.045,4.045,0,0,1-1.313.264c-.064-.4-.285-.85-.165-1.18.869-2.4,1.788-4.779,2.728-7.15.881-2.227,1.8-4.437,2.715-6.652a5.7,5.7,0,0,1,.515-1.056c.77-1.127,1.71-1.11,2.258.123,1.226,2.761,2.38,5.555,3.532,8.348.839,2.033,1.634,4.082,2.438,6.129.168.427.286.874.429,1.315m-4.952-6.9-2.606-6.067c-.784,1.966-1.488,3.681-2.127,5.42-.047.131.351.609.556.618,1.288.058,2.58.029,4.178.029" transform="translate(-75.004 -144.117)" fill="#fff"/>
          <path id="Path_582" data-name="Path 582" d="M93.041,151.355h9.069c0-1.359,0-2.68,0-4a19.286,19.286,0,0,1,.05-2.122,3.282,3.282,0,0,1,.461-.966,6.41,6.41,0,0,1,1.077.771c.156.165.14.523.142.794.03,4.641.064,9.283.051,13.924,0,.389-.226,1.013-.506,1.122-.763.3-1.3-.018-1.294-.946.016-1.888-.012-3.778.044-5.665.026-.839-.165-1.185-1.111-1.159-2.593.069-5.19.024-7.915.024,0,2.386.017,4.536-.008,6.686-.012,1.081-.394,1.388-1.4,1.013a1.442,1.442,0,0,1-.77-1.063c-.042-4.838-.007-9.677-.016-14.515,0-.749.336-.948,1.019-.915.637.031,1.146.03,1.12.933-.057,2-.018,3.994-.018,6.084" transform="translate(-74.147 -144.125)" fill="#fff"/>
          <path id="Path_587" data-name="Path 587" d="M163.312,160.723c0-.572,0-1.111,0-1.65.006-4.6.027-9.2,0-13.808,0-.649.128-.946.825-.938,2.8.03,5.609.007,8.412.076.328.008.646.463.968.711-.347.223-.687.627-1.041.639-2.012.07-4.028.107-6.039.028-.879-.034-1.1.22-1.068,1.044.057,1.449.016,2.9.016,4.5h7.258v1.865H165.51v5.735h8.041l.4,1.8Z" transform="translate(-77.877 -144.128)" fill="#fff"/>
          <path id="Path_590" data-name="Path 590" d="M73.236,152.561c.035-3.265.96-6.091,4.181-7.556a8.793,8.793,0,0,1,3.3-.7c1.867-.057,3.775-.326,5.569.618.683.359,1.163.551.748,1.45-.4.861-.833.782-1.571.418-2.661-1.312-5.282-1.482-7.751.5a6.907,6.907,0,0,0,.582,10.968c2.081,1.306,4.306.961,6.514.322.34-.1.679-.377.991-.34a1.63,1.63,0,0,1,1.1.536c.146.225-.1.729-.231,1.092-.041.116-.243.2-.387.251a11.212,11.212,0,0,1-7.518.524c-3.841-1.249-5.541-3.843-5.531-8.089" transform="translate(-73.236 -144.123)" fill="#fff"/>
        </g>
        <g id="Group_151087" data-name="Group 151087" transform="translate(189.416 0.258)">
          <path id="Path_571" data-name="Path 571" d="M208.812,144.291a6.118,6.118,0,0,1,5.5,2.053c1.629,1.776,2.878,3.935,2.653,6.257-.523,5.4-3.436,8.609-9.332,8.443a8.43,8.43,0,0,1-7.92-8.41c.065-5.236,3.378-8.415,9.1-8.344m5.9,8.2c.041-3.359-3.013-6.676-6.2-6.737-3.379-.064-6.474,3.157-6.543,6.81a6.376,6.376,0,1,0,12.744-.073" transform="translate(-199.708 -144.227)" fill="#fff"/>
          <path id="Path_591" data-name="Path 591" d="M223.033,153.1v5.108c0,.511-.023,1.024,0,1.534.031.639.032,1.2-.865,1.178-.78-.017-1.393-.1-1.389-1.125.02-5,0-9.993.006-14.989a2.665,2.665,0,0,1,.158-.522c3.363.252,6.791-.232,10.179.293q.058.293.118.586a4.666,4.666,0,0,1-1.414.572c-1.969.086-3.944.1-5.917.08-.793-.009-1.021.271-.991,1.039.056,1.479.016,2.961.016,4.542,1.976,0,3.667-.026,5.356.011.8.018,2.008-.12,2.037.889.032,1.07-1.191.755-1.9.782-1.73.066-3.464.022-5.392.022" transform="translate(-200.794 -144.23)" fill="#fff"/>
        </g>
        <g id="Group_151089" data-name="Group 151089" transform="translate(368.191)">
          <path id="Path_568" data-name="Path 568" d="M392.4,151.069c-.341-.428-.609-.746-.859-1.078a3.369,3.369,0,0,1,2.623-5.685c.789.022,1.579-.016,2.368.007a2.615,2.615,0,0,1,2.733,2c.45,1.353.623,2.774-.581,3.826a22.894,22.894,0,0,1-2.875,1.855c1.234,1.137,2.456,2.261,3.872,3.565.167-.837.266-1.4.395-1.959a6.359,6.359,0,0,1,.36-1.23c.324-.7.931-1.3,1.652-.859a1.944,1.944,0,0,1,.522,1.686,11.721,11.721,0,0,1-1.124,2.957,1.232,1.232,0,0,0,.309,1.735c.9.835,1.723,1.761,2.715,2.791-1.8.379-3.107.254-4.027-1.15-.477-.728-.916-.723-1.581-.065-1.8,1.78-6.5,2.1-8.584.676a4.834,4.834,0,0,1,.5-8.3c.471-.256.966-.47,1.578-.764m5.624,6.388c-1.266-1.4-2.479-2.79-3.756-4.117a1.674,1.674,0,0,0-1.151-.437,3.7,3.7,0,0,0-2.732,2.479,3.413,3.413,0,0,0,1.584,3.31,5.266,5.266,0,0,0,6.056-1.235m-2.577-11.675c-1.671,0-2.64.572-2.652,1.554-.015,1.193,1.168,2.876,2.028,2.885,1.011.01,2.748-1.51,2.741-2.4a2.043,2.043,0,0,0-2.117-2.04" transform="translate(-388.197 -143.973)" fill="#fff"/>
          <path id="Path_569" data-name="Path 569" d="M424.132,148.086v12.638c-1.911.316-2.13.145-2.124-1.637.015-4.446.03-8.892.084-13.337.006-.473.259-1.345.414-1.348.878-.022,1.928-.6,2.6.467.881,1.4,1.736,2.811,2.612,4.212,1.623,2.594,3.254,5.184,5.074,7.694,0-1.844.008-3.688,0-5.531-.01-1.928-.021-3.856-.067-5.783-.018-.765.221-1.175,1.058-1.206a1.007,1.007,0,0,1,1.19,1.115c.033,1.061.027,2.124.028,3.186.009,3.58.026,7.161,0,10.741,0,.5-.135,1.4-.32,1.434-.848.139-1.832.436-2.5-.478-.441-.6-.873-1.216-1.268-1.85q-2.963-4.756-5.905-9.525c-.183-.294-.391-.572-.587-.857l-.3.064" transform="translate(-389.939 -143.969)" fill="#fff"/>
          <path id="Path_575" data-name="Path 575" d="M440.558,152.5c0-2.363.026-4.725-.013-7.088-.013-.8.22-1.119,1.074-1.083,1.459.062,2.93-.082,4.383.028,3.174.238,5.776,1.619,7.059,4.591a8.4,8.4,0,0,1-.752,8.746c-1.73,2.354-4.327,2.881-7.007,3.111-1.255.108-2.528,0-3.791.041-.765.027-1.021-.232-1-1.022.052-2.44.019-4.882.019-7.323h.032m1.842,6.453c1.212,0,2.115.02,3.017,0a6.033,6.033,0,0,0,5.574-3.684,5.739,5.739,0,0,0-1.016-6.868c-1.832-2.042-4.31-2.488-6.9-2.491-.226,0-.645.539-.648.83-.044,4.012-.029,8.024-.029,12.216" transform="translate(-390.892 -143.974)" fill="#fff"/>
          <path id="Path_577" data-name="Path 577" d="M518.294,160.613c-1.4.785-2.251.381-2.86-.517a48.472,48.472,0,0,1-3.206-5.086A1.948,1.948,0,0,0,510.2,153.8c-2.836.036-2.467-.407-2.4,2.405.031,1.3.012,2.6-.041,3.9a3.343,3.343,0,0,1-.372.983,7.281,7.281,0,0,1-1.289-.664c-.156-.12-.133-.515-.133-.784q.013-7.382.044-14.765a4.691,4.691,0,0,1,.1-.579c2.985.408,6.088-.741,9.013.732,1.717.864,2.215,2.43,2.176,4.251a4.193,4.193,0,0,1-2.54,3.943c-1.1.513-.958.762-.3,1.626,1.37,1.8,2.524,3.768,3.831,5.767m-10.527-14.967c0,2.129-.023,3.887.031,5.641.007.2.441.54.683.544a39.131,39.131,0,0,0,4.018-.072,2.4,2.4,0,0,0,2.524-2.174c.2-1.742-.27-2.786-1.878-3.2a46.342,46.342,0,0,0-5.378-.742" transform="translate(-394.266 -143.97)" fill="#fff"/>
          <path id="Path_581" data-name="Path 581" d="M471.5,150.554c0,1.691.057,3.384-.014,5.072a5.012,5.012,0,0,1-4.225,5.1,10.084,10.084,0,0,1-5.716-.087,5.7,5.7,0,0,1-3.974-5.442c-.04-3.3.062-6.606.087-9.91,0-.633.11-1.041.912-1,.748.042,1.141.2,1.144,1.074.011,3.145.045,6.291.176,9.433.123,2.965,1.527,4.252,4.477,4.312,3.474.07,5.163-1.714,5.232-5.622.047-2.713.008-5.427.02-8.141,0-.526-.14-1.211.739-1.165.713.038,1.167.362,1.153,1.185-.027,1.73-.008,3.46-.008,5.191h0" transform="translate(-391.771 -143.966)" fill="#fff"/>
          <path id="Path_585" data-name="Path 585" d="M481.6,143.955c1.469.368,2.958.672,4.4,1.131.7.223,1.225.713.671,1.63-.524.867-.989.544-1.622.15a6.36,6.36,0,0,0-4.972-.969c-.991.233-1.8.856-1.784,1.78a3.054,3.054,0,0,0,1.078,2.254,26.532,26.532,0,0,0,4.321,1.871,6.1,6.1,0,0,1,3.2,2.839,4.442,4.442,0,0,1-3.177,6.108,12.176,12.176,0,0,1-7.091-.634c-.179-.074-.44-.15-.5-.29a13.936,13.936,0,0,1-.416-1.422,3.783,3.783,0,0,1,1.407-.315,34.952,34.952,0,0,0,4.1.944,5.04,5.04,0,0,0,2.86-.824,2.15,2.15,0,0,0-.024-3.672,19.915,19.915,0,0,0-3.2-1.477c-.578-.248-1.2-.39-1.772-.651-3.16-1.447-2.981-2.735-2.774-5.761.072-1.054,1.726-2.258,2.979-2.358.745-.059,1.5-.01,2.25-.01Z" transform="translate(-392.706 -143.955)" fill="#fff"/>
          <path id="Path_592" data-name="Path 592" d="M533.249,144.644c-1.579,2.546-3.072,5.037-4.654,7.47a7.066,7.066,0,0,0-1.244,4.443c.085,1.363.017,2.734.017,4.072-2,.5-2.378.34-2.143-1.47.466-3.6-.765-6.6-2.807-9.432-.918-1.273-1.684-2.656-2.5-4-.2-.322-.34-.68-.508-1.023,1.485-.685,2.031-.6,2.773.573,1.324,2.087,2.587,4.211,3.983,6.494a7.742,7.742,0,0,0,.676-.824c1.113-1.851,2.166-3.739,3.324-5.562.844-1.328,1.465-1.437,3.089-.744" transform="translate(-394.958 -143.969)" fill="#fff"/>
          <path id="Path_593" data-name="Path 593" d="M494.7,145.832c-1.423,0-2.715.008-4.006,0a3,3,0,0,1-1.16-.122,1.14,1.14,0,0,1-.551-.763c-.026-.155.373-.381.584-.572a.186.186,0,0,1,.115-.02c4.026.011,8.052.01,12.078.066.251,0,.5.446.744.685-.264.221-.515.612-.794.633a31.137,31.137,0,0,1-3.9.1c-.995-.049-1.154.318-1.139,1.224.074,4.246.077,8.494.066,12.742a1.416,1.416,0,0,1-.458,1.082,1.231,1.231,0,0,1-1.178-.1,2.19,2.19,0,0,1-.425-1.367c-.018-4.131.01-8.262.023-12.394,0-.309,0-.619,0-1.194" transform="translate(-393.39 -143.975)" fill="#fff"/>
          <path id="Path_594" data-name="Path 594" d="M415.344,160.683V144.5c1.7-.493,2.034-.275,2.038,1.357.015,4.441.012,8.881.021,13.322,0,1.814-.133,1.923-2.059,1.506" transform="translate(-389.595 -143.971)" fill="#fff"/>
        </g>
      </g>
      <g id="Group_151091" data-name="Group 151091" transform="translate(0.121)">
        <g id="Group_151081" data-name="Group 151081" transform="translate(337.086 0.002)">
          <path id="Path_599" data-name="Path 599" d="M421.565,109.219H431.2V94.794c1.645,0,3.175-.042,4.7.046.231.013.609.628.611.966.033,5.55.016,11.1.011,16.652,0,.536,0,1.073,0,1.638h-4.032q-18.6-.007-37.21.006c-1.067,0-1.365-.225-1.356-1.37.058-8.188.036-16.376-.018-24.564-.007-1.09.285-1.5,1.392-1.371a12.982,12.982,0,0,0,2.248.018c.887-.049,1.223.212,1.216,1.2-.046,6.653,0,13.306-.035,19.959,0,.949.2,1.293,1.224,1.281q7.583-.084,15.168-.018c1.079.011,1.388-.411,1.381-1.361-.009-1.416.069-2.835.02-4.249a4.415,4.415,0,0,0-3.945-4.148,9.269,9.269,0,0,0-6.284,1.463c-.7-1.463-1.389-2.882-2.073-4.3,1.784-1.946,8-3.594,12.007-1.622,4.526,2.224,6.278,6.595,5.346,14.205" transform="translate(-357.506 -86.043)" fill="#fff"/>
          <path id="Path_605" data-name="Path 605" d="M367.655,95.191c-.131-1.544.618-1.749,1.756-1.652,1.169.1,2.355.022,3.617.022v20.651c-.1.089-.155.188-.212.188-3.116-.024-6.249.13-9.345-.133a8.907,8.907,0,0,1-7.939-8.943c.111-5.678,4.2-9.865,10.2-10.129.584-.027,1.171,0,1.92,0m-1.535,14.641c1.672-.284,1.657-.284,1.648-1.837-.013-2.237-.02-4.473.008-6.709.008-.629-.142-1.049-.842-.906a16.69,16.69,0,0,0-3.955.957,4.132,4.132,0,0,0-.389,7.061,20.14,20.14,0,0,0,3.529,1.433" transform="translate(-355.529 -86.391)" fill="#fff"/>
          <path id="Path_606" data-name="Path 606" d="M386.537,105.812c0,3.541.22,7.1-.051,10.617-.408,5.292-4.785,6.269-8.707,5.457a1.345,1.345,0,0,1-.774-.957c-.143-1.088-.106-2.2-.183-3.3-.055-.778.315-.987,1-.856,2.776.527,3.753-.031,3.86-3.587.167-5.548.111-11.1.075-16.655-.007-1.079.327-1.38,1.352-1.278a15.915,15.915,0,0,0,2.6,0c.692-.045.862.189.854.873-.041,3.228-.018,6.456-.018,9.685h-.012" transform="translate(-356.626 -86.479)" fill="#fff"/>
          <path id="Path_610" data-name="Path 610" d="M412.517,122.818c-2.134.011-3.095-.772-3.083-2.516a2.861,2.861,0,0,1,2.981-2.843,3.1,3.1,0,0,1,3.176,2.827c-.008,1.772-.917,2.521-3.074,2.531" transform="translate(-358.307 -87.624)" fill="#fff"/>
          <path id="Path_615" data-name="Path 615" d="M431.672,92.446c-1.881,0-2.917-.863-2.937-2.451a2.7,2.7,0,0,1,2.936-2.811,2.765,2.765,0,0,1,2.946,2.8c-.024,1.564-1.1,2.46-2.944,2.461" transform="translate(-359.301 -86.064)" fill="#fff"/>
          <path id="Path_616" data-name="Path 616" d="M439.558,92.423c-2,.036-3.086-.867-3.093-2.561-.006-1.533,1.205-2.585,3.022-2.623a2.651,2.651,0,0,1,2.84,2.745c.015,1.6-.9,2.405-2.769,2.439" transform="translate(-359.7 -86.067)" fill="#fff"/>
          <path id="Path_618" data-name="Path 618" d="M373.33,88.791a2.5,2.5,0,0,1-2.616,2.351c-1.868-.335-3.2-.817-3.161-2.5.045-1.816.9-2.622,2.866-2.627,2.114-.006,2.917.76,2.911,2.779" transform="translate(-356.148 -86.004)" fill="#fff"/>
          <path id="Path_622" data-name="Path 622" d="M365.584,88.682a2.759,2.759,0,0,1-3.108,2.485,2.927,2.927,0,0,1-2.531-2.631c.087-1.873.967-2.6,3.076-2.528,1.972.065,2.621.743,2.563,2.674" transform="translate(-355.756 -86.003)" fill="#fff"/>
        </g>
        <g id="Group_151082" data-name="Group 151082" transform="translate(209.177 0.007)">
          <path id="Path_597" data-name="Path 597" d="M268.34,114.017v-27.1h4.948c0,1.93,0,3.776,0,5.622,0,5.2.017,10.394-.028,15.59-.008.886.226,1.166,1.121,1.132,1.894-.069,3.795-.1,5.687-.011.9.04,1.081-.3,1.075-1.073-.032-4.095-.011-8.189-.071-12.284-.011-.828.193-1.146,1.042-1.092,1.023.065,2.053.064,3.08.043.639-.014.783.24.78.851-.023,4.212.014,8.424-.017,12.636,0,.665.138.933.828.912,1.381-.041,2.765-.039,4.147-.039.647,0,.869-.253.861-.933-.048-4.132-.02-8.266-.08-12.4-.012-.826.18-1.122,1.036-1.084,1.375.063,2.756.017,4.2.017-.008-.007.087.038.1.1.346,1.705.344,1.734,2.161,1.734,2.647,0,5.293-.065,7.94-.062a12.829,12.829,0,0,1,2.708.209c3.929.857,6.031,2.916,6.444,6.962a92.578,92.578,0,0,1,.112,9.781c0,.2-.415.536-.665.563a18.007,18.007,0,0,1-2.012.009q-22.341,0-44.681,0c-.191,0-.381-.042-.714-.08m35.87-4.806v.033c1.262,0,2.522,0,3.783,0,3.188-.006,3.188-.007,3.137-3.207-.047-2.972-1.326-4.293-4.336-4.341-2.876-.046-5.754.027-8.63-.017-.886-.013-1.042.339-1.015,1.122.062,1.8.092,3.614.019,5.417-.033.841.3,1.008,1.012,1,2.01-.019,4.02-.007,6.029-.007" transform="translate(-223.127 -86.056)" fill="#fff"/>
          <path id="Path_600" data-name="Path 600" d="M260.437,109.574c0,1.516.044,2.851-.039,4.179-.016.251-.522.653-.824.673-1.06.076-2.131.009-3.2.009-8.337.01-16.675.007-25.013.046a12.292,12.292,0,0,1-6.85-1.851c-4.772-3.006-5.08-11.021-1.032-14.318a13.072,13.072,0,0,1,8.1-3.131c.753-.022,1.3-.1,1.363-1.04.016-.23.5-.6.785-.612,1.453-.063,2.91-.028,4.569-.028v15.993h5.55c-2.363-5.549-1.706-10.35,3.536-13.831,3.031-2.013,8.884-1.5,12.4.911-.487,1.477-.976,2.961-1.473,4.472-1.35-.395-2.705-.912-4.108-1.18-4.223-.805-7.042,2.135-6.137,6.329a8.289,8.289,0,0,0,.364,1.12c.778,2.09.959,2.237,3.145,2.253,2.876.019,5.752,0,8.856,0m-27.524-9.331a24.206,24.206,0,0,0-3.352.428,4.581,4.581,0,0,0-3.372,5.622c.663,2.172,3.887,3.875,6.172,3.21a.985.985,0,0,0,.528-.748c.038-2.74.024-5.482.024-8.511" transform="translate(-220.671 -86.394)" fill="#fff"/>
          <path id="Path_603" data-name="Path 603" d="M326.123,121.344c-.123-1.794-.24-3.5-.367-5.355,2.744.824,5.332,1.661,7.929.295.45-.238.714-.829,1.064-1.257l-.156-.349c-.685-.036-1.369-.092-2.054-.105a10.417,10.417,0,0,1-7.739-3.233,9.284,9.284,0,0,1,.341-12.7,12.05,12.05,0,0,1,8.233-3.362c1.893-.061,3.79.024,5.684-.013.708-.013.862.273.865.911.026,5.981.15,11.963.067,17.943a13.6,13.6,0,0,1-1.1,4.412,4.967,4.967,0,0,1-3.391,2.9,14.6,14.6,0,0,1-8.17.216c-.378-.1-.76-.186-1.21-.3m8.689-20.978a26.836,26.836,0,0,0-3.236.342,4.693,4.693,0,0,0-3.621,4.041,3.99,3.99,0,0,0,3.038,4.475,11,11,0,0,0,3.137.358c.219.008.649-.463.654-.719.047-2.745.029-5.492.029-8.5" transform="translate(-225.916 -86.485)" fill="#fff"/>
          <path id="Path_609" data-name="Path 609" d="M281.192,89.656A2.549,2.549,0,0,1,284.166,87c1.76.075,3.26,1.443,2.968,2.969-.369,1.929-.86,2.545-3.428,2.432-1.945-.084-2.618-.852-2.513-2.745" transform="translate(-223.789 -86.06)" fill="#fff"/>
          <path id="Path_620" data-name="Path 620" d="M238.514,88.737a2.471,2.471,0,0,1-2.543,2.439,3.044,3.044,0,0,1-3.252-2.547c-.048-1.585,1.027-2.581,2.811-2.605,2.126-.028,2.943.714,2.984,2.713" transform="translate(-221.291 -86.01)" fill="#fff"/>
          <path id="Path_623" data-name="Path 623" d="M225.248,88.557c.013-1.912.736-2.559,2.848-2.548,1.925.009,2.722.775,2.706,2.6a2.516,2.516,0,0,1-2.717,2.556,2.709,2.709,0,0,1-2.837-2.607" transform="translate(-220.906 -86.009)" fill="#fff"/>
        </g>
        <g id="Group_151080" data-name="Group 151080" transform="translate(430.276 0.002)">
          <path id="Path_598" data-name="Path 598" d="M471.309,93.517v15.941h5.951a48.349,48.349,0,0,1-.666-4.912c-.178-5.027,2.883-7.329,5.9-8.457a17.287,17.287,0,0,1,4.5-.875c1.725-.154,3.474-.068,5.213-.075,1.6-.006,1.658,0,1.672,1.646.036,4.41.02,8.82.018,13.23,0,1.1-.107,2.212-.016,3.305.081.966-.233,1.2-1.174,1.189-5.769-.058-11.538-.064-17.308-.068-3.911,0-7.824.038-11.735.031a9.78,9.78,0,0,1-7.528-3.14,8.242,8.242,0,0,1-2.16-7.5c1.176-5.653,4.692-8.457,10.52-8.643.835-.028,1.856.228,1.738-1.214-.01-.132.443-.427.688-.434,1.412-.042,2.826-.02,4.393-.02M488.8,104.985h-.122c0-1.26-.013-2.52.007-3.78.008-.569-.145-.92-.8-.859a22.177,22.177,0,0,0-2.819.265,4.784,4.784,0,0,0-3.44,4.674c.374,2.869,1.819,4.29,4.384,4.3.593,0,1.19-.062,1.777-.008.825.076,1.03-.335,1.017-1.049-.021-1.181-.006-2.362-.006-3.543m-22.563-.072h-.052c0-1.215.053-2.435-.034-3.644-.024-.322-.454-.856-.733-.878a6.6,6.6,0,0,0-4.481,1.127,4.245,4.245,0,0,0-1.7,4.739c.986,2.715,3.839,3.54,6.4,3.249.227-.026.551-.532.566-.828.064-1.252.027-2.51.027-3.764" transform="translate(-453.782 -86.39)" fill="#fff"/>
          <path id="Path_601" data-name="Path 601" d="M498.485,116.756c.856.041,1.721.076,2.586.124a1.384,1.384,0,0,0,1.611-1.079,15.84,15.84,0,0,0,.408-3.129q.054-8.148-.01-16.3c-.008-1.058.351-1.411,1.391-1.265a9.007,9.007,0,0,0,2.247.056c1.221-.14,1.518.478,1.492,1.513-.028,1.1-.026,2.2-.027,3.306,0,2.874.027,5.749-.01,8.623-.009.748.161,1.06.976,1.032,1.611-.055,3.225-.016,5.01-.016-.271-.943-.47-1.8-.762-2.627a9.636,9.636,0,0,1,10.346-12.488,16.833,16.833,0,0,1,6.459,2.038l-1.526,4.549c-1.338-.4-2.659-.906-4.028-1.173-4.412-.862-7.335,2.393-6.084,6.711.087.3.192.6.307.891.761,1.925.958,2.08,3.028,2.094,2.646.018,5.293.019,7.94-.016.7-.009,1.02.166.987.915a18.275,18.275,0,0,0,.036,2.83c.113.995-.289,1.2-1.2,1.2-5.886-.046-11.772-.049-17.659-.063-.909,0-1.817.04-2.725.018-.708-.016-1.139.171-1.1.986a7.41,7.41,0,0,1-.152,1.168c-.627,5.361-5.383,5.945-8.843,5.13a1.12,1.12,0,0,1-.669-.807c-.07-1.363-.031-2.733-.031-4.22" transform="translate(-456.085 -86.44)" fill="#fff"/>
          <path id="Path_612" data-name="Path 612" d="M488.039,92.43a3.019,3.019,0,0,1-3.1-2.613A2.968,2.968,0,0,1,487.976,87c1.885,0,3.086,1.109,3.054,2.806-.039,2.031-.733,2.641-2.991,2.627" transform="translate(-455.388 -86.055)" fill="#fff"/>
          <path id="Path_614" data-name="Path 614" d="M523.26,91.7c-1.916,0-2.964-.89-2.984-2.539a2.811,2.811,0,0,1,2.919-2.75,2.907,2.907,0,0,1,3.1,2.749c.032,1.788-.862,2.536-3.033,2.54" transform="translate(-457.209 -86.024)" fill="#fff"/>
          <path id="Path_621" data-name="Path 621" d="M471.665,88.829c.036,1.4-.985,2.186-2.9,2.243a2.474,2.474,0,0,1-2.68-2.267c-.043-1.972.708-2.77,2.637-2.8,2.246-.036,2.882.576,2.94,2.824" transform="translate(-454.416 -86.003)" fill="#fff"/>
          <path id="Path_624" data-name="Path 624" d="M461.054,86.01c2.04.035,2.814.753,2.825,2.62a2.407,2.407,0,0,1-2.632,2.39c-2.17-.054-3.03-.847-2.974-2.742.046-1.563.949-2.3,2.781-2.268" transform="translate(-454.014 -86.004)" fill="#fff"/>
        </g>
        <g id="Group_151083" data-name="Group 151083" transform="translate(65.463)">
          <path id="Path_595" data-name="Path 595" d="M116.674,109.12h6.62c-.252-1.253-.587-2.519-.752-3.808-.826-6.462,4.131-9.645,8.352-10.235a56.22,56.22,0,0,1,7.922-.191c.3,0,.758.462.869.8a5.356,5.356,0,0,1,.11,1.638c.007,5.117-.042,10.235.041,15.352.02,1.2-.355,1.445-1.454,1.443q-26.782-.041-53.564-.022c-2.015,0-4.03.063-6.043.012-5.471-.136-10.59-4.129-9.471-11.388.624-4.056,4.792-7.075,8.594-7.688a9.542,9.542,0,0,1,2.118-.2c1.134.077,1.763-.263,1.585-1.614,1.512,0,2.956-.03,4.4.032.216.009.566.434.594.694a23.571,23.571,0,0,1,.059,2.471c0,3.976,0,7.952-.015,11.928,0,.553.055.912.736.9,1.535-.024,3.069-.008,4.7-.008V86.875c1.66,0,3.259-.031,4.852.046.173.009.444.646.45.995.042,2.637.027,5.274.035,7.912,0,.227.044.454.073.742,2.558,0,5.073-.022,7.588.008a28.366,28.366,0,0,1,4.951.208c4.4.836,6.46,3.36,6.647,7.878.06,1.443.009,2.889.009,4.458m-19.207.087c4.519,0,8.962.011,13.4-.034.2,0,.545-.506.566-.793.07-.977.035-1.962.023-2.944-.027-2.126-1.068-3.5-3.226-3.6-3.563-.16-7.141-.044-10.767-.044Zm37.176-8.945c-2.923-.65-4.99.079-6.392,2.205-1.073,1.628-.883,3.63.571,5.572,1.6,2.143,3.82.768,5.821,1.2Zm-53.06-.067a6.832,6.832,0,0,0-5.391,1.084,4.14,4.14,0,0,0-1.354,5.254c.838,1.8,4.286,3.266,6.254,2.612a1,1,0,0,0,.47-.782c.035-2.674.021-5.349.021-8.169" transform="translate(-69.149 -86.046)" fill="#fff"/>
          <path id="Path_596" data-name="Path 596" d="M162.352,100.934l-2.411-4.387c3.8-2.292,7.8-3.558,11.922-1.588,6,2.87,6.785,8.16,5.613,14.165h5.941V106.55a10.124,10.124,0,0,1,12.442-9.663A10.642,10.642,0,0,1,204.1,109a10.05,10.05,0,0,1-9.469,8.263c-2.417.1-4.942.149-6.74-1.562-1.872-1.782-3.972-1.607-6.151-1.609q-15.589-.013-31.178.011c-.759,0-1.023-.144-1.022-.964q.036-12.582-.025-25.165c-.006-.97.313-1.252,1.225-1.189.984.067,1.976.058,2.962.037.764-.016.994.273.99,1.057-.028,6.734.015,13.468-.028,20.2-.007.987.313,1.172,1.211,1.165q7.647-.061,15.293-.006c.816.007,1.046-.265,1.217-1.01a10.569,10.569,0,0,0-.017-5.48,5.3,5.3,0,0,0-5.939-3.373,10.644,10.644,0,0,0-2.053.539,21.84,21.84,0,0,0-2.02,1.016m26.3,6.2c-.013,2.71,2.292,5.357,4.651,5.346a5.693,5.693,0,0,0,5.548-5.375,5.174,5.174,0,0,0-5.136-5.221,5.037,5.037,0,0,0-5.063,5.251" transform="translate(-73.29 -86.041)" fill="#fff"/>
          <path id="Path_608" data-name="Path 608" d="M135.81,92.432a2.943,2.943,0,0,1-3.119-2.708A2.856,2.856,0,0,1,135.678,87a3.018,3.018,0,0,1,3.237,2.754c-.023,1.876-.944,2.67-3.105,2.678" transform="translate(-72.423 -86.053)" fill="#fff"/>
          <path id="Path_611" data-name="Path 611" d="M108.961,91.487c-.033,1.863-.982,2.673-3.06,2.614a3.051,3.051,0,0,1-2.906-2.745,3.085,3.085,0,0,1,3.191-2.829c1.975.045,2.809.936,2.775,2.96" transform="translate(-70.892 -86.131)" fill="#fff"/>
          <path id="Path_619" data-name="Path 619" d="M73.762,88.552c0-1.929.69-2.551,2.813-2.551,1.971,0,2.866.819,2.859,2.612a2.959,2.959,0,0,1-2.82,2.587,2.748,2.748,0,0,1-2.852-2.648" transform="translate(-69.386 -86.001)" fill="#fff"/>
          <path id="Path_625" data-name="Path 625" d="M86.96,88.814a2.187,2.187,0,0,1-2.506,2.221c-1.883-.169-3.1-.653-3.032-2.034.109-2.2.655-2.945,2.566-2.963,2.28-.021,2.97.623,2.973,2.776" transform="translate(-69.78 -86.003)" fill="#fff"/>
        </g>
        <g id="Group_151084" data-name="Group 151084" transform="translate(0 0.001)">
          <path id="Path_602" data-name="Path 602" d="M53.751,109.646c0,1.512-.023,2.807.008,4.1.019.8-.507.747-1.034.747q-5.157,0-10.315-.009c-3.359,0-6.718,0-10.077-.033-.912-.009-1.316.239-1.4,1.247a11,11,0,0,1-.792,3.42c-1.1,2.551-4.172,3.173-6.7,2.931-2.023-.194-2.018-.273-2.074-2.332-.025-.9-.031-1.808-.043-2.712,0-.031.041-.064.066-.1.85,0,1.705-.045,2.553.012a1.517,1.517,0,0,0,1.765-1.215,11.675,11.675,0,0,0,.362-2.669c.015-5.553.008-11.106-.057-16.658-.011-.993.25-1.349,1.253-1.233a10.913,10.913,0,0,0,2.367.028c1.145-.12,1.436.422,1.425,1.435q-.048,4.9-.02,9.806c.006,1.041-.248,2.428.305,3.019.487.521,1.93.161,2.954.175.9.012,1.8,0,2.79,0-.392-1.328-.834-2.545-1.109-3.8A9.588,9.588,0,0,1,46.919,94.587a44.484,44.484,0,0,1,6.325,1.724c-.654,1.807-1.2,3.3-1.72,4.746-1.432-.4-2.814-.873-4.234-1.163-4.145-.847-6.749,2.4-5.972,6.292a6.151,6.151,0,0,0,.274.9c.859,2.328,1.114,2.518,3.583,2.539,2.411.02,4.822.014,7.232.02h1.343" transform="translate(-1.22 -86.44)" fill="#fff"/>
          <path id="Path_604" data-name="Path 604" d="M17.626,93.542c0,1.46-.007,2.714,0,3.967.029,5.393.073,10.787.064,16.18,0,.263-.452.754-.692.753-3.079-.01-6.173.083-9.231-.2A8.619,8.619,0,0,1,.3,107.318C-.78,99.921,3.2,96.164,10.09,95.21a5.118,5.118,0,0,0,1.172-.072c.34-.14.809-.5.824-.783.033-.646.285-.822.863-.818,1.495.013,2.99,0,4.677,0m-5.491,6.785a18.049,18.049,0,0,0-3.192.307A4.4,4.4,0,0,0,5.537,103.9a4.059,4.059,0,0,0,1.357,4.366A5.74,5.74,0,0,0,11.43,109.5a1.011,1.011,0,0,0,.675-.7c.048-2.745.03-5.491.03-8.479" transform="translate(-0.128 -86.39)" fill="#fff"/>
          <path id="Path_607" data-name="Path 607" d="M28.675,92.42A2.961,2.961,0,0,1,25.5,89.707,3.026,3.026,0,0,1,28.658,87c1.793,0,3.325,1.258,3.148,2.784-.221,1.9-.778,2.659-3.131,2.641" transform="translate(-1.436 -86.053)" fill="#fff"/>
          <path id="Path_613" data-name="Path 613" d="M46.254,91.7c-2.052.015-3.012-.817-3.007-2.6a2.731,2.731,0,0,1,2.835-2.685A2.967,2.967,0,0,1,49.253,89.1c.05,1.795-.856,2.58-3,2.6" transform="translate(-2.35 -86.023)" fill="#fff"/>
          <path id="Path_617" data-name="Path 617" d="M15.058,86c2,.01,2.885.958,2.845,3.059-.018.949-1.488,2.107-2.712,2.133a3.008,3.008,0,0,1-3.145-2.8c.016-1.559,1.074-2.4,3.011-2.387" transform="translate(-0.743 -86.002)" fill="#fff"/>
          <path id="Path_626" data-name="Path 626" d="M10.092,88.548A2.581,2.581,0,0,1,7.324,91.1a2.69,2.69,0,0,1-2.89-2.475c0-1.8.888-2.6,2.862-2.581,1.744.022,2.8.965,2.8,2.5" transform="translate(-0.35 -86.004)" fill="#fff"/>
        </g>
      </g>
    </g>
    <g id="Mask_Group_2" data-name="Mask Group 2" transform="translate(159.207 -198.997)" clip-path="url(#clip-path)">
      <g id="Group_151079" data-name="Group 151079" transform="translate(2.278 -2.755)">
        <path id="Path_627" data-name="Path 627" d="M785.534,121.371c-.74,5.757-1.463,11.387-2.232,17.379l-11.183-2.065c-.645,2.941-1.19,5.517-1.782,8.083-.324,1.414-.286,2.364,1.511,2.864a52.425,52.425,0,0,1,7.054,2.741c.468.208,1.076,1.21.929,1.522-2.142,4.551-4.4,9.048-6.755,13.806-2.336-1.079-4.6-2.141-6.879-3.172-2.646-1.2-2.676-1.2-4.063,1.379-.9,1.671-2.613,3.58-2.3,5.025.3,1.377,2.745,2.3,4.26,3.4,1.435,1.045,2.888,2.068,4.448,3.184-3.3,3.937-6.5,7.753-9.7,11.57-.746.891-1.472.633-2.236.015-1.822-1.472-3.694-2.885-5.471-4.408a1.785,1.785,0,0,0-2.849.2c-1.655,1.742-3.42,3.387-4.983,5.2a2.27,2.27,0,0,0-.074,2.062,70.786,70.786,0,0,0,3.968,6.439c.879,1.258,1.031,1.969-.5,2.852-3.469,2-6.867,4.125-10.209,6.33-1.586,1.048-2.535.686-3.439-.8-1.27-2.095-2.622-4.14-4.087-6.436-3.058,1.574-6.088,3.061-9.014,4.729-.372.212-.433,1.432-.248,2.072.815,2.815,1.773,5.588,2.708,8.467l-16.313,4.92c-.563-2.473-1.057-4.844-1.653-7.191-.566-2.228-.909-2.441-3.079-2-2.235.452-4.444,1.024-6.678,1.478a1.568,1.568,0,0,0-1.46,1.914c.191,2.639.35,5.28.4,7.923.009.467-.555,1.35-.864,1.356-5.17.085-10.344.061-15.679.061,0-2.879-.114-5.568.046-8.24.088-1.476-.228-2.152-1.791-2.255-3.017-.2-6.021-.608-9.039-.737a2.342,2.342,0,0,0-1.8,1.264,63.591,63.591,0,0,0-1.683,6.792c-.255,1.256-.667,1.844-2.1,1.485a80.842,80.842,0,0,1-14.631-4.96c.937-2.711,1.786-5.258,2.7-7.781.365-1,.2-1.518-.874-1.946-3.491-1.389-6.951-2.861-10.385-4.383a1.484,1.484,0,0,0-2.156.66c-1.313,2.009-2.68,3.983-4,5.99-.623.952-1.319,1.494-2.416.7q-5.917-4.278-11.822-8.577a2.518,2.518,0,0,1-.483-.623l5.937-7.607c-2.607-2.186-4.984-4.317-7.536-6.21a2.9,2.9,0,0,0-2.6.153,50.787,50.787,0,0,0-4.821,3.73c-1.361,1.112-2.5,1.054-3.589-.4-2.757-3.694-5.554-7.357-8.475-11.212l7.938-6.3c-1.125-1.737-2.258-3.608-3.509-5.4-2.476-3.54-2.5-3.522-6.687-2.179-1.466.471-2.95.9-4.388,1.441a1.241,1.241,0,0,1-1.872-.812c-1.568-4-3.122-8.015-4.751-12-.473-1.158-.271-1.888.9-2.326,2.188-.818,4.345-1.749,6.584-2.388,1.18-.335,1.515-.731,1.22-1.894-.87-3.432-1.667-6.883-2.523-10.452L578.083,139c-.54-6.03-1.052-11.762-1.585-17.7h23.276c.21,1.365.489,2.853.664,4.354a89.641,89.641,0,0,0,13.08,36.723c11,17.935,26.844,29.533,47.559,33.818,14.053,2.907,28.324,3.18,42.129-1.273,22.6-7.292,40.1-20.939,50.269-42.788a72.786,72.786,0,0,0,6.79-29.083c.039-1.545.473-1.931,2.011-1.9,7.348.127,14.7.116,22.045.157.354,0,.709.039,1.213.067" transform="translate(-545.726 58.433)" fill="#fff"/>
        <path id="Subtraction_2" data-name="Subtraction 2" d="M0,69.741c1.8-6.1,3.123-12.394,5.476-18.277C13.733,30.817,28.881,17.232,49.723,9.693A74.784,74.784,0,0,1,66.662,6c1.8-.209,3.093-.477,3.337-2.744A3.758,3.758,0,0,1,74.41.041a3.6,3.6,0,0,1,3.228,4.013c-.056,1.383.427,1.767,1.761,1.9,26.012,2.655,45.475,15.517,58.53,37.919a64.556,64.556,0,0,1,8.348,24.656c.153,1.217-.066,1.719-1.348,1.694-1.912-.039-3.826.025-5.742.027L5.6,70.348c-1.652,0-5.6,0-5.6,0M96.991,19.475c-.159.6-11,19.029-16.408,28.05-2.546,4.251-2.439,5.044,1.5,8.111,7.189,5.6,15.285,6.8,23.971,4.709a20.506,20.506,0,0,0,11.037-6.716,3.637,3.637,0,0,0,.859-2.524,8.3,8.3,0,0,0-1.391-2.973c-5.639-9.011-11.194-18.08-17.048-26.952a20.894,20.894,0,0,0-6.156-6C83.72,9.143,73.46,6.93,62.267,10.674c-7.008,2.345-12.973,5.812-16.78,12.4-2.367,4.1-4.969,8.059-7.408,12.117-2.822,4.689-5.673,9.361-8.332,14.141-1.5,2.7-1.234,3.307,1.049,5.511.221.214.455.415.686.62,5.832,5.139,12.8,6.365,20.242,5.614a23.7,23.7,0,0,0,15.464-7.864,2.286,2.286,0,0,0,.292-3.237C62.045,41.41,56.712,32.783,51.367,24.162c-.892-1.442-1.672-2.954-2.648-4.687ZM73.613,5.576c.994.012,1.938.059,1.847-1.356-.074-1.177-.433-1.93-1.813-1.976s-1.612.726-1.656,1.817c-.05,1.2,1.622,1.515,1.622,1.515" transform="translate(61.879 100.491)" fill="#fff"/>
        <path id="Path_629" data-name="Path 629" d="M587.12,143.4c0-1.771.044-3.546-.055-5.311-.012-.224-.762-.428-1.186-.6a43.189,43.189,0,0,1-5.9-2.452,7.115,7.115,0,0,1-3.487-6.516q.08-62.683.117-125.365c0-1,.116-2,.178-2.994l.721-.16a6.823,6.823,0,0,1,.9,2.264q.024,46.064-.052,92.13c-.011,10.031-.028,20.063.016,30.094,0,.58.529,1.156.811,1.733.276-.529.792-1.058.793-1.589q.089-29.533.089-59.067.013-27.88,0-55.759c0-2.521-.072-5.043-.021-7.563a4.993,4.993,0,0,1,.651-1.6c.31.535.888,1.07.888,1.605,0,9.721-.113,19.441-.113,29.162q0,43.839.052,87.679c0,2.338-.124,4.675-.105,7.013.009.993-.019,2.138,1.614,2.51a13.969,13.969,0,0,0,.185-1.588q-.045-61.762-.1-123.524a7.206,7.206,0,0,1,.135-2.014c.123-.421.623-.732.953-1.092.36.36.915.666,1.038,1.1a8.068,8.068,0,0,1,.144,2.2q0,59.267-.019,118.533,0,3.693.088,7.384a5.139,5.139,0,0,0,.381,1.782,1.112,1.112,0,0,0,.867.43c.162.006.443-.4.485-.646a10.481,10.481,0,0,0,.068-1.657q.031-57.424.055-114.85c0-4.245-.046-8.494,0-12.739a4.927,4.927,0,0,1,.7-1.657c.323.55.925,1.1.928,1.651.042,8.855,0,17.712-.008,26.568q-.053,50.184-.095,100.366a9.012,9.012,0,0,0,.07,2.022c.088.378.557.667.854,1,.329-.305.768-.557.958-.932a2.955,2.955,0,0,0,.12-1.269q-.093-38.306-.2-76.61-.058-24.372-.068-48.742c0-1.318.125-2.637.2-4.177,2,.691,1.95,2.1,1.947,3.406-.007,4.615-.1,9.23-.1,13.845q-.006,52.254.011,104.506v6.839c1.619-.135,1.994-1.125,2.052-2.278.084-1.72.1-3.443.1-5.167q0-56.77-.016-113.541c0-1.844-.153-3.691-.123-5.534a5.141,5.141,0,0,1,.622-1.622c.314.534.9,1.067.9,1.6-.041,10.707-.218,21.412-.233,32.118q-.06,41.359-.006,82.719c0,2.521.051,5.049.24,7.56.037.494.823.929,1.263,1.392.274-.5.79-1,.79-1.5q.031-52.255-.025-104.506c-.006-5.538-.16-11.076-.162-16.615A12.591,12.591,0,0,1,598.7.522a10.323,10.323,0,0,1,.754,2.679q.047,56.87.018,113.741c0,3.441.089,6.881.083,10.322-.009,5.657-2.982,9.259-8.568,10.1-1.558.236-1.988.795-1.857,2.222.107,1.161.037,2.335.073,3.5,0,.156.171.307.569.972,1.379-4.706,5.964-4.355,9.007-6.4,1.5,2.115.442,7.1-2.309,8.851a19.808,19.808,0,0,1-5.949,2.246c-1.1.268-1.433.563-1.381,1.629.077,1.574.019,3.156.019,4.733l.471.3c1.454-1.2,2.837-2.5,4.383-3.561s3.265-1.9,4.9-2.833c1.309,3.335-.615,9.884-5.1,10.907a21.42,21.42,0,0,1-3.071.649c-1.5.117-1.832.861-1.656,2.209a31.388,31.388,0,0,1,.024,3.531c.986-.611,1.834-.839,2.136-1.373,1.76-3.108,5.024-3.467,7.9-4.61.888,4.548-2.1,10.278-6.187,10.685a53.963,53.963,0,0,1-9.389.062A6.313,6.313,0,0,1,578,166.565a30.569,30.569,0,0,1-1.477-6.168c2.68,1.113,5.7,1.109,7.636,3.605a12.833,12.833,0,0,0,2.468,1.954c.2-1,.4-2,.592-3.008.332-1.78-.608-2.349-2.231-2.557-5.227-.672-6.9-2.256-7.942-7.416-.25-1.242-.328-2.518-.485-3.778l.44-.412c2.323,1.518,4.651,3.03,6.968,4.557.892.589,1.76,1.213,2.637,1.82.227-1.081.483-2.155.662-3.242.08-.479-.044-.987,0-1.475.107-1.064-.263-1.49-1.411-1.611-6.619-.7-9.417-4.039-9.235-11.288,3.524,1.773,7.828,1.758,9.629,6.215l.858-.36" transform="translate(-545.726)" fill="#fff"/>
        <path id="Path_630" data-name="Path 630" d="M720.889.6a6.8,6.8,0,0,1,.414,1.645c-.077,12.984-.252,25.968-.27,38.95q-.055,39.054.028,78.106a35.677,35.677,0,0,0,.268,4.97c.1.686.752,1.294,1.152,1.937a7.03,7.03,0,0,0,.682-2.043q.1-14.68.087-29.356.02-39.514.013-79.029c0-4.183-.133-8.366-.2-12.549a6.072,6.072,0,0,1,.074-1.834c.132-.424.628-.735.962-1.1.388.375,1.063.717,1.112,1.134a33.4,33.4,0,0,1,.062,3.87q0,57.7-.008,115.4c0,2.461-.019,4.923-.119,7.381a9.329,9.329,0,0,1-7.323,8.847c-4.285.806-3.435,1.392-3.543,4.62-.018.534.056,1.07.114,2.031a36.584,36.584,0,0,1,4.64-3.744,35.81,35.81,0,0,1,5.393-2.065c1.284,5.176-1.264,9.327-6.758,10.7-3.709.926-3.882,1.164-3.328,5.046.069.489.362,1.181.732,1.33s1.042-.17,1.447-.467c2.552-1.868,5.068-3.786,7.7-5.768,1.214,4.558-.66,9.5-4.031,10.906a14.049,14.049,0,0,1-3.586.812c-1.764.231-2.68.977-2.354,2.891a21.675,21.675,0,0,1,.021,2.994c1.1-.6,2.161-.833,2.575-1.478a8.02,8.02,0,0,1,5.221-3.478,15.7,15.7,0,0,0,2.7-1.224c.188,5.923-2.584,11.377-8.989,11.318-1.791-.018-3.586.056-5.371-.052-3.6-.219-6.251-1.859-7.372-5.406a26,26,0,0,1-1.055-5.593c2.808,1.508,6.338,1.3,8.165,4.377.359.6,1.235.9,2.3,1.641,0-1.948.077-3.283-.047-4.6a1.78,1.78,0,0,0-.987-1.1,6.579,6.579,0,0,0-1.807-.329c-4.036-.578-6.285-2.581-7.047-6.456-.311-1.582-.39-3.208-.575-4.813l.505-.293,9.186,6.2c.485-.465,1.281-4.7.63-5.448-.31-.357-.959-.434-1.466-.606a35.924,35.924,0,0,1-4.682-1.608c-3.177-1.607-4.791-5.791-3.836-9.417a39.911,39.911,0,0,1,5.478,2,39.547,39.547,0,0,1,4.832,3.648c0-2.049.073-3.5-.049-4.945-.031-.371-.612-.818-1.039-1a14.264,14.264,0,0,0-1.8-.363c-5.737-1.605-7.778-4.321-7.778-10.436q0-36.746.025-73.49.018-25.85.064-51.7c0-.454.085-.906.131-1.359l.676-.132a12.92,12.92,0,0,1,.6,2.692c.061,5.969.049,11.939.047,17.91q-.009,49.024-.025,98.048v7.561c1.66.082,1.725-.94,1.752-1.819.073-2.459.074-4.921.074-7.382q.02-53.173.016-106.347c0-2.824-.291-5.646-.3-8.47,0-.609.657-1.218,1.011-1.828.386.66,1.1,1.316,1.1,1.977.021,3.257-.231,6.513-.233,9.77q-.026,54.287,0,108.574a59.852,59.852,0,0,0,.233,6.081c.053.529.833.984,1.279,1.473.307-.51.88-1.018.882-1.528q.082-27.6.062-55.2,0-33.791-.015-67.58a21.95,21.95,0,0,1-.129-2.384c.045-.4.538-.746.828-1.118.257.345.723.686.733,1.038.028,1.349-.144,2.7-.144,4.054q-.018,42.191-.015,84.382,0,19.665-.018,39.329a2.9,2.9,0,0,0,.031,1.1,8.423,8.423,0,0,0,.9,1.333c.354-.464.981-.909,1.018-1.4.156-2.083.177-4.179.175-6.27q0-47.078-.045-94.158c-.013-8.919-.2-17.838-.295-26.756a4.621,4.621,0,0,1,.075-1.645c.172-.445.68-.757,1.042-1.13.36.4,1.026.793,1.032,1.2.039,2.582-.116,5.166-.117,7.75q-.02,40.43-.015,80.858c-.007,12.429-.065,24.859-.1,37.288a25.97,25.97,0,0,0,.046,3.135c.049.422.537.792.826,1.186.4-.366,1.082-.689,1.149-1.109a30.173,30.173,0,0,0,.365-4.592q.064-20.679.067-41.36.011-37.115-.006-74.228c0-3.245,0-6.491,0-9.917.956-.273,1.44.025,1.437,1.45q-.14,62.136-.172,124.271c0,.6.611,1.2.937,1.8.46-.692,1.321-1.383,1.322-2.075.01-20.861-.083-41.72-.12-62.581q-.056-30.1-.04-60.193V.746L720.889.6" transform="translate(-485.21 0.039)" fill="#fff"/>
        <path id="Path_631" data-name="Path 631" d="M599.233,121.889h2.1c10.247,0,20.495.044,30.741-.04,1.9-.016,2.456.593,2.4,2.43-.116,3.984-.036,7.976-.036,12.281-2.857,0-5.551.053-8.239-.067-.344-.015-.889-.906-.932-1.425-.289-3.509-.254-3.543-3.857-3.575-3.334-.028-6.666.03-10,.027-1.089,0-1.574.345-1.35,1.551a60.883,60.883,0,0,0,13.311,28.4c.387.463.818.889,1.633,1.767V149.941c-1.309-.065-2.769-.24-4.219-.178-1.07.046-1.494-.345-1.511-1.327-.025-1.475-.111-2.957,0-4.423a1.535,1.535,0,0,1,1.069-1.05c4.254-.077,8.513-.093,12.766.006a1.878,1.878,0,0,1,1.248,1.319c.163,1.77.091,3.562.091,5.347q0,13.748-.012,27.5v2.951a26.974,26.974,0,0,1-3.129-.786,30.165,30.165,0,0,1-11.644-8.6,82.878,82.878,0,0,1-19.817-41.551c-.393-2.287-.409-4.638-.626-7.262" transform="translate(-534.76 58.772)" fill="#fff"/>
        <path id="Path_632" data-name="Path 632" d="M630.948,153.608q0-15.5-.015-31c0-.925.239-1.324,1.25-1.322,6.11,0,12.22-.036,18.331-.086,1.014-.009,1.441.345,1.416,1.407-.062,2.52-.076,5.044-.018,7.566.026,1.092-.412,1.362-1.423,1.344-2.655-.047-5.31.022-7.963-.013-1.162-.016-1.672.393-1.664,1.611q.136,22.513.184,45.026c0,1.519.506,2.028,1.97,2.151a63.232,63.232,0,0,1,6.773.966,1.942,1.942,0,0,1,1.273,1.3c.147,1.957.074,3.933.061,5.9-.008,1.124-.47,1.565-1.721,1.527-6.178-.2-12.011-2.032-17.884-3.657-.415-.116-.827-1.124-.83-1.718" transform="translate(-519.572 58.459)" fill="#fff"/>
        <path id="Path_633" data-name="Path 633" d="M663.46,179.107c2.434-.666,4.563-1.224,6.675-1.837,1.34-.387,1.949-.141,1.832,1.444-.145,1.958.031,3.942-.1,5.9-.04.566-.593,1.473-1.056,1.577-5.529,1.229-11.085,2.339-16.634,3.472a4.6,4.6,0,0,1-.806.006c-.03-.646-.08-1.25-.08-1.854,0-21.294.022-42.587-.052-63.883-.007-1.871.488-2.443,2.342-2.409,5.495.1,10.992.056,16.488.03,1.041,0,1.612.224,1.586,1.425-.044,2.213-.012,4.431.074,6.644.048,1.226-.325,1.76-1.651,1.77-2.406.018-4.809.259-7.216.308-1.205.024-1.554.455-1.546,1.663.083,14.46.108,28.92.15,43.381,0,.714,0,1.429,0,2.363" transform="translate(-508.714 58.615)" fill="#fff"/>
        <path id="Path_634" data-name="Path 634" d="M686.762,131.191v17.948l10.637-.553c-1.42,6.986-16,24.633-24.318,29.444,0-1.325-.03-2.437.006-3.546.068-2.087.341-4.183.21-6.254-.113-1.751.368-3.018,1.9-3.787a3.05,3.05,0,0,0,1.659-3.172q-.042-14.575.018-29.152c.006-1.092-.449-1.433-1.407-1.436H673.49v-9.365c2.635,0,5.265-.007,7.893,0,2.716.009,5.431.079,8.145.028,1.244-.024,1.6.464,1.549,1.638-.095,2.207-.028,4.422-.137,6.628a1.488,1.488,0,0,1-.9,1.047,28.129,28.129,0,0,1-3.283.532" transform="translate(-499.145 58.514)" fill="#fff"/>
        <path id="Path_636" data-name="Path 636" d="M629.136,166.947c-3.821-.993-4.325-1.611-4.333-4.776-.006-1.94,0-3.881,0-5.87,2.9.468,4.3,2,4.33,4.432.021,1.994,0,3.989,0,6.214" transform="translate(-521.873 74.042)" fill="#fff"/>
        <path id="Path_637" data-name="Path 637" d="M646.774,166.315c0-.673-.015-1.348,0-2.02.061-2.36,1.106-3.1,3.264-2.224a1.5,1.5,0,0,1,.722,1.1c.131,1.954.19,3.915.206,5.873s-1.6,1.2-2.582,1.424c-1.115.253-1.605-.341-1.625-1.395-.018-.919,0-1.837,0-2.756Z" transform="translate(-511.84 78)" fill="#fff"/>
        <path id="Path_642" data-name="Path 642" d="M579.444,174.4c2.5-1.934,4.876-3.77,7.25-5.611.876-.679,1.728-1.386,2.618-2.047.728-.538,1.5-1.346,2.3-.1.621.966,1.509,1.945.074,3-1.088.794-2.135,1.638-3.395,2.61.738.52,1.336,1,1.985,1.39a10.006,10.006,0,0,1,3.113,14.957c-.4.547-1,1.436-.808,1.822a10.435,10.435,0,0,0,2.173,2.68c.1.1,1.015-.44,1.377-.842a6.732,6.732,0,0,1,11.632,2.157,5.976,5.976,0,0,1-2.413,7.252c-2.544,1.669-6.392,1.628-8.245-.353-3.239-3.458-6.451-6.958-9.435-10.631-6.558-8.071-12.966-16.263-19.435-24.405-.113-.145-.217-.3-.32-.451-2.468-3.574-2.057-5.043,2.188-6.34,4.014-1.227,8.033-1.471,11.426,1.757a7.369,7.369,0,0,1,.965,1.116c1.961,2.813,1.78,3.744-1.084,5.634-.974.645-1.946,1.3-2.961,1.883-1.351.771-1.514,1.648-.436,2.782.419.439.775.938,1.432,1.746m9.886,12.757c2.548-3.079,2.861-5.222,1.636-7.544a6.07,6.07,0,0,0-6.376-3.052,2.623,2.623,0,0,0-1.665.9c-.185.264.221,1.1.551,1.539,1.619,2.157,3.317,4.254,4.949,6.4a11.615,11.615,0,0,1,.9,1.751m-14.954-24.982c-.459.188-1.533.331-2.011.937-.267.336.424,1.47.76,2.209a3.413,3.413,0,0,0,.857,1.181c.382.314,1.115.777,1.328.633,1.177-.792,3.018-1.637,3.169-2.674.227-1.57-1.76-1.841-3.112-2.206a8.062,8.062,0,0,0-.992-.08m27.313,36.516c1.433-.01,2.31-.873,2.317-2.608a1.983,1.983,0,0,0-2.274-2.255c-1.756.012-3,1.081-2.91,2.624.089,1.568.988,2.3,2.867,2.238" transform="translate(-550.599 76.519)" fill="#fff"/>
        <path id="Path_643" data-name="Path 643" d="M605.679,183.243l-7.9,11.47c5.1,2.894,9.847,5.584,14.582,8.267a5.685,5.685,0,0,0-2.231-8.308c-1.115-.511-2.335-.793-3.471-1.261-1.318-.544-1.443-1.54-.246-2.315a3.713,3.713,0,0,1,1.9-.517,8.13,8.13,0,0,1,8.362,8.077,51.305,51.305,0,0,1-.287,5.147c-.08,1.284,2.922,3.69,4.1,3.188.389-.166.648-.818.809-1.3a6.172,6.172,0,0,1,4.868-4.527c2.854-.574,5.473.32,6.844,2.465a7.086,7.086,0,0,1-.108,7.813,6.727,6.727,0,0,1-7.343,2.069,169.121,169.121,0,0,1-28.1-14.364c-1.658-1.03-3.995-2.071-4.453-3.578-.363-1.2,1.614-3.15,2.649-4.7,1.7-2.56,3.4-5.129,5.261-7.579,1.645-2.173,2.523-2.133,4.761-.042m24.737,24.208a2.968,2.968,0,0,0-2.938-2.7,2.555,2.555,0,0,0-2.5,2.616,2.807,2.807,0,0,0,2.659,2.733,2.951,2.951,0,0,0,2.781-2.652" transform="translate(-537.784 87.623)" fill="#fff"/>
        <path id="Path_644" data-name="Path 644" d="M647.568,196.761c.424-.059,1.082-.16,1.742-.24,1.167-.142,1.646.322,1.66,1.549.04,3.5.228,7,.282,10.505.021,1.4.474,2.032,1.98,1.814,1.331-.193,2.692-.2,4.315-.3-.153-2.194-.31-4.248-.437-6.306-.194-3.135-.187-3.137,3.291-3,.264,2.33.634,4.687.765,7.057.1,1.805,1.06,1.911,2.461,1.7,1.338-.2,2.639-.237,2.29-2.229s-.52-4.016-.746-6.029c-.158-1.438.562-2.1,1.837-1.438,1.857.964,3.115.261,4.65-.8,5.732-3.98,13.211-.873,15.056,6.15.28,1.061.458,2.151.728,3.446a29.891,29.891,0,0,1-2.983.824c-11.6,1.968-23.148,4.284-34.956,4.711-1.033.037-1.924.055-1.929-1.279-.015-5.33-.006-10.662-.006-16.134m35.051,9.122c-1.235-3.535-4.112-5.108-7.186-4.352-2.773.682-4.467,3.168-4.056,6.5l11.242-2.148" transform="translate(-511.447 94.777)" fill="#fff"/>
        <path id="Path_645" data-name="Path 645" d="M697.238,184.256l2.908-2.189c1.432,1.6,2.836,3.131,4.185,4.7,1.6,1.868,3.122,3.81,4.772,5.631.295.325,1.359.5,1.559.285,3.648-3.977,7.217-8.025,10.8-12.051-3.132-3.186-7.839-2.117-9.678,2.071-.261.593-.557,1.414-1.043,1.605a3.055,3.055,0,0,1-2.266-.089c-.366-.187-.489-1.195-.433-1.807.409-4.506,5.707-7.956,10.693-6.93a19.772,19.772,0,0,1,3.835,1.306,1.881,1.881,0,0,0,2.587-.557c2.824-3.667,2.7-2.649-.5-5.175-1.11-.876-2.253-1.712-3.384-2.563-.889-.67-1.144-1.482-.359-2.351.673-.741,1.265-1.678,2.578-.683,2.548,1.932,5.172,3.774,7.846,5.529,1.33.873,1.352,1.65.406,2.785-4.527,5.434-8.986,10.925-13.555,16.326-2.224,2.63-4.6,5.142-7,7.615-.4.417-1.7.71-1.909.471-4.033-4.545-7.968-9.177-12.043-13.932" transform="translate(-487.488 79.599)" fill="#fff"/>
        <path id="Path_646" data-name="Path 646" d="M718.454,164.073a17.2,17.2,0,0,1,.983-3.242c1.444-2.885,2.664-3.217,5.51-1.8,1.156.578,2.312,1.158,3.488,1.693,1,.458,1.679.2,2.208-.866,1.293-2.615,1.343-2.591-1.442-3.556a6.358,6.358,0,0,1-4.34-7.853,6.527,6.527,0,0,1,8.415-4.515,6.246,6.246,0,0,1,4.393,7.785c-1.82,7.286-5.483,13.78-8.949,20.35-1.761,3.335-2.3,3.406-5.381,1.173a11.4,11.4,0,0,1-4.886-9.173m4.3-.995a5.922,5.922,0,0,0,1.361,5.648,1.993,1.993,0,0,0,1.471.381c.78-1.27,2.05-2.711,1.882-3.927-.116-.845-2.249-1.441-3.515-2.081-.292-.148-.725-.021-1.2-.021m8.735-10.4a2.705,2.705,0,0,0,2.649-2.527,2.808,2.808,0,0,0-2.945-2.637,2.635,2.635,0,0,0-2.707,2.438,3.211,3.211,0,0,0,3,2.726" transform="translate(-477.256 69.282)" fill="#fff"/>
        <path id="Path_647" data-name="Path 647" d="M643.735,208.691c0-.593,0-1.189,0-1.786-.011-2.765,1.042-5.089,3.633-6.119a7.924,7.924,0,0,1,7.751.741,2.376,2.376,0,0,1,.409,2.194c-.179.473-1.218.848-1.88.851a9.982,9.982,0,0,1-2.277-.691c-1.728-.443-2.9.213-3.249,1.764a2.781,2.781,0,0,0,2,3.58,38.4,38.4,0,0,0,4.583.6c1.288.1,1.481.76,1.35,1.865-.126,1.051-.345,1.745-1.665,1.6-6.564-.722-13.135-1.352-19.7-2.095-2.877-.326-5.744-.792-8.592-1.315-.539-.1-1.362-.744-1.395-1.186-.356-4.892,3.989-9.958,8.841-10.455a1.264,1.264,0,0,1,.368-.034c1.62.326,3.387.363,4.822,1.069,2,.984.39,2.843.518,4.306a3.543,3.543,0,0,1-.05.737c-.493,3.983-.021,4.457,4.529,4.377m-14.654-2.2a32.789,32.789,0,0,0,4.635.774c.406.015,1.148-1,1.211-1.6a16,16,0,0,0-.265-3.479,1.563,1.563,0,0,0-.693-.019,6.753,6.753,0,0,0-4.889,4.321" transform="translate(-522.482 95.596)" fill="#fff"/>
        <path id="Path_648" data-name="Path 648" d="M575.93,155.414c-.295-.528-.588-1.846-1.266-2.084a4.785,4.785,0,0,0-3.456.2c-.568.294-.785,1.8-.688,2.7a15.572,15.572,0,0,0,1.133,3.863c.314.8.762,1.574-.394,1.914-1.036.3-2.255,1.187-3.12-.283a9.379,9.379,0,0,1-.8-2.055c-1.158-3.817-2.334-7.63-3.414-11.469-.526-1.872-1.433-3.15-3.494-3.538a17.532,17.532,0,0,1-3.274-1.239c-1.09-.449-1.782-1.121-1.222-2.419.546-1.267,1.4-1.85,2.782-1.278a15.03,15.03,0,0,0,9.4,1.018,40.074,40.074,0,0,0,4.531-1.552c.694-.256,1.411-1.13,2,.04.525,1.041,1.189,2.305-.243,3.068-1.829.975-3.81,1.669-5.7,2.533-.651.3-1.792.82-1.752,1.11a12.912,12.912,0,0,0,1.158,3.587c.068.151,1.133-.036,1.676-.233,5.274-1.906,9.626,1.075,9.666,6.709.008,1.066.343,2.545-1.586,2.455-1.635-.079-2.613-.709-1.942-3.055" transform="translate(-555.739 66.873)" fill="#fff"/>
        <path id="Path_649" data-name="Path 649" d="M724.836,146.114c.705-2.7,1.319-3.246,3.633-3.169a20.326,20.326,0,0,1,4.58.5c1.637.44,2.361-.123,2.6-1.608.156-.946.19-1.912.28-2.9-1.488-.156-2.775-.2-4.025-.436-4.025-.772-6.214-6.377-3.827-9.721a2.212,2.212,0,0,1,3.03-.923c1.343.655.706,1.593.371,2.507-.91,2.474-.571,3.657,1.2,4.277a2.706,2.706,0,0,0,3.644-1.783,16.034,16.034,0,0,0,.575-3.068c.27-2.782.265-2.8,3.517-2.318-.2,3.312-.385,6.662-.633,10.007a38.916,38.916,0,0,1-.55,4.389c-.446,2.357-.4,4.453,1.942,5.931a8.093,8.093,0,0,1,1.717,1.918,1.692,1.692,0,0,1-.2,2.593,1.662,1.662,0,0,1-2.581.073c-.455-.414-.94-.8-1.376-1.232-3.057-3.036-6.607-4.892-11.048-4.754a22.943,22.943,0,0,1-2.852-.279" transform="translate(-474.177 61.367)" fill="#fff"/>
        <path id="Path_650" data-name="Path 650" d="M685.045,206.22c-1.233.116-2.127.2-3.019.283-4.752.428-7.97-2.533-7.581-6.973a6.1,6.1,0,0,1,4.874-5.768c3.209-.864,6.026-.036,7.658,2.524,2.888,4.534,2.386,9.361.842,14.176a2.084,2.084,0,0,1-1.583.924c-1.841.126-2.556-.937-1.958-2.664.25-.722.45-1.461.768-2.5m-3.429-3.558c1.958-.022,3.022-.741,2.959-2a4.317,4.317,0,0,0-3.35-3.237,2.722,2.722,0,0,0-2.606,2.772c.062,1.653,1.073,2.484,3,2.462" transform="translate(-498.498 93.299)" fill="#fff"/>
        <path id="Path_651" data-name="Path 651" d="M687.25,193.314c.025-4.591,2.505-6.989,7.143-6.908,4.115.073,6.9,3.076,6.819,7.351-.076,3.878-2.928,6.346-7.31,6.321-4.349-.025-6.675-2.391-6.653-6.764m4.057-.036c.027,2.01.8,2.966,2.422,2.99a2.9,2.9,0,0,0,3.184-3.171,2.57,2.57,0,0,0-2.868-2.63c-1.977.01-2.764.818-2.738,2.81" transform="translate(-492.306 89.909)" fill="#fff"/>
        <path id="Path_652" data-name="Path 652" d="M572.592,134.319c-.142,4.213-2.913,6.908-6.987,6.794-4.18-.117-7-3.2-6.859-7.5.132-4.014,2.849-6.407,7.37-6.085,4.788.341,6.868,2.289,6.475,6.791m-6.641-3.031a2.893,2.893,0,0,0-3.076,2.336,3.138,3.138,0,0,0,2.511,3.355,3.077,3.077,0,0,0,3.4-2.667,2.919,2.919,0,0,0-2.837-3.024" transform="translate(-554.291 61.497)" fill="#fff"/>
        <path id="Path_653" data-name="Path 653" d="M695.3,184.323c2.782-2.133,3.589-2.176,6.036-.058,4.213,3.645,5.962,8.4,6.146,13.851.056,1.639-.965,1.708-2.143,1.786-1.253.084-1.72-.38-1.734-1.685-.056-5.129-2.387-9.147-6.325-12.323-.618-.5-1.244-.987-1.979-1.571" transform="translate(-488.423 88.122)" fill="#fff"/>
        <path id="Path_654" data-name="Path 654" d="M657.106,196.86c.135,2.028-.857,2.229-1.85,2.37a1.191,1.191,0,0,1-1.457-1.536c.2-.762.931-1.8,1.573-1.914.6-.11,1.385.839,1.734,1.079" transform="translate(-508.465 94.428)" fill="#fff"/>
        <path id="Path_655" data-name="Path 655" d="M570.761,131.83c-.888,0-1.374-.412-1.384-1.177a1.306,1.306,0,0,1,1.355-1.276,1.348,1.348,0,0,1,1.436,1.275c.015.83-.4,1.177-1.407,1.178" transform="translate(-549.16 62.403)" fill="#fff"/>
        <path id="Path_656" data-name="Path 656" d="M570.761,133.83c-.888,0-1.374-.412-1.384-1.177a1.306,1.306,0,0,1,1.355-1.276,1.348,1.348,0,0,1,1.436,1.275c.015.83-.4,1.177-1.407,1.178" transform="translate(-549.16 63.367)" fill="#fff"/>
        <path id="Path_657" data-name="Path 657" d="M570.7,140.632c-.888,0-1.376-.412-1.384-1.177a1.305,1.305,0,0,1,1.355-1.276,1.348,1.348,0,0,1,1.436,1.275c.015.83-.4,1.177-1.407,1.178" transform="translate(-549.19 66.648)" fill="#fff"/>
        <path id="Path_658" data-name="Path 658" d="M573.813,149.938c-.888,0-1.374-.412-1.385-1.177a1.305,1.305,0,0,1,1.355-1.276,1.347,1.347,0,0,1,1.436,1.275c.015.83-.4,1.177-1.406,1.178" transform="translate(-547.689 71.137)" fill="#fff"/>
        <path id="Path_659" data-name="Path 659" d="M577.813,159.938c-.888,0-1.374-.412-1.385-1.177a1.305,1.305,0,0,1,1.355-1.276,1.348,1.348,0,0,1,1.436,1.275c.015.83-.4,1.177-1.406,1.178" transform="translate(-545.759 75.96)" fill="#fff"/>
        <path id="Path_660" data-name="Path 660" d="M579.813,161.938c-.888,0-1.374-.412-1.385-1.177a1.305,1.305,0,0,1,1.355-1.276,1.348,1.348,0,0,1,1.436,1.275c.015.83-.4,1.177-1.406,1.179" transform="translate(-544.794 76.925)" fill="#fff"/>
        <path id="Path_661" data-name="Path 661" d="M585.813,169.938c-.888,0-1.374-.412-1.385-1.177a1.305,1.305,0,0,1,1.354-1.276,1.348,1.348,0,0,1,1.436,1.275c.015.83-.4,1.177-1.406,1.178" transform="translate(-541.9 80.784)" fill="#fff"/>
        <path id="Path_662" data-name="Path 662" d="M594.813,179.938c-.888,0-1.374-.412-1.385-1.177a1.305,1.305,0,0,1,1.354-1.276,1.349,1.349,0,0,1,1.437,1.275c.015.83-.4,1.177-1.407,1.178" transform="translate(-537.56 85.607)" fill="#fff"/>
        <path id="Path_663" data-name="Path 663" d="M634.194,198.259c-.888-.043-1.352-.482-1.322-1.245a1.3,1.3,0,0,1,1.416-1.207,1.35,1.35,0,0,1,1.371,1.346c-.027.829-.46,1.155-1.464,1.106" transform="translate(-518.535 94.443)" fill="#fff"/>
        <path id="Path_664" data-name="Path 664" d="M631.2,198.107c-.888-.043-1.352-.482-1.322-1.245a1.3,1.3,0,0,1,1.416-1.207A1.351,1.351,0,0,1,632.661,197c-.027.829-.46,1.155-1.465,1.106" transform="translate(-519.98 94.37)" fill="#fff"/>
        <path id="Path_665" data-name="Path 665" d="M690.682,185.965c-.75.476-1.383.387-1.8-.255a1.306,1.306,0,0,1,.462-1.8,1.349,1.349,0,0,1,1.9.31c.457.692.29,1.208-.559,1.748" transform="translate(-491.611 88.584)" fill="#fff"/>
        <path id="Path_666" data-name="Path 666" d="M688.308,187.252c-.75.476-1.383.387-1.8-.255a1.306,1.306,0,0,1,.462-1.8,1.35,1.35,0,0,1,1.9.31c.456.692.29,1.208-.559,1.748" transform="translate(-492.756 89.205)" fill="#fff"/>
        <path id="Path_667" data-name="Path 667" d="M713.365,164.9c-.653.6-1.291.627-1.816.07a1.305,1.305,0,0,1,.134-1.856,1.351,1.351,0,0,1,1.921-.034c.572.6.5,1.138-.239,1.82" transform="translate(-480.743 78.472)" fill="#fff"/>
        <path id="Path_668" data-name="Path 668" d="M712.259,166.586c-.654.6-1.291.627-1.816.07a1.305,1.305,0,0,1,.133-1.856,1.35,1.35,0,0,1,1.921-.034c.572.6.5,1.138-.239,1.82" transform="translate(-481.276 79.287)" fill="#fff"/>
        <path id="Path_669" data-name="Path 669" d="M716.259,182.586c-.654.6-1.291.627-1.816.07a1.305,1.305,0,0,1,.133-1.856,1.351,1.351,0,0,1,1.921-.034c.572.6.5,1.138-.239,1.82" transform="translate(-479.348 87.004)" fill="#fff"/>
        <path id="Path_670" data-name="Path 670" d="M718.353,155.7c-.559.691-1.186.808-1.786.334a1.3,1.3,0,0,1-.138-1.856,1.35,1.35,0,0,1,1.9-.313c.652.512.661,1.052.028,1.835" transform="translate(-478.387 74.089)" fill="#fff"/>
        <path id="Path_671" data-name="Path 671" d="M717.5,157.536c-.559.691-1.186.808-1.786.334a1.3,1.3,0,0,1-.138-1.856,1.35,1.35,0,0,1,1.9-.313c.652.511.661,1.052.028,1.835" transform="translate(-478.797 74.973)" fill="#fff"/>
        <path id="Path_672" data-name="Path 672" d="M722.353,146.7c-.559.691-1.186.808-1.786.334a1.3,1.3,0,0,1-.138-1.856,1.35,1.35,0,0,1,1.9-.313c.652.511.661,1.052.028,1.835" transform="translate(-476.459 69.748)" fill="#fff"/>
        <path id="Path_673" data-name="Path 673" d="M725.353,131.7c-.559.691-1.186.808-1.786.333a1.3,1.3,0,0,1-.138-1.856,1.35,1.35,0,0,1,1.9-.313c.652.511.661,1.052.028,1.835" transform="translate(-475.011 62.513)" fill="#fff"/>
        <g id="Group_151077" data-name="Group 151077" transform="translate(143.893 125.042)">
          <path id="Path_641" data-name="Path 641" d="M668.006,84.454v26.511s-10.969.169-15.9,0" transform="translate(-652.11 -84.454)" fill="#fff"/>
          <path id="Path_674" data-name="Path 674" d="M652.11,84.454v26.51s10.969.169,15.9,0" transform="translate(-635.854 -84.454)" fill="#fff"/>
        </g>
        <g id="Group_151078" data-name="Group 151078" transform="translate(94.317 125.042)">
          <path id="Path_675" data-name="Path 675" d="M668.006,84.454v26.511s-10.969.169-15.9,0" transform="translate(-652.11 -84.454)" fill="#fff"/>
          <path id="Path_676" data-name="Path 676" d="M652.11,84.454v26.51s10.969.169,15.9,0" transform="translate(-635.854 -84.454)" fill="#fff"/>
        </g>
        <path id="Path_677" data-name="Path 677" d="M624.806,166.947c3.821-.993,4.325-1.611,4.333-4.776.006-1.94,0-3.881,0-5.87-2.9.468-4.3,2-4.33,4.432-.021,1.994,0,3.989,0,6.214" transform="translate(-458.575 74.919)" fill="#fff"/>
      </g>
    </g>
  </g>
</svg>
