<svg xmlns="http://www.w3.org/2000/svg" width="25" height="25" viewBox="0 0 25 25">
  <g id="category" transform="translate(0.5 0.5)">
    <g id="category-2">
      <path id="Vector" d="M5,8A2.652,2.652,0,0,0,8,5V3A2.652,2.652,0,0,0,5,0H3A2.652,2.652,0,0,0,0,3V5A2.652,2.652,0,0,0,3,8Z" transform="translate(14 2)" fill="none" stroke="#726f6f" stroke-linecap="round" stroke-linejoin="round" stroke-miterlimit="10" stroke-width="1.5" stroke-dasharray="0 0"/>
      <path id="Vector-2" data-name="Vector" d="M5,8A2.652,2.652,0,0,0,8,5V3A2.652,2.652,0,0,0,5,0H3A2.652,2.652,0,0,0,0,3V5A2.652,2.652,0,0,0,3,8Z" transform="translate(2 14)" fill="none" stroke="#726f6f" stroke-linecap="round" stroke-linejoin="round" stroke-miterlimit="10" stroke-width="1.5" stroke-dasharray="0 0"/>
      <path id="Vector-3" data-name="Vector" d="M4,8A4,4,0,1,1,8,4,4,4,0,0,1,4,8Z" transform="translate(2 2)" fill="none" stroke="#726f6f" stroke-linecap="round" stroke-linejoin="round" stroke-miterlimit="10" stroke-width="1.5" stroke-dasharray="0 0"/>
      <path id="Vector-4" data-name="Vector" d="M4,8A4,4,0,1,1,8,4,4,4,0,0,1,4,8Z" transform="translate(14 14)" fill="none" stroke="#726f6f" stroke-linecap="round" stroke-linejoin="round" stroke-miterlimit="10" stroke-width="1.5" stroke-dasharray="0 0"/>
      <path id="Vector-5" data-name="Vector" d="M24,0V24H0V0Z" fill="none" stroke="#726f6f" stroke-width="1" opacity="0"/>
    </g>
  </g>
</svg>
