<svg id="flag-active" xmlns="http://www.w3.org/2000/svg" width="24" height="24" viewBox="0 0 24 24">
  <path id="Vector" d="M0,20.75V.75A.755.755,0,0,1,.75,0,.755.755,0,0,1,1.5.75v20a.755.755,0,0,1-.75.75A.755.755,0,0,1,0,20.75Z" transform="translate(4.4 1.25)" fill="#1e9f3b"/>
  <path id="Vector-2" data-name="Vector" d="M.75,13.5a.75.75,0,0,1,0-1.5h11.2c1.09,0,1.6-.29,1.7-.54s-.05-.81-.83-1.58l-1.2-1.2a2.52,2.52,0,0,1-.82-1.8,2.773,2.773,0,0,1,.82-2.06l1.2-1.2c.74-.74.97-1.34.86-1.6S13,1.5,11.95,1.5H.75A.75.75,0,0,1,.75,0h11.2c2.19,0,2.89.91,3.12,1.45s.37,1.68-1.19,3.24l-1.2,1.2a1.305,1.305,0,0,0-.38.95,1.058,1.058,0,0,0,.34.76l1.24,1.23c1.53,1.53,1.38,2.67,1.16,3.22-.23.53-.94,1.45-3.09,1.45Z" transform="translate(4.4 3.25)" fill="#1e9f3b"/>
  <path id="Vector-3" data-name="Vector" d="M24,0V24H0V0Z" fill="#1e9f3b" opacity="0"/>
</svg>
