<svg id="home" xmlns="http://www.w3.org/2000/svg" width="24" height="24" viewBox="0 0 24 24">
  <g id="home-2">
    <path id="Vector" d="M16.54,21.477H4.96A4.97,4.97,0,0,1,0,16.507V9.1a5.517,5.517,0,0,1,1.92-3.91L7.31.987A4.977,4.977,0,0,1,10.363,0,4.964,4.964,0,0,1,13.2.847l6.179,4.33a5.467,5.467,0,0,1,2.12,4.06v7.28A4.966,4.966,0,0,1,16.54,21.477ZM10.355,1.5a3.51,3.51,0,0,0-2.125.665L2.84,6.367A4.071,4.071,0,0,0,1.5,9.1v7.411a3.468,3.468,0,0,0,3.46,3.469H16.54A3.464,3.464,0,0,0,20,16.517V9.237a3.955,3.955,0,0,0-1.48-2.83l-6.18-4.33A3.477,3.477,0,0,0,10.355,1.5Z" transform="translate(1.25 1.273)" fill="#726f6f"/>
    <path id="Vector-2" data-name="Vector" d="M0,3.75v-3A.755.755,0,0,1,.75,0,.755.755,0,0,1,1.5.75v3a.755.755,0,0,1-.75.75A.755.755,0,0,1,0,3.75Z" transform="translate(11.25 14.25)" fill="#726f6f"/>
    <path id="Vector-3" data-name="Vector" d="M24,0V24H0V0Z" fill="#726f6f" opacity="0"/>
  </g>
</svg>
