<svg xmlns="http://www.w3.org/2000/svg" xmlns:xlink="http://www.w3.org/1999/xlink" width="139.347" height="130.405" viewBox="0 0 139.347 130.405">
  <defs>
    <clipPath id="clip-path">
      <rect id="Rectangle_161316" data-name="Rectangle 161316" width="89.357" height="100.858" transform="translate(0)" fill="#fff"/>
    </clipPath>
  </defs>
  <g id="logoMenuM" transform="translate(-44.498 164.584)">
    <g id="Group_151092" data-name="Group 151092" transform="translate(44.498 -54.099)">
      <g id="Group_151090" data-name="Group 151090" transform="translate(0 15.123)">
        <g id="Group_151085" data-name="Group 151085" transform="translate(0 0.014)">
          <path id="Path_576" data-name="Path 576" d="M3.678,145.117c-.285-.1-.565-.213-.849-.309a1.605,1.605,0,0,0-1.78.471A1.822,1.822,0,0,0,.61,147.2a1.558,1.558,0,0,0,1.451,1.164,5.869,5.869,0,0,0,1.006-.034c.094-.01.174-.152.256-.237.012-.012,0-.042.006-.063.087-.908.087-.9-.847-.916-.2,0-.51.106-.481-.278.007-.089.132-.24.208-.243.487-.024.977-.025,1.465,0a.325.325,0,0,1,.214.232,11.958,11.958,0,0,1,0,1.428.566.566,0,0,1-.285.408,3.282,3.282,0,0,1-2.26.124,1.8,1.8,0,0,1-1.313-1.616,4.92,4.92,0,0,1,.045-1.419,1.764,1.764,0,0,1,1.717-1.419,9.144,9.144,0,0,1,1.46.054c.46.06.541.24.426.734" transform="translate(0 -144.24)" fill="#fff"/>
          <path id="Path_578" data-name="Path 578" d="M52.926,148.662a.465.465,0,0,1-.635-.284c-.144-.3-.248-.624-.407-.917a.529.529,0,0,0-.347-.255c-.4-.034-.8-.008-1.2-.018a.407.407,0,0,0-.458.352,6.542,6.542,0,0,1-.316.848.447.447,0,0,1-.2.237,1.477,1.477,0,0,1-.4.045,1.076,1.076,0,0,1,.009-.359c.487-1.247.984-2.49,1.48-3.734a.843.843,0,0,1,.122-.228c.1-.12.214-.228.322-.341.12.116.294.211.353.352.549,1.315,1.08,2.637,1.612,3.959a2.171,2.171,0,0,1,.073.343m-1.373-1.926-.623-1.676-.711,1.676Z" transform="translate(-36.172 -144.007)" fill="#fff"/>
          <path id="Path_580" data-name="Path 580" d="M21.761,148.8c-.555.088-.651.034-.81-.418-.05-.143-.093-.288-.146-.43-.213-.569-.214-.569-.809-.581-1.152-.022-1.149-.021-1.6,1.053-.079.189-.089.44-.379.471-.2.021-.326-.033-.291-.261a1.594,1.594,0,0,1,.084-.345c.494-1.246.988-2.492,1.5-3.73a.522.522,0,0,1,.347-.273.446.446,0,0,1,.357.2c.195.372.354.764.514,1.153q.552,1.351,1.088,2.708c.055.137.089.282.14.449m-2.079-3.535-.649,1.688H20.4l-.722-1.688" transform="translate(-13.1 -144.214)" fill="#fff"/>
          <path id="Path_583" data-name="Path 583" d="M34.8,148.364h2.236c.464,0,.481.023.336.511H34.127c-.276,0-.236-.207-.175-.342a3.773,3.773,0,0,1,.414-.693c.725-.972,1.462-1.935,2.193-2.9a1.38,1.38,0,0,0,.086-.212c-.742,0-1.43,0-2.118,0a.643.643,0,0,1-.255-.027.236.236,0,0,1-.123-.169c0-.047.077-.123.134-.141a1.076,1.076,0,0,1,.321-.043c.825,0,1.651-.008,2.477,0,.405,0,.477.116.284.469a5.982,5.982,0,0,1-.469.7c-.6.8-1.2,1.593-1.8,2.391-.095.127-.174.265-.3.461" transform="translate(-25.06 -144.253)" fill="#fff"/>
        </g>
        <g id="Group_151088" data-name="Group 151088" transform="translate(62.712 0.01)">
          <path id="Path_565" data-name="Path 565" d="M279.786,147.854c.188-.461.355-.878.529-1.293.293-.7.6-1.389.883-2.091.132-.329.4-.277.624-.223.09.021.186.241.187.371.013,1.373.008,2.745.008,4.139-.088.009-.172.014-.254.025-.305.044-.381-.084-.373-.384.022-.93.008-1.861.008-2.758-.534,1.046-.916,2.207-1.491,3.281a.9.9,0,0,1-.623-.572c-.393-.97-.784-1.942-1.213-3.008v3.4c-.514.088-.557.056-.558-.385,0-1.256-.006-2.512,0-3.768,0-.119.068-.332.127-.341.223-.03.494-.108.637.17.113.221.211.45.307.679.353.837.7,1.675,1.053,2.511a2.319,2.319,0,0,0,.148.244" transform="translate(-267.805 -144.151)" fill="#fff"/>
          <path id="Path_567" data-name="Path 567" d="M299.806,148.759c-.526.076-.543.063-.543-.385q0-1.885,0-3.769v-.3c.05-.024.068-.041.087-.042.787-.026.636-.128.916.593q.551,1.421,1.114,2.837a.93.93,0,0,0,.146.18,2.041,2.041,0,0,0,.135-.231c.411-1,.815-2,1.231-3,.185-.443.226-.463.68-.371a.305.305,0,0,1,.193.217c.014,1.354.011,2.708.019,4.061,0,.208-.091.251-.277.252-.215,0-.325-.064-.321-.295.014-.747.021-1.494.029-2.241a3.272,3.272,0,0,0-.049-.7l-.9,2.136a9.271,9.271,0,0,1-.372.862c-.068.123-.236.276-.349.269a.563.563,0,0,1-.386-.275c-.183-.354-.318-.733-.468-1.1-.233-.571-.462-1.143-.7-1.713a.332.332,0,0,0-.188-.176Z" transform="translate(-283.882 -144.163)" fill="#fff"/>
          <path id="Path_572" data-name="Path 572" d="M258.652,144.25a2.186,2.186,0,0,1,2.316,2.377,2.34,2.34,0,1,1-4.675-.193,2.14,2.14,0,0,1,2.359-2.184m1.674,2.223c0-.051,0-.159,0-.267a1.73,1.73,0,0,0-2.211-1.438,1.878,1.878,0,0,0-1.13,2.3,1.572,1.572,0,0,0,1.143,1.213,1.709,1.709,0,0,0,2.2-1.811" transform="translate(-252.124 -144.182)" fill="#fff"/>
          <path id="Path_574" data-name="Path 574" d="M337.721,146.942c.318.482.612.921.9,1.365.1.162.187.338.281.509a.584.584,0,0,1-.841-.236c-.282-.436-.545-.884-.815-1.328a1.037,1.037,0,0,0-1.088-.3c-.065.041-.09.183-.091.279-.006.454-.007.909.011,1.363.008.217-.071.283-.281.279-.193,0-.335,0-.333-.264.012-1.353.014-2.706.013-4.059,0-.174.074-.221.236-.22.554,0,1.108-.014,1.661,0a1.284,1.284,0,0,1,1.295,1.026,1.35,1.35,0,0,1-.7,1.445c-.082.047-.163.1-.245.146m-1.657-1.392c0,.216-.013.433.007.647.007.07.1.188.153.188a10.409,10.409,0,0,0,1.293-.065.7.7,0,0,0,.544-.65.736.736,0,0,0-.469-.743,2.992,2.992,0,0,0-.723-.167c-.806-.067-.806-.058-.806.726,0,.021,0,.043,0,.065" transform="translate(-310.635 -144.236)" fill="#fff"/>
          <path id="Path_584" data-name="Path 584" d="M368.455,146.746v1.611c.631,0,1.236,0,1.84,0,.385,0,.426.047.418.484a2.292,2.292,0,0,1-.245.026c-.783,0-1.565,0-2.347,0-.171,0-.3-.012-.3-.23,0-1.375-.005-2.75,0-4.125a.266.266,0,0,1,.185-.183c.793-.009,1.586-.006,2.378.013.081,0,.16.124.24.191-.084.063-.165.179-.251.182-.564.02-1.129.022-1.694.017-.189,0-.278.048-.271.256.013.41,0,.82,0,1.282h1.47a.738.738,0,0,1,.29.009,1.482,1.482,0,0,1,.29.235c-.1.076-.192.213-.292.217-.561.021-1.124.01-1.72.01" transform="translate(-334.55 -144.242)" fill="#fff"/>
          <path id="Path_586" data-name="Path 586" d="M321.654,144.733v1.545h1.293c.163,0,.326,0,.488,0s.278.043.274.231a.228.228,0,0,1-.264.253c-.584,0-1.169,0-1.774,0v1.6c.655,0,1.3.014,1.951-.007.28-.009.35.118.305.345a.256.256,0,0,1-.18.164c-.877.011-1.754.007-2.662.007v-4.536h.438c.695,0,1.39,0,2.085.016.1,0,.2.11.3.168-.1.07-.2.2-.308.2-.455.023-.911.012-1.367.013h-.58" transform="translate(-300.012 -144.244)" fill="#fff"/>
          <path id="Path_588" data-name="Path 588" d="M353.778,144.974c-.305-.124-.559-.248-.826-.332a1.743,1.743,0,0,0-2.183,1.026,1.886,1.886,0,0,0,.741,2.352,2.154,2.154,0,0,0,1.889-.029c.2-.082.395-.15.444.14a.377.377,0,0,1-.138.325,3.183,3.183,0,0,1-2.316.115,2.265,2.265,0,0,1-1.409-2.148,2.088,2.088,0,0,1,1.357-2.156,3.057,3.057,0,0,1,2.4.1c.317.159.06.383.038.6" transform="translate(-321.365 -144.051)" fill="#fff"/>
          <path id="Path_589" data-name="Path 589" d="M242.77,143.992c.407.089.819.162,1.219.274a.266.266,0,0,1,.2.4c-.111.222-.275.152-.442.077a1.929,1.929,0,0,0-2.09.108,1.9,1.9,0,0,0,.23,3.128,2.276,2.276,0,0,0,1.806-.016c.168-.058.35-.147.445.074a.332.332,0,0,1-.065.311,2.9,2.9,0,0,1-2.852-.083,2.5,2.5,0,0,1-.813-2.574,2.138,2.138,0,0,1,2.363-1.7" transform="translate(-240.324 -143.992)" fill="#fff"/>
        </g>
        <g id="Group_151086" data-name="Group 151086" transform="translate(19.111 0.042)">
          <path id="Path_566" data-name="Path 566" d="M127.821,147.841c.192-.466.354-.862.519-1.256.291-.7.58-1.4.879-2.093a.46.46,0,0,1,.654-.282.378.378,0,0,1,.172.291c.019.6.016,1.191.017,1.787,0,.8,0,1.6,0,2.444-.107.006-.221.007-.334.019-.231.024-.294-.078-.292-.3.011-.961,0-1.922,0-2.842-.58,1.034-.888,2.237-1.517,3.286l-.139.014a2.783,2.783,0,0,1-.438-.563c-.417-.972-.8-1.957-1.245-2.946v3.318c-.5.1-.546.059-.548-.388,0-1.235-.008-2.47,0-3.7,0-.14.058-.385.128-.4.243-.05.534-.1.669.222.17.409.337.82.509,1.229q.382.913.77,1.824c.04.095.1.182.19.345" transform="translate(-111.9 -144.15)" fill="#fff"/>
          <path id="Path_570" data-name="Path 570" d="M147.343,144.385c.677,0,1.33-.033,1.977.012a1.021,1.021,0,0,1,.954.63,1.128,1.128,0,0,1-.194,1.272c-.125.123-.116.19.032.3a1.4,1.4,0,0,1,.462,1.439.949.949,0,0,1-.91.765c-.76.09-1.53.1-2.32.138Zm.509,4c.516,0,1,.014,1.486,0a.821.821,0,0,0,.718-.652.712.712,0,0,0-.482-.792,3.478,3.478,0,0,0-1.722-.113Zm0-2.019c.5-.069.957-.113,1.408-.2a.544.544,0,0,0,.487-.529.643.643,0,0,0-.419-.693,3.306,3.306,0,0,0-1.475-.161Z" transform="translate(-128.005 -144.306)" fill="#fff"/>
          <path id="Path_573" data-name="Path 573" d="M179.842,146.936l1.193,1.912a.671.671,0,0,1-.909-.312c-.274-.441-.543-.885-.814-1.327a1.105,1.105,0,0,0-1.079-.25c-.069.058-.075.213-.076.324-.007.515,0,1.031,0,1.571a1.086,1.086,0,0,1-.369.008c-.092-.033-.22-.146-.221-.224-.008-1.363,0-2.726.006-4.089,0-.177.082-.217.24-.216.553,0,1.107-.014,1.66,0a1.3,1.3,0,0,1,1.316,1.123,1.454,1.454,0,0,1-.725,1.345c-.082.046-.16.1-.22.136m-1.686-1.352a6.134,6.134,0,0,0,.007.616c.007.071.1.19.151.189a10.637,10.637,0,0,0,1.3-.063.734.734,0,0,0,.062-1.4,3.794,3.794,0,0,0-.953-.166c-.651-.015-.581-.064-.565.567,0,.086,0,.173,0,.26" transform="translate(-150.338 -144.273)" fill="#fff"/>
          <path id="Path_579" data-name="Path 579" d="M111.58,148.723c-.4.089-.589.011-.739-.318-.129-.285-.215-.59-.352-.87a.474.474,0,0,0-.3-.251c-.421-.031-.845-.01-1.268-.019a.381.381,0,0,0-.4.3c-.1.284-.216.565-.34.84a.618.618,0,0,1-.212.277,1.113,1.113,0,0,1-.361.073c-.017-.109-.078-.234-.045-.325.239-.66.492-1.315.75-1.967.242-.613.5-1.221.747-1.83a1.568,1.568,0,0,1,.142-.29c.212-.31.47-.305.621.034.337.76.655,1.528.972,2.3.231.559.45,1.123.671,1.686.046.117.079.24.118.362m-1.362-1.9-.717-1.669c-.216.541-.409,1.013-.585,1.491-.013.036.1.168.153.17.354.016.71.008,1.149.008" transform="translate(-98.595 -144.117)" fill="#fff"/>
          <path id="Path_582" data-name="Path 582" d="M91.5,146.217h2.5c0-.374,0-.737,0-1.1a5.3,5.3,0,0,1,.014-.584.9.9,0,0,1,.127-.266,1.762,1.762,0,0,1,.3.212c.043.045.039.144.039.218.008,1.277.017,2.554.014,3.831,0,.107-.062.279-.139.309-.21.082-.358,0-.356-.26,0-.52,0-1.039.012-1.559.007-.231-.045-.326-.306-.319-.713.019-1.428.007-2.178.007,0,.657,0,1.248,0,1.839,0,.3-.108.382-.385.279a.4.4,0,0,1-.212-.293c-.011-1.331,0-2.662,0-3.994,0-.206.092-.261.28-.252s.315.008.308.257c-.016.549,0,1.1,0,1.674" transform="translate(-86.301 -144.228)" fill="#fff"/>
          <path id="Path_587" data-name="Path 587" d="M163.312,148.838c0-.157,0-.306,0-.454,0-1.266.007-2.533,0-3.8,0-.179.035-.26.227-.258.771.008,1.543,0,2.314.021.09,0,.178.127.266.2-.1.061-.189.172-.287.176-.553.019-1.108.029-1.661.008-.242-.009-.3.061-.294.287.016.4,0,.8,0,1.238h2v.513h-1.963v1.578h2.212l.111.495Z" transform="translate(-139.806 -144.272)" fill="#fff"/>
          <path id="Path_590" data-name="Path 590" d="M73.236,146.52a2.058,2.058,0,0,1,1.15-2.079,2.419,2.419,0,0,1,.908-.192,2.921,2.921,0,0,1,1.532.17c.188.1.32.152.206.4s-.229.215-.432.115a1.845,1.845,0,0,0-2.132.139,1.9,1.9,0,0,0,.16,3.018,2.1,2.1,0,0,0,1.792.088c.093-.027.187-.1.273-.094a.449.449,0,0,1,.3.147c.04.062-.029.2-.064.3-.011.032-.067.054-.106.069a3.085,3.085,0,0,1-2.068.144,2.059,2.059,0,0,1-1.522-2.226" transform="translate(-73.236 -144.199)" fill="#fff"/>
        </g>
        <g id="Group_151087" data-name="Group 151087" transform="translate(52.113 0.071)">
          <path id="Path_571" data-name="Path 571" d="M202.213,144.244a1.683,1.683,0,0,1,1.512.565,2.3,2.3,0,0,1,.73,1.721,2.277,2.277,0,0,1-2.567,2.323,2.319,2.319,0,0,1-2.179-2.314,2.205,2.205,0,0,1,2.5-2.3m1.623,2.255a1.756,1.756,0,1,0-3.506.02,1.754,1.754,0,1,0,3.506-.02" transform="translate(-199.708 -144.227)" fill="#fff"/>
          <path id="Path_591" data-name="Path 591" d="M221.4,146.712v1.405c0,.141-.006.282,0,.422.009.176.009.33-.238.324-.215,0-.383-.026-.382-.309.005-1.375,0-2.749,0-4.124a.734.734,0,0,1,.044-.144c.925.069,1.868-.064,2.8.081l.032.161a1.283,1.283,0,0,1-.389.157c-.542.024-1.085.028-1.628.022-.218,0-.281.075-.273.286.015.407,0,.815,0,1.25.544,0,1.009-.007,1.474,0,.22,0,.552-.033.561.245.009.294-.328.208-.524.215-.476.018-.953.006-1.484.006" transform="translate(-215.281 -144.271)" fill="#fff"/>
        </g>
        <g id="Group_151089" data-name="Group 151089" transform="translate(101.299)">
          <path id="Path_568" data-name="Path 568" d="M389.354,146.166c-.094-.118-.168-.205-.236-.3a.927.927,0,0,1,.722-1.564c.217.006.434,0,.652,0a.72.72,0,0,1,.752.549.9.9,0,0,1-.16,1.053,6.3,6.3,0,0,1-.791.51l1.065.981c.046-.23.073-.385.109-.539a1.747,1.747,0,0,1,.1-.338c.089-.193.256-.358.455-.236a.535.535,0,0,1,.143.464,3.225,3.225,0,0,1-.309.814.339.339,0,0,0,.085.477c.249.23.474.485.747.768-.494.1-.855.07-1.108-.316-.131-.2-.252-.2-.435-.018a2.281,2.281,0,0,1-2.362.186,1.33,1.33,0,0,1,.138-2.285c.13-.07.266-.129.434-.21m1.547,1.757c-.348-.386-.682-.768-1.033-1.133a.461.461,0,0,0-.317-.12,1.017,1.017,0,0,0-.752.682.939.939,0,0,0,.436.911,1.449,1.449,0,0,0,1.666-.34m-.709-3.212c-.46,0-.726.157-.73.428,0,.328.321.791.558.794.278,0,.756-.415.754-.66a.562.562,0,0,0-.582-.561" transform="translate(-388.197 -144.213)" fill="#fff"/>
          <path id="Path_569" data-name="Path 569" d="M422.592,145.288v3.477c-.526.087-.586.04-.584-.45,0-1.223.008-2.446.023-3.669,0-.13.071-.37.114-.371.242-.006.53-.165.716.128.242.384.477.773.719,1.159.446.714.9,1.426,1.4,2.117,0-.507,0-1.015,0-1.522,0-.531-.006-1.061-.019-1.591,0-.211.061-.323.291-.332a.277.277,0,0,1,.328.307c.009.292.007.584.008.877,0,.985.007,1.97,0,2.955,0,.138-.037.386-.088.395-.233.038-.5.12-.688-.132-.121-.166-.24-.335-.349-.509q-.815-1.308-1.625-2.62c-.05-.081-.108-.157-.162-.236l-.081.017" transform="translate(-413.185 -144.155)" fill="#fff"/>
          <path id="Path_575" data-name="Path 575" d="M440.521,146.568c0-.65.007-1.3,0-1.95,0-.221.061-.308.3-.3.4.017.806-.022,1.206.008a2.129,2.129,0,0,1,1.942,1.263,2.31,2.31,0,0,1-.207,2.406,2.436,2.436,0,0,1-1.928.856c-.345.03-.7,0-1.043.011-.211.007-.281-.064-.276-.281.014-.671.005-1.343.005-2.015h.009m.507,1.775c.333,0,.582.005.83,0a1.66,1.66,0,0,0,1.534-1.014,1.579,1.579,0,0,0-.279-1.89,2.38,2.38,0,0,0-1.9-.685c-.062,0-.177.148-.178.228-.012,1.1-.008,2.208-.008,3.361" transform="translate(-426.856 -144.222)" fill="#fff"/>
          <path id="Path_577" data-name="Path 577" d="M509.359,148.751a.519.519,0,0,1-.787-.142,13.342,13.342,0,0,1-.882-1.4.536.536,0,0,0-.557-.332c-.78.01-.679-.112-.66.662.009.357,0,.715-.011,1.072a.92.92,0,0,1-.1.27A2,2,0,0,1,506,148.7c-.043-.033-.037-.142-.037-.216q0-2.031.012-4.062a1.3,1.3,0,0,1,.028-.159c.821.112,1.675-.2,2.48.2a1.3,1.3,0,0,1-.1,2.254c-.3.141-.264.21-.083.447.377.5.694,1.037,1.054,1.587m-2.9-4.118c0,.586-.006,1.069.009,1.552,0,.054.121.148.188.15a10.765,10.765,0,0,0,1.105-.02.661.661,0,0,0,.694-.6c.054-.479-.074-.766-.517-.88a12.758,12.758,0,0,0-1.479-.2" transform="translate(-475.235 -144.172)" fill="#fff"/>
          <path id="Path_581" data-name="Path 581" d="M461.392,145.93c0,.465.016.931,0,1.4a1.379,1.379,0,0,1-1.162,1.4,2.774,2.774,0,0,1-1.573-.024,1.568,1.568,0,0,1-1.093-1.5c-.011-.909.017-1.818.024-2.726,0-.174.03-.287.251-.274.206.012.314.054.315.3,0,.865.012,1.731.049,2.6a1.083,1.083,0,0,0,1.232,1.186c.956.019,1.421-.472,1.439-1.547.013-.746,0-1.493.005-2.24,0-.145-.039-.333.2-.32.2.01.321.1.317.326-.008.476,0,.952,0,1.428h0" transform="translate(-439.458 -144.118)" fill="#fff"/>
          <path id="Path_585" data-name="Path 585" d="M477.326,143.955c.4.1.814.185,1.21.311.193.061.337.2.184.449s-.272.15-.446.041a1.75,1.75,0,0,0-1.368-.267c-.273.064-.5.235-.491.49a.84.84,0,0,0,.3.62,7.3,7.3,0,0,0,1.189.515,1.677,1.677,0,0,1,.879.781,1.222,1.222,0,0,1-.874,1.681,3.35,3.35,0,0,1-1.951-.174c-.049-.02-.121-.041-.136-.08a3.824,3.824,0,0,1-.114-.391,1.04,1.04,0,0,1,.387-.087,9.611,9.611,0,0,0,1.127.26,1.386,1.386,0,0,0,.787-.227.591.591,0,0,0-.007-1.01,5.481,5.481,0,0,0-.881-.406c-.159-.068-.331-.107-.487-.179-.87-.4-.82-.753-.763-1.585.02-.29.475-.621.82-.649.205-.016.413,0,.619,0Z" transform="translate(-452.87 -143.955)" fill="#fff"/>
          <path id="Path_592" data-name="Path 592" d="M523.212,144.339c-.434.7-.845,1.386-1.28,2.055a1.944,1.944,0,0,0-.342,1.222c.023.375,0,.752,0,1.12-.55.138-.654.093-.59-.4a3.519,3.519,0,0,0-.772-2.595c-.253-.35-.463-.731-.689-1.1-.054-.089-.094-.187-.14-.282.409-.188.559-.164.763.158.364.574.712,1.159,1.1,1.787a2.114,2.114,0,0,0,.186-.227c.306-.509.6-1.029.915-1.53.232-.365.4-.4.85-.2" transform="translate(-485.165 -144.154)" fill="#fff"/>
          <path id="Path_593" data-name="Path 593" d="M490.558,144.757c-.391,0-.747,0-1.1,0a.823.823,0,0,1-.319-.034.313.313,0,0,1-.152-.21c-.007-.043.1-.1.161-.157a.051.051,0,0,1,.032-.005c1.108,0,2.215,0,3.323.018.069,0,.137.123.2.188-.073.061-.142.168-.218.174a8.56,8.56,0,0,1-1.073.028c-.274-.014-.318.087-.313.337.02,1.168.021,2.337.018,3.506a.389.389,0,0,1-.126.3.339.339,0,0,1-.324-.027.6.6,0,0,1-.117-.376c0-1.137,0-2.273.006-3.41,0-.085,0-.17,0-.329" transform="translate(-462.684 -144.247)" fill="#fff"/>
          <path id="Path_594" data-name="Path 594" d="M415.344,148.782v-4.453c.467-.136.559-.076.561.373,0,1.222,0,2.443.006,3.665,0,.5-.037.529-.567.414" transform="translate(-408.26 -144.184)" fill="#fff"/>
        </g>
      </g>
      <g id="Group_151091" data-name="Group 151091" transform="translate(0.033)">
        <g id="Group_151081" data-name="Group 151081" transform="translate(92.742 0.001)">
          <path id="Path_599" data-name="Path 599" d="M401.511,92.949h2.65V88.98c.453,0,.874-.011,1.293.013.063,0,.168.173.168.266.009,1.527,0,3.054,0,4.581,0,.147,0,.3,0,.451h-1.109q-5.119,0-10.238,0c-.294,0-.375-.062-.373-.377.016-2.253.01-4.506,0-6.758,0-.3.079-.413.383-.377a3.573,3.573,0,0,0,.619,0c.244-.014.336.058.334.33-.013,1.83,0,3.661-.01,5.491,0,.261.056.356.337.353q2.086-.023,4.173,0c.3,0,.382-.113.38-.374,0-.39.019-.78.005-1.169a1.215,1.215,0,0,0-1.085-1.141,2.55,2.55,0,0,0-1.729.4l-.57-1.184a3.4,3.4,0,0,1,3.3-.446c1.245.612,1.727,1.814,1.471,3.908" transform="translate(-383.887 -86.572)" fill="#fff"/>
          <path id="Path_605" data-name="Path 605" d="M358.865,93.979c-.036-.425.17-.481.483-.455s.648.006.995.006v5.682c-.027.025-.043.052-.058.052-.857-.007-1.719.036-2.571-.037a2.45,2.45,0,0,1-2.184-2.46,2.783,2.783,0,0,1,2.808-2.787c.161-.007.322,0,.528,0m-.422,4.028c.46-.078.456-.078.454-.505,0-.615-.005-1.231,0-1.846,0-.173-.039-.289-.232-.249a4.592,4.592,0,0,0-1.088.263,1.137,1.137,0,0,0-.107,1.943,5.538,5.538,0,0,0,.971.394" transform="translate(-355.529 -91.558)" fill="#fff"/>
          <path id="Path_606" data-name="Path 606" d="M379.491,98.146c0,.974.061,1.953-.014,2.921-.112,1.456-1.316,1.725-2.4,1.5a.37.37,0,0,1-.213-.263c-.039-.3-.029-.6-.05-.907-.015-.214.087-.272.275-.236.764.145,1.033-.009,1.062-.987.046-1.526.031-3.055.021-4.582,0-.3.09-.38.372-.352a4.378,4.378,0,0,0,.717,0c.19-.012.237.052.235.24-.011.888,0,1.776,0,2.665h0" transform="translate(-371.261 -92.828)" fill="#fff"/>
          <path id="Path_610" data-name="Path 610" d="M410.281,118.933c-.587,0-.852-.212-.848-.692a.787.787,0,0,1,.82-.782.853.853,0,0,1,.874.778c0,.487-.252.694-.846.7" transform="translate(-395.367 -109.25)" fill="#fff"/>
          <path id="Path_615" data-name="Path 615" d="M429.543,88.632c-.517,0-.8-.237-.808-.674a.743.743,0,0,1,.808-.773.761.761,0,0,1,.811.771c-.007.43-.3.677-.81.677" transform="translate(-409.632 -86.876)" fill="#fff"/>
          <path id="Path_616" data-name="Path 616" d="M437.316,88.665c-.549.01-.849-.239-.851-.7a.75.75,0,0,1,.831-.722.729.729,0,0,1,.781.755c0,.441-.247.662-.762.671" transform="translate(-415.345 -86.916)" fill="#fff"/>
          <path id="Path_618" data-name="Path 618" d="M369.142,86.777a.686.686,0,0,1-.72.647c-.514-.092-.881-.225-.87-.689.012-.5.247-.722.789-.723.582,0,.8.209.8.765" transform="translate(-364.415 -86.01)" fill="#fff"/>
          <path id="Path_622" data-name="Path 622" d="M361.5,86.74a.759.759,0,0,1-.855.684.805.805,0,0,1-.7-.724c.024-.515.266-.714.846-.7.543.018.721.2.705.736" transform="translate(-358.791 -86.003)" fill="#fff"/>
        </g>
        <g id="Group_151082" data-name="Group 151082" transform="translate(57.55 0.002)">
          <path id="Path_597" data-name="Path 597" d="M268.34,94.372V86.915H269.7c0,.531,0,1.039,0,1.547,0,1.43,0,2.86-.008,4.289,0,.244.062.321.308.312.521-.019,1.044-.026,1.565,0,.249.011.3-.081.3-.3-.009-1.127,0-2.253-.02-3.38,0-.228.053-.315.287-.3.282.018.565.018.847.012.176,0,.216.066.214.234-.006,1.159,0,2.318,0,3.477,0,.183.038.257.228.251.38-.011.761-.011,1.141-.011.178,0,.239-.07.237-.257-.013-1.137-.005-2.274-.022-3.411,0-.227.05-.309.285-.3.378.017.758,0,1.156,0,0,0,.024.01.027.027.1.469.095.477.594.477.728,0,1.456-.018,2.184-.017a3.531,3.531,0,0,1,.745.057,1.984,1.984,0,0,1,1.773,1.915,25.477,25.477,0,0,1,.031,2.691c0,.055-.114.147-.183.155a4.955,4.955,0,0,1-.553,0H268.536c-.052,0-.1-.011-.2-.022m9.869-1.322v.009h1.041c.877,0,.877,0,.863-.882-.013-.818-.365-1.181-1.193-1.194-.791-.013-1.583.007-2.374,0-.244,0-.287.093-.279.309.017.5.025.994.005,1.49-.009.231.082.277.278.275.553-.005,1.106,0,1.659,0" transform="translate(-255.901 -86.679)" fill="#fff"/>
          <path id="Path_600" data-name="Path 600" d="M231.612,97.917c0,.417.012.784-.011,1.15,0,.069-.144.18-.227.185-.292.021-.586,0-.88,0-2.294,0-4.588,0-6.882.013a3.382,3.382,0,0,1-1.885-.509,2.6,2.6,0,0,1-.284-3.939,3.6,3.6,0,0,1,2.23-.861c.207-.006.357-.028.375-.286,0-.063.138-.165.216-.168.4-.017.8-.008,1.257-.008v4.4h1.527a2.778,2.778,0,0,1,.973-3.805,3.459,3.459,0,0,1,3.412.251l-.405,1.23c-.371-.109-.744-.251-1.13-.325a1.365,1.365,0,0,0-1.689,1.741,2.283,2.283,0,0,0,.1.308c.214.575.264.616.865.62.791.005,1.583,0,2.436,0m-7.572-2.567a6.662,6.662,0,0,0-.922.118,1.26,1.26,0,0,0-.928,1.547,1.527,1.527,0,0,0,1.7.883.271.271,0,0,0,.145-.206c.01-.754.007-1.508.007-2.341" transform="translate(-220.671 -91.539)" fill="#fff"/>
          <path id="Path_603" data-name="Path 603" d="M323.461,102.43c-.034-.493-.066-.964-.1-1.473a2.757,2.757,0,0,0,2.182.081c.124-.065.2-.228.293-.346l-.043-.1c-.188-.01-.377-.025-.565-.029a2.866,2.866,0,0,1-2.129-.89,2.554,2.554,0,0,1,.094-3.5,3.315,3.315,0,0,1,2.265-.925c.521-.017,1.043.007,1.564,0,.195,0,.237.075.238.251.007,1.646.041,3.291.018,4.937a3.743,3.743,0,0,1-.3,1.214,1.367,1.367,0,0,1-.933.8,4.017,4.017,0,0,1-2.248.059l-.333-.082m2.391-5.772a7.381,7.381,0,0,0-.89.094,1.291,1.291,0,0,0-1,1.112A1.1,1.1,0,0,0,324.8,99.1a3.025,3.025,0,0,0,.863.1c.06,0,.179-.127.18-.2.013-.755.008-1.511.008-2.338" transform="translate(-295.892 -92.839)" fill="#fff"/>
          <path id="Path_609" data-name="Path 609" d="M281.185,87.728A.7.7,0,0,1,282,87c.484.021.9.4.817.817-.1.531-.237.7-.943.669-.535-.023-.72-.234-.692-.755" transform="translate(-265.392 -86.738)" fill="#fff"/>
          <path id="Path_620" data-name="Path 620" d="M234.312,86.77a.68.68,0,0,1-.7.671.837.837,0,0,1-.895-.7c-.013-.436.283-.71.773-.717.585-.008.81.2.821.746" transform="translate(-229.574 -86.019)" fill="#fff"/>
          <path id="Path_623" data-name="Path 623" d="M225.248,86.71c0-.526.2-.7.784-.7.53,0,.749.213.744.715a.692.692,0,0,1-.748.7.745.745,0,0,1-.781-.717" transform="translate(-224.053 -86.009)" fill="#fff"/>
        </g>
        <g id="Group_151080" data-name="Group 151080" transform="translate(118.381 0.001)">
          <path id="Path_598" data-name="Path 598" d="M458.6,93.513V97.9h1.637a13.292,13.292,0,0,1-.183-1.351,2.245,2.245,0,0,1,1.623-2.327,4.756,4.756,0,0,1,1.237-.241c.475-.042.956-.019,1.434-.021.44,0,.456,0,.46.453.01,1.213.005,2.427,0,3.64,0,.3-.029.609,0,.909.022.266-.064.33-.323.327-1.587-.016-3.174-.017-4.762-.019-1.076,0-2.153.01-3.229.009a2.691,2.691,0,0,1-2.071-.864,2.267,2.267,0,0,1-.594-2.064,2.739,2.739,0,0,1,2.894-2.378c.23-.008.511.063.478-.334,0-.036.122-.117.189-.12.389-.011.778-.005,1.209-.005m4.813,3.155h-.034c0-.347,0-.693,0-1.04,0-.157-.04-.253-.219-.236a6.1,6.1,0,0,0-.776.073,1.316,1.316,0,0,0-.947,1.286c.1.789.5,1.18,1.206,1.183.163,0,.327-.017.489,0,.227.021.283-.092.28-.289-.006-.325,0-.65,0-.975m-6.208-.02H457.2c0-.334.015-.67-.009-1-.007-.088-.125-.235-.2-.242a1.815,1.815,0,0,0-1.233.31,1.168,1.168,0,0,0-.467,1.3,1.568,1.568,0,0,0,1.762.894c.062-.007.152-.146.156-.228.017-.344.007-.69.007-1.036" transform="translate(-453.782 -91.552)" fill="#fff"/>
          <path id="Path_601" data-name="Path 601" d="M498.478,100.6c.235.011.473.021.711.034a.381.381,0,0,0,.443-.3,4.359,4.359,0,0,0,.112-.861q.015-2.242,0-4.484c0-.291.1-.388.383-.348a2.477,2.477,0,0,0,.618.015c.336-.039.418.132.41.416-.008.3-.007.606-.007.91,0,.791.007,1.582,0,2.372,0,.206.044.292.268.284.443-.015.887,0,1.378,0-.075-.259-.13-.5-.21-.723a2.651,2.651,0,0,1,2.846-3.436,4.631,4.631,0,0,1,1.777.561l-.42,1.252c-.368-.109-.732-.249-1.108-.323A1.376,1.376,0,0,0,504,97.813c.024.083.053.165.084.245.209.53.264.572.833.576.728,0,1.456.005,2.184,0,.192,0,.281.046.272.252a5.029,5.029,0,0,0,.01.779c.031.274-.08.331-.329.329-1.62-.013-3.239-.014-4.858-.017-.25,0-.5.011-.75,0-.195,0-.313.047-.3.271a2.043,2.043,0,0,1-.042.321c-.172,1.475-1.481,1.636-2.433,1.411a.308.308,0,0,1-.184-.222c-.019-.375-.009-.752-.009-1.161" transform="translate(-486.812 -92.258)" fill="#fff"/>
          <path id="Path_612" data-name="Path 612" d="M485.793,88.491a.831.831,0,0,1-.852-.719.817.817,0,0,1,.835-.776.751.751,0,0,1,.84.772c-.011.559-.2.726-.823.723" transform="translate(-476.809 -86.737)" fill="#fff"/>
          <path id="Path_614" data-name="Path 614" d="M521.1,87.865c-.527,0-.816-.245-.821-.7a.774.774,0,0,1,.8-.756.8.8,0,0,1,.852.756c.009.492-.237.7-.835.7" transform="translate(-502.924 -86.304)" fill="#fff"/>
          <path id="Path_621" data-name="Path 621" d="M467.621,86.781c.01.384-.271.6-.8.617a.681.681,0,0,1-.737-.624c-.012-.543.195-.762.725-.77.618-.01.793.158.809.777" transform="translate(-462.875 -86.003)" fill="#fff"/>
          <path id="Path_624" data-name="Path 624" d="M459.036,86.009c.561.01.774.207.777.721a.662.662,0,0,1-.724.658c-.6-.015-.834-.233-.818-.754.013-.43.261-.633.765-.624" transform="translate(-457.099 -86.008)" fill="#fff"/>
        </g>
        <g id="Group_151083" data-name="Group 151083" transform="translate(18.011)">
          <path id="Path_595" data-name="Path 595" d="M82.224,92.99h1.821c-.069-.345-.162-.693-.207-1.048a2.484,2.484,0,0,1,2.3-2.816,15.466,15.466,0,0,1,2.179-.052c.083,0,.208.127.239.22a1.474,1.474,0,0,1,.03.451c0,1.408-.011,2.816.011,4.224.005.33-.1.4-.4.4q-7.369-.011-14.737-.006c-.554,0-1.109.017-1.663,0a2.582,2.582,0,0,1-2.606-3.133,2.845,2.845,0,0,1,2.364-2.115,2.625,2.625,0,0,1,.583-.054c.312.021.485-.072.436-.444.416,0,.813-.008,1.21.009.06,0,.156.12.163.191a6.482,6.482,0,0,1,.016.68c0,1.094,0,2.188,0,3.282,0,.152.015.251.2.248.422-.007.844,0,1.292,0V86.87c.457,0,.9-.009,1.335.013.048,0,.122.178.124.274.012.725.007,1.451.01,2.177,0,.062.012.125.02.2.7,0,1.4-.006,2.088,0a7.8,7.8,0,0,1,1.362.057,2.03,2.03,0,0,1,1.829,2.167c.016.4,0,.795,0,1.226m-5.284.024c1.243,0,2.466,0,3.688-.009.055,0,.15-.139.156-.218.019-.269.01-.54.006-.81a.879.879,0,0,0-.888-.99c-.98-.044-1.965-.012-2.962-.012Zm10.228-2.461a1.5,1.5,0,0,0-1.759.607,1.282,1.282,0,0,0,.157,1.533c.441.589,1.051.211,1.6.331Zm-14.6-.019a1.88,1.88,0,0,0-1.483.3,1.139,1.139,0,0,0-.373,1.446A1.7,1.7,0,0,0,72.434,93a.276.276,0,0,0,.129-.215c.01-.736.006-1.472.006-2.248" transform="translate(-69.149 -86.642)" fill="#fff"/>
          <path id="Path_596" data-name="Path 596" d="M153.045,90.674l-.663-1.207a3.329,3.329,0,0,1,3.28-.437c1.651.79,1.867,2.245,1.544,3.9h1.635v-.708a2.785,2.785,0,0,1,3.423-2.659,2.928,2.928,0,0,1,2.266,3.333,2.765,2.765,0,0,1-2.605,2.273,2.4,2.4,0,0,1-1.854-.43,2.152,2.152,0,0,0-1.692-.443q-4.289,0-8.578,0c-.209,0-.282-.04-.281-.265q.01-3.462-.007-6.923c0-.267.086-.344.337-.327.271.019.544.016.815.01.21,0,.273.075.272.291-.008,1.853,0,3.705-.008,5.558,0,.272.086.323.333.32q2.1-.017,4.208,0c.224,0,.288-.073.335-.278a2.907,2.907,0,0,0,0-1.508,1.457,1.457,0,0,0-1.634-.928,2.93,2.93,0,0,0-.565.148,6.017,6.017,0,0,0-.556.279m7.235,1.705a1.469,1.469,0,0,0,1.28,1.471,1.566,1.566,0,0,0,1.526-1.479,1.423,1.423,0,0,0-1.413-1.437,1.386,1.386,0,0,0-1.393,1.445" transform="translate(-128.541 -86.576)" fill="#fff"/>
          <path id="Path_608" data-name="Path 608" d="M133.549,88.494a.81.81,0,0,1-.858-.745.786.786,0,0,1,.822-.749.83.83,0,0,1,.891.758c-.006.516-.26.735-.854.737" transform="translate(-116.11 -86.739)" fill="#fff"/>
          <path id="Path_611" data-name="Path 611" d="M104.636,89.341c-.009.513-.27.735-.842.719a.839.839,0,0,1-.8-.755.849.849,0,0,1,.878-.778c.543.012.773.258.764.814" transform="translate(-94.163 -87.867)" fill="#fff"/>
          <path id="Path_619" data-name="Path 619" d="M73.762,86.7c0-.531.19-.7.774-.7.542,0,.789.225.786.719a.814.814,0,0,1-.776.712.756.756,0,0,1-.785-.729" transform="translate(-72.558 -86.001)" fill="#fff"/>
          <path id="Path_625" data-name="Path 625" d="M82.944,86.8a.6.6,0,0,1-.689.611c-.518-.046-.853-.18-.834-.56.03-.6.18-.81.706-.815.627-.006.817.171.818.764" transform="translate(-78.217 -86.028)" fill="#fff"/>
        </g>
        <g id="Group_151084" data-name="Group 151084" transform="translate(0 0)">
          <path id="Path_602" data-name="Path 602" d="M30.247,98.663c0,.416-.006.772,0,1.129.005.22-.14.206-.284.206l-2.838,0c-.924,0-1.848,0-2.772-.009-.251,0-.362.066-.385.343a3.028,3.028,0,0,1-.218.941,1.728,1.728,0,0,1-1.844.806c-.557-.053-.555-.075-.571-.642-.007-.249-.009-.5-.012-.746,0-.009.011-.017.018-.028.234,0,.469-.012.7,0a.417.417,0,0,0,.486-.334,3.212,3.212,0,0,0,.1-.734c0-1.528,0-3.055-.016-4.583,0-.273.069-.371.345-.339a3,3,0,0,0,.651.008c.315-.033.4.116.392.395q-.013,1.349-.005,2.7c0,.287-.068.668.084.831.134.143.531.044.813.048.247,0,.495,0,.768,0-.108-.365-.229-.7-.305-1.045a2.638,2.638,0,0,1,3.009-3.088,12.238,12.238,0,0,1,1.74.474L29.635,96.3c-.394-.11-.774-.24-1.165-.32a1.362,1.362,0,0,0-1.643,1.731,1.692,1.692,0,0,0,.075.248c.236.64.307.693.986.7.663.005,1.327,0,1.99.005h.37" transform="translate(-15.794 -92.279)" fill="#fff"/>
          <path id="Path_604" data-name="Path 604" d="M4.942,93.538c0,.4,0,.747,0,1.092.008,1.484.02,2.968.018,4.452,0,.072-.124.207-.19.207-.847,0-1.7.023-2.54-.055A2.371,2.371,0,0,1,.176,97.329c-.3-2.035.8-3.069,2.692-3.331a1.409,1.409,0,0,0,.323-.02c.093-.039.223-.138.227-.216.009-.178.078-.226.237-.225.411,0,.823,0,1.287,0M3.431,95.405a4.966,4.966,0,0,0-.878.085,1.21,1.21,0,0,0-.937.9,1.117,1.117,0,0,0,.373,1.2,1.579,1.579,0,0,0,1.248.34.278.278,0,0,0,.186-.192c.013-.755.008-1.511.008-2.333" transform="translate(-0.128 -91.571)" fill="#fff"/>
          <path id="Path_607" data-name="Path 607" d="M26.372,88.488a.815.815,0,0,1-.874-.747A.833.833,0,0,1,26.367,87c.493,0,.915.346.866.766-.061.524-.214.732-.861.726" transform="translate(-18.878 -86.737)" fill="#fff"/>
          <path id="Path_613" data-name="Path 613" d="M44.074,87.863c-.565,0-.829-.225-.827-.717a.751.751,0,0,1,.78-.739.816.816,0,0,1,.872.741c.014.494-.236.71-.825.714" transform="translate(-31.995 -86.302)" fill="#fff"/>
          <path id="Path_617" data-name="Path 617" d="M12.875,86c.551,0,.794.264.783.842,0,.261-.409.58-.746.587a.827.827,0,0,1-.865-.772c0-.429.3-.659.829-.657" transform="translate(-8.937 -86.002)" fill="#fff"/>
          <path id="Path_626" data-name="Path 626" d="M5.991,86.732a.71.71,0,0,1-.761.7.74.74,0,0,1-.8-.681c0-.5.244-.717.788-.71.48.006.77.265.769.689" transform="translate(-3.31 -86.032)" fill="#fff"/>
        </g>
      </g>
    </g>
    <g id="Mask_Group_2" data-name="Mask Group 2" transform="translate(69.493 -164.584)" clip-path="url(#clip-path)">
      <g id="Group_151079" data-name="Group 151079" transform="translate(0.744 -0.9)">
        <path id="Path_627" data-name="Path 627" d="M644.756,121.22l-.729,5.675-3.652-.674c-.211.96-.389,1.8-.582,2.639-.106.462-.093.772.493.935a17.109,17.109,0,0,1,2.3.9c.153.068.351.395.3.5-.7,1.486-1.437,2.955-2.206,4.508-.763-.352-1.5-.7-2.246-1.036-.864-.392-.874-.393-1.327.45-.293.546-.853,1.169-.751,1.641.1.45.9.751,1.391,1.112.468.341.943.675,1.453,1.04l-3.167,3.778c-.243.291-.481.207-.73,0-.595-.481-1.206-.942-1.787-1.44a.583.583,0,0,0-.93.066c-.541.569-1.117,1.106-1.627,1.7a.741.741,0,0,0-.024.673,23.122,23.122,0,0,0,1.3,2.1c.287.411.337.643-.163.931-1.133.653-2.243,1.347-3.334,2.067-.518.342-.828.224-1.123-.263-.415-.684-.856-1.352-1.334-2.1-1,.514-1.988,1-2.943,1.544-.122.069-.141.468-.081.677.266.919.579,1.825.884,2.765l-5.327,1.607c-.184-.807-.345-1.582-.54-2.348-.185-.728-.3-.8-1.005-.654-.73.148-1.451.335-2.181.483a.512.512,0,0,0-.477.625c.063.862.114,1.724.131,2.587,0,.152-.181.441-.282.443-1.688.028-3.378.02-5.12.02,0-.94-.037-1.818.015-2.691.029-.482-.075-.7-.585-.736-.985-.065-1.966-.2-2.952-.241a.765.765,0,0,0-.589.413,20.785,20.785,0,0,0-.549,2.218c-.083.41-.218.6-.685.485a26.4,26.4,0,0,1-4.777-1.62c.306-.885.583-1.717.882-2.541.119-.327.065-.5-.286-.636-1.14-.454-2.27-.934-3.391-1.431a.484.484,0,0,0-.7.215c-.429.656-.875,1.3-1.3,1.956-.2.311-.431.488-.789.229q-1.932-1.4-3.86-2.8a.823.823,0,0,1-.158-.2l1.939-2.484c-.851-.714-1.627-1.41-2.461-2.028a.948.948,0,0,0-.849.05,16.584,16.584,0,0,0-1.574,1.218.708.708,0,0,1-1.172-.132c-.9-1.206-1.814-2.4-2.767-3.661l2.592-2.056c-.367-.567-.737-1.178-1.146-1.762-.808-1.156-.818-1.15-2.183-.712-.479.154-.963.293-1.433.471a.405.405,0,0,1-.611-.265c-.512-1.307-1.019-2.617-1.551-3.917-.154-.378-.089-.617.292-.76.714-.267,1.419-.571,2.15-.78.385-.109.495-.239.4-.619-.284-1.121-.545-2.247-.824-3.413l-3.4,1.041c-.176-1.969-.344-3.841-.517-5.78h7.6c.069.446.16.932.217,1.422a29.274,29.274,0,0,0,4.271,11.992,23.147,23.147,0,0,0,15.53,11.043,26.709,26.709,0,0,0,13.757-.416c7.379-2.381,13.094-6.838,16.415-13.972a23.774,23.774,0,0,0,2.217-9.5c.013-.5.154-.631.657-.622,2.4.042,4.8.038,7.2.051.116,0,.231.013.4.022" transform="translate(-566.45 -62.507)" fill="#fff"/>
        <path id="Subtraction_2" data-name="Subtraction 2" d="M0,22.773C.587,20.78,1.021,18.726,1.789,16.8c2.7-6.742,7.642-11.178,14.448-13.64a24.416,24.416,0,0,1,5.531-1.2c.589-.068,1.01-.156,1.09-.9A1.227,1.227,0,0,1,24.3.013a1.176,1.176,0,0,1,1.055,1.31c-.019.452.139.577.574.621A23.861,23.861,0,0,1,45.04,14.327a21.084,21.084,0,0,1,2.726,8.051c.049.4-.022.561-.44.553-.624-.013-1.25.008-1.875.009l-43.622.031H0M31.671,6.359c-.052.2-3.593,6.214-5.358,9.159-.831,1.388-.8,1.647.489,2.649a8.765,8.765,0,0,0,7.828,1.538,6.691,6.691,0,0,0,3.6-2.193,1.182,1.182,0,0,0,.281-.824,2.691,2.691,0,0,0-.454-.971c-1.841-2.943-3.655-5.9-5.567-8.8a6.819,6.819,0,0,0-2.01-1.958,11.447,11.447,0,0,0-10.15-1.472,9.245,9.245,0,0,0-5.479,4.049c-.773,1.338-1.623,2.632-2.419,3.957-.921,1.531-1.852,3.057-2.72,4.618-.49.88-.4,1.08.342,1.8.072.07.148.136.224.2a8.24,8.24,0,0,0,6.61,1.833,7.738,7.738,0,0,0,5.05-2.568.747.747,0,0,0,.1-1.057c-1.775-2.8-3.516-5.613-5.261-8.429-.291-.471-.546-.965-.865-1.531ZM24.038,1.821c.324,0,.633.019.6-.443-.025-.384-.142-.63-.592-.645s-.526.237-.541.593c-.017.392.53.495.53.495" transform="translate(20.206 32.814)" fill="#fff"/>
        <path id="Path_629" data-name="Path 629" d="M579.966,46.826c0-.578.014-1.158-.018-1.734,0-.073-.249-.14-.387-.2a14.107,14.107,0,0,1-1.925-.8,2.324,2.324,0,0,1-1.138-2.128q.026-20.468.038-40.937c0-.326.038-.652.058-.978L576.828,0a2.226,2.226,0,0,1,.294.739q.008,15.042-.017,30.084c0,3.275-.009,6.551.005,9.827,0,.189.173.378.265.566.09-.173.258-.346.259-.519q.029-9.644.029-19.288,0-9.1,0-18.208c0-.823-.024-1.647-.007-2.47a1.627,1.627,0,0,1,.212-.524c.1.175.29.349.29.524,0,3.174-.037,6.348-.037,9.523q0,14.315.017,28.63c0,.763-.041,1.527-.034,2.29,0,.324-.006.7.527.819a4.57,4.57,0,0,0,.06-.518q-.015-20.168-.033-40.335A2.354,2.354,0,0,1,578.7.484c.04-.137.2-.239.311-.357.118.118.3.217.339.358a2.634,2.634,0,0,1,.047.717q0,19.353-.006,38.706,0,1.206.029,2.411a1.675,1.675,0,0,0,.124.582.363.363,0,0,0,.283.14c.053,0,.145-.13.158-.211a3.422,3.422,0,0,0,.022-.541q.01-18.751.018-37.5c0-1.386-.015-2.774,0-4.16a1.61,1.61,0,0,1,.227-.541c.106.18.3.359.3.539.014,2.892,0,5.784,0,8.675q-.017,16.387-.031,32.773a2.946,2.946,0,0,0,.023.66c.029.123.182.218.279.325.108-.1.251-.182.313-.3a.963.963,0,0,0,.039-.414q-.03-12.509-.064-25.016-.019-7.958-.022-15.916c0-.43.041-.861.066-1.364.653.226.637.685.636,1.112,0,1.507-.032,3.014-.032,4.521q0,17.063,0,34.125v2.233c.529-.044.651-.367.67-.744.027-.561.031-1.124.031-1.687q0-18.538-.005-37.075c0-.6-.05-1.205-.04-1.807a1.682,1.682,0,0,1,.2-.53c.1.174.3.349.294.522-.014,3.5-.071,6.992-.076,10.488q-.02,13.505,0,27.011c0,.823.016,1.649.078,2.469.012.161.269.3.412.455.09-.164.258-.327.258-.491q.01-17.063-.008-34.125c0-1.808-.052-3.617-.053-5.426a4.107,4.107,0,0,1,.215-.924,3.367,3.367,0,0,1,.246.875q.015,18.57.006,37.141c0,1.123.029,2.247.027,3.37a3.044,3.044,0,0,1-2.8,3.3c-.509.077-.649.259-.607.726.035.379.012.762.024,1.144,0,.051.056.1.186.318.45-1.537,1.947-1.422,2.941-2.089a2.417,2.417,0,0,1-.754,2.89,6.466,6.466,0,0,1-1.943.733c-.361.088-.468.184-.451.532.025.514.006,1.031.006,1.546l.154.1c.475-.391.926-.815,1.431-1.163s1.066-.621,1.6-.925c.427,1.089-.2,3.228-1.664,3.562a6.991,6.991,0,0,1-1,.212c-.49.038-.6.281-.541.721a10.264,10.264,0,0,1,.008,1.153c.322-.2.6-.274.7-.448.575-1.015,1.64-1.132,2.581-1.505.29,1.485-.686,3.356-2.02,3.489a17.622,17.622,0,0,1-3.066.02,2.061,2.061,0,0,1-1.819-1.477,9.967,9.967,0,0,1-.482-2.014c.875.364,1.86.362,2.493,1.177a4.191,4.191,0,0,0,.806.638c.065-.327.132-.654.193-.982.109-.581-.2-.767-.728-.835-1.707-.219-2.253-.737-2.594-2.422-.082-.406-.107-.822-.158-1.234l.144-.135c.758.5,1.519.989,2.275,1.488.292.192.575.4.861.594.074-.353.158-.7.216-1.059.026-.156-.014-.322,0-.482.035-.348-.086-.486-.461-.526-2.161-.228-3.075-1.319-3.016-3.686,1.151.579,2.556.574,3.144,2.03l.28-.118" transform="translate(-566.449)" fill="#fff"/>
        <path id="Path_630" data-name="Path 630" d="M708.142.249a2.213,2.213,0,0,1,.135.537c-.025,4.24-.082,8.479-.088,12.719q-.018,12.753.009,25.5a11.644,11.644,0,0,0,.088,1.623c.031.224.245.423.376.633a2.3,2.3,0,0,0,.223-.667q.031-4.793.029-9.586.006-12.9,0-25.806c0-1.366-.043-2.732-.064-4.1a1.984,1.984,0,0,1,.024-.6c.043-.138.205-.24.314-.358.127.122.347.234.363.37a10.9,10.9,0,0,1,.02,1.264q0,18.842,0,37.684c0,.8-.006,1.607-.039,2.41a3.046,3.046,0,0,1-2.391,2.889c-1.4.263-1.121.455-1.157,1.509-.006.174.018.349.037.663a11.942,11.942,0,0,1,1.515-1.223,11.7,11.7,0,0,1,1.761-.674,2.721,2.721,0,0,1-2.207,3.494c-1.211.3-1.268.38-1.087,1.648.023.16.118.386.239.434s.34-.056.473-.152c.833-.61,1.655-1.236,2.515-1.883a3.042,3.042,0,0,1-1.316,3.561,4.588,4.588,0,0,1-1.171.265c-.576.075-.875.319-.769.944a7.041,7.041,0,0,1,.007.978c.359-.2.706-.272.841-.483a2.619,2.619,0,0,1,1.7-1.136,5.13,5.13,0,0,0,.88-.4c.062,1.934-.844,3.715-2.935,3.7-.585-.006-1.171.018-1.754-.017a2.447,2.447,0,0,1-2.407-1.765,8.5,8.5,0,0,1-.345-1.826c.917.492,2.07.424,2.666,1.429.117.2.4.3.751.536,0-.636.025-1.072-.016-1.5a.581.581,0,0,0-.323-.359,2.147,2.147,0,0,0-.59-.107,2.425,2.425,0,0,1-2.3-2.108c-.1-.516-.127-1.047-.188-1.572l.165-.1,3,2.026a2.892,2.892,0,0,0,.206-1.779c-.1-.117-.313-.142-.479-.2a11.73,11.73,0,0,1-1.529-.525,2.733,2.733,0,0,1-1.253-3.075,13.033,13.033,0,0,1,1.789.653,12.923,12.923,0,0,1,1.578,1.191c0-.669.024-1.144-.016-1.615-.01-.121-.2-.267-.339-.328a4.656,4.656,0,0,0-.588-.119c-1.873-.524-2.54-1.411-2.54-3.408q0-12,.008-24,.006-8.441.021-16.882c0-.148.028-.3.043-.444l.221-.043a4.2,4.2,0,0,1,.2.879c.02,1.949.016,3.9.016,5.848q0,16.008-.008,32.016v2.469c.542.027.564-.307.572-.594.024-.8.024-1.607.024-2.411q.007-17.363.005-34.726c0-.922-.095-1.844-.1-2.766,0-.2.214-.4.33-.6.126.215.358.43.36.646.007,1.063-.076,2.127-.076,3.19q-.009,17.727,0,35.453a19.539,19.539,0,0,0,.076,1.986c.017.173.272.321.418.481.1-.167.287-.333.288-.5q.027-9.013.021-18.026,0-11.034,0-22.067a7.172,7.172,0,0,1-.042-.778c.015-.13.176-.243.271-.365.084.113.236.224.239.339.009.44-.047.882-.047,1.324q-.006,13.777,0,27.554,0,6.421-.006,12.843a.946.946,0,0,0,.01.358,2.74,2.74,0,0,0,.294.435c.116-.151.32-.3.333-.456.051-.68.058-1.365.057-2.047q0-15.373-.015-30.746c0-2.912-.064-5.825-.1-8.737a1.51,1.51,0,0,1,.025-.537c.056-.145.222-.247.34-.369.118.13.335.259.337.391.013.843-.038,1.687-.038,2.531q-.007,13.2,0,26.4c0,4.059-.021,8.117-.032,12.176a8.488,8.488,0,0,0,.015,1.024c.016.138.175.258.27.387.131-.12.353-.225.375-.362a9.847,9.847,0,0,0,.119-1.5q.021-6.752.022-13.506,0-12.119,0-24.238c0-1.06,0-2.12,0-3.238.312-.089.47.008.469.473q-.046,20.29-.056,40.579c0,.2.2.391.306.587.15-.226.431-.452.432-.678,0-6.812-.027-13.623-.039-20.435q-.018-9.827-.013-19.655V.3l.249-.048" transform="translate(-631.183 -0.041)" fill="#fff"/>
        <path id="Path_631" data-name="Path 631" d="M599.233,121.862h.687c3.346,0,6.692.015,10.038-.013.622-.005.8.194.785.793-.038,1.3-.012,2.6-.012,4.01-.933,0-1.813.017-2.69-.022-.112,0-.29-.3-.3-.465-.094-1.146-.083-1.157-1.26-1.168-1.089-.009-2.177.01-3.265.009-.356,0-.514.113-.441.506a19.881,19.881,0,0,0,4.347,9.272c.126.151.267.29.533.577v-4.34c-.427-.021-.9-.078-1.378-.058-.349.015-.488-.113-.493-.433-.008-.482-.036-.966,0-1.444a.5.5,0,0,1,.349-.343c1.389-.025,2.78-.03,4.168,0a.613.613,0,0,1,.408.431c.053.578.03,1.163.03,1.746q0,4.489,0,8.979v.964a8.8,8.8,0,0,1-1.022-.257,9.848,9.848,0,0,1-3.8-2.807,27.062,27.062,0,0,1-6.471-13.568c-.128-.747-.134-1.515-.2-2.371" transform="translate(-578.18 -62.869)" fill="#fff"/>
        <path id="Path_632" data-name="Path 632" d="M630.771,131.783q0-5.061,0-10.122c0-.3.078-.432.408-.432,2,0,3.99-.012,5.986-.028.331,0,.471.113.462.459-.02.823-.025,1.647-.006,2.471.009.357-.135.445-.465.439-.867-.016-1.734.007-2.6,0-.38-.005-.546.128-.544.526q.044,7.351.06,14.7c0,.5.165.662.643.7a20.64,20.64,0,0,1,2.211.316.634.634,0,0,1,.416.426c.048.639.024,1.284.02,1.926,0,.367-.153.511-.562.5a24.933,24.933,0,0,1-5.84-1.194c-.135-.038-.27-.367-.271-.561" transform="translate(-594.403 -62.535)" fill="#fff"/>
        <path id="Path_633" data-name="Path 633" d="M656.572,140.326c.795-.217,1.49-.4,2.18-.6.437-.126.636-.046.6.471-.048.639.01,1.287-.034,1.927-.013.185-.194.481-.345.515-1.805.4-3.62.764-5.432,1.134a1.5,1.5,0,0,1-.263,0c-.01-.211-.026-.408-.026-.606,0-6.953.007-13.906-.017-20.86,0-.611.159-.8.765-.787,1.794.032,3.589.018,5.384.01.34,0,.526.073.518.465-.014.723,0,1.447.024,2.169.016.4-.106.575-.539.578-.786.006-1.57.085-2.356.1-.394.008-.507.149-.5.543.027,4.722.036,9.444.049,14.165,0,.233,0,.467,0,.772" transform="translate(-606.042 -62.701)" fill="#fff"/>
        <path id="Path_634" data-name="Path 634" d="M677.541,124.539V130.4l3.473-.181c-.464,2.281-5.225,8.044-7.941,9.614,0-.433-.01-.8,0-1.158.022-.682.111-1.366.069-2.042a1.14,1.14,0,0,1,.619-1.237,1,1,0,0,0,.542-1.036q-.014-4.759.006-9.519c0-.357-.147-.468-.459-.469h-.645v-3.058c.861,0,1.719,0,2.578,0,.887,0,1.773.026,2.66.009.406-.008.522.152.506.535-.031.721-.009,1.444-.045,2.164a.486.486,0,0,1-.292.342,9.182,9.182,0,0,1-1.072.174" transform="translate(-616.277 -62.593)" fill="#fff"/>
        <path id="Path_636" data-name="Path 636" d="M626.216,159.777c-1.248-.324-1.413-.526-1.415-1.56,0-.634,0-1.267,0-1.917.947.153,1.406.654,1.414,1.447.007.651,0,1.3,0,2.029" transform="translate(-591.19 -81.085)" fill="#fff"/>
        <path id="Path_637" data-name="Path 637" d="M646.76,163.217c0-.22,0-.44,0-.66.02-.771.361-1.012,1.066-.726a.49.49,0,0,1,.236.358c.043.638.062,1.278.067,1.918s-.521.392-.843.465c-.364.083-.524-.111-.531-.455-.006-.3,0-.6,0-.9Z" transform="translate(-602.699 -83.438)" fill="#fff"/>
        <path id="Path_642" data-name="Path 642" d="M570.656,163.789c.817-.632,1.592-1.231,2.367-1.832.286-.222.565-.453.855-.668.238-.176.49-.44.751-.033.2.316.493.635.024.978-.355.259-.7.535-1.108.852.241.17.436.327.648.454a3.267,3.267,0,0,1,1.016,4.884c-.129.179-.327.469-.264.595a3.413,3.413,0,0,0,.71.875c.033.031.332-.144.45-.275a2.2,2.2,0,0,1,3.8.7,1.951,1.951,0,0,1-.788,2.368,2.238,2.238,0,0,1-2.692-.115c-1.058-1.129-2.107-2.272-3.081-3.472-2.141-2.636-4.234-5.31-6.346-7.969-.037-.047-.071-.1-.1-.147-.806-1.167-.672-1.647.715-2.07a3.51,3.51,0,0,1,3.731.574,2.391,2.391,0,0,1,.315.365c.64.919.581,1.223-.354,1.84-.318.211-.635.426-.967.615-.441.252-.494.538-.142.909.137.143.253.306.468.57m3.228,4.166c.832-1.005.934-1.705.534-2.463a1.982,1.982,0,0,0-2.082-1,.856.856,0,0,0-.544.3c-.061.086.072.36.18.5.529.7,1.083,1.389,1.616,2.091a3.8,3.8,0,0,1,.295.572M569,159.8c-.15.061-.5.108-.657.306-.087.11.138.48.248.721a1.116,1.116,0,0,0,.28.386c.125.1.364.254.434.207.384-.258.986-.534,1.035-.873.074-.513-.575-.6-1.016-.72A2.631,2.631,0,0,0,569,159.8m8.919,11.924c.468,0,.754-.285.757-.851a.647.647,0,0,0-.742-.736c-.574,0-.979.353-.95.857s.323.752.936.731" transform="translate(-561.237 -81.854)" fill="#fff"/>
        <path id="Path_643" data-name="Path 643" d="M597.116,182.18l-2.581,3.746,4.761,2.7a1.856,1.856,0,0,0-.728-2.713c-.364-.167-.763-.259-1.134-.412-.43-.178-.471-.5-.08-.756a1.212,1.212,0,0,1,.621-.169,2.655,2.655,0,0,1,2.73,2.638,16.8,16.8,0,0,1-.094,1.681c-.026.419.954,1.2,1.34,1.041.127-.054.211-.267.264-.425a2.015,2.015,0,0,1,1.59-1.478,2.066,2.066,0,0,1,2.235.8,2.314,2.314,0,0,1-.035,2.551,2.2,2.2,0,0,1-2.4.676,55.22,55.22,0,0,1-9.175-4.69c-.542-.336-1.3-.676-1.454-1.168-.119-.391.527-1.029.865-1.536.557-.836,1.112-1.675,1.718-2.475.537-.71.824-.7,1.555-.014m8.078,7.9a.969.969,0,0,0-.959-.881.834.834,0,0,0-.817.854.917.917,0,0,0,.869.893.964.964,0,0,0,.908-.866" transform="translate(-574.946 -93.732)" fill="#fff"/>
        <path id="Path_644" data-name="Path 644" d="M647.566,196.583c.138-.019.353-.052.569-.078.381-.046.537.105.542.506.013,1.144.075,2.287.092,3.43.007.458.155.664.647.592.435-.063.879-.064,1.409-.1-.05-.716-.1-1.387-.143-2.059-.063-1.024-.061-1.024,1.075-.979.086.761.207,1.531.25,2.3.032.59.346.624.8.557.437-.064.862-.077.748-.728s-.17-1.311-.244-1.969c-.052-.47.184-.685.6-.47.606.315,1.017.085,1.518-.263a3.183,3.183,0,0,1,4.917,2.008c.091.347.15.7.238,1.125a9.778,9.778,0,0,1-.974.269,87.136,87.136,0,0,1-11.415,1.538c-.337.012-.628.018-.63-.418,0-1.741,0-3.482,0-5.268m11.446,2.979a1.941,1.941,0,0,0-2.347-1.421,1.8,1.8,0,0,0-1.324,2.123l3.671-.7" transform="translate(-603.118 -101.384)" fill="#fff"/>
        <path id="Path_645" data-name="Path 645" d="M697.238,171.308l.95-.715c.468.524.926,1.022,1.367,1.536.524.61,1.019,1.244,1.558,1.839.1.106.444.164.509.093,1.191-1.3,2.357-2.621,3.525-3.935a1.883,1.883,0,0,0-3.16.676c-.085.194-.182.462-.341.524a1,1,0,0,1-.74-.029c-.119-.061-.16-.39-.141-.59a2.911,2.911,0,0,1,3.492-2.263,6.451,6.451,0,0,1,1.252.426.614.614,0,0,0,.845-.182c.922-1.2.883-.865-.163-1.69-.363-.286-.736-.559-1.105-.837-.29-.219-.374-.484-.117-.768.22-.242.413-.548.842-.223.832.631,1.689,1.232,2.562,1.805.434.285.441.539.133.91-1.478,1.774-2.934,3.567-4.426,5.331-.726.859-1.5,1.679-2.285,2.487-.132.136-.554.232-.623.154-1.317-1.484-2.6-3-3.932-4.549" transform="translate(-628.747 -85.149)" fill="#fff"/>
        <path id="Path_646" data-name="Path 646" d="M718.454,150.312a5.614,5.614,0,0,1,.321-1.059c.471-.942.87-1.05,1.8-.586.378.189.755.378,1.139.553.328.15.548.067.721-.283.422-.854.439-.846-.471-1.161a2.076,2.076,0,0,1-1.417-2.564,2.132,2.132,0,0,1,2.748-1.474,2.04,2.04,0,0,1,1.435,2.542,30.078,30.078,0,0,1-2.922,6.645c-.575,1.089-.753,1.112-1.757.383a3.721,3.721,0,0,1-1.6-3m1.405-.325a1.934,1.934,0,0,0,.444,1.844.651.651,0,0,0,.48.124c.255-.415.669-.885.615-1.282-.038-.276-.734-.471-1.148-.68-.1-.048-.237-.007-.392-.007m2.852-3.4a.884.884,0,0,0,.865-.825.917.917,0,0,0-.962-.861.861.861,0,0,0-.884.8,1.049,1.049,0,0,0,.981.89" transform="translate(-639.693 -74.112)" fill="#fff"/>
        <path id="Path_647" data-name="Path 647" d="M630.907,201.623c0-.194,0-.388,0-.583a1.956,1.956,0,0,1,1.186-2,2.587,2.587,0,0,1,2.531.242.777.777,0,0,1,.134.716c-.059.154-.4.277-.614.278a3.263,3.263,0,0,1-.743-.226.764.764,0,0,0-1.061.576.908.908,0,0,0,.652,1.169,12.544,12.544,0,0,0,1.5.195c.421.032.484.248.441.609-.041.343-.113.57-.544.523-2.143-.236-4.289-.441-6.431-.684-.94-.106-1.876-.258-2.805-.429-.176-.032-.445-.243-.456-.387a3.412,3.412,0,0,1,2.887-3.414.413.413,0,0,1,.12-.011,6.494,6.494,0,0,1,1.575.349c.652.321.127.928.169,1.406a1.156,1.156,0,0,1-.016.241c-.161,1.3-.007,1.456,1.479,1.429m-4.785-.718a10.706,10.706,0,0,0,1.513.253c.133,0,.375-.326.4-.521a5.246,5.246,0,0,0-.087-1.136.512.512,0,0,0-.226-.006,2.205,2.205,0,0,0-1.6,1.411" transform="translate(-591.313 -102.261)" fill="#fff"/>
        <path id="Path_648" data-name="Path 648" d="M562.332,144.12c-.1-.172-.192-.6-.413-.681a1.562,1.562,0,0,0-1.128.066c-.185.1-.256.587-.224.883a5.079,5.079,0,0,0,.37,1.261c.1.262.249.514-.129.625-.338.1-.736.388-1.019-.092a3.063,3.063,0,0,1-.26-.671c-.378-1.246-.762-2.491-1.115-3.745a1.392,1.392,0,0,0-1.141-1.155,5.727,5.727,0,0,1-1.069-.4c-.356-.147-.582-.366-.4-.79s.458-.6.908-.417a4.908,4.908,0,0,0,3.07.333,13.086,13.086,0,0,0,1.48-.507c.227-.084.461-.369.653.013.171.34.388.753-.079,1-.6.318-1.244.545-1.862.827-.212.1-.585.268-.572.362a4.207,4.207,0,0,0,.378,1.171c.022.049.37-.012.547-.076a2.2,2.2,0,0,1,3.156,2.191c0,.348.112.831-.518.8-.534-.026-.853-.231-.634-1" transform="translate(-555.739 -71.535)" fill="#fff"/>
        <path id="Path_649" data-name="Path 649" d="M724.836,133.4c.23-.882.431-1.06,1.186-1.035a6.641,6.641,0,0,1,1.5.163c.534.144.771-.04.85-.525.051-.309.062-.624.091-.947-.486-.051-.906-.064-1.314-.142a2.143,2.143,0,0,1-1.25-3.174.722.722,0,0,1,.989-.3c.439.214.23.52.121.818-.3.808-.186,1.194.392,1.4a.883.883,0,0,0,1.19-.582,5.231,5.231,0,0,0,.188-1c.088-.909.087-.915,1.149-.757-.067,1.081-.126,2.175-.207,3.268a12.743,12.743,0,0,1-.179,1.433,1.63,1.63,0,0,0,.634,1.937,2.649,2.649,0,0,1,.56.626.553.553,0,0,1-.066.847.543.543,0,0,1-.843.024c-.148-.135-.307-.261-.449-.4a4.76,4.76,0,0,0-3.608-1.552,7.487,7.487,0,0,1-.931-.091" transform="translate(-642.986 -65.645)" fill="#fff"/>
        <path id="Path_650" data-name="Path 650" d="M677.884,197.608c-.4.038-.695.066-.986.092a2.066,2.066,0,0,1-2.475-2.277,1.993,1.993,0,0,1,1.591-1.883,2.116,2.116,0,0,1,2.5.824,5.214,5.214,0,0,1,.275,4.629.681.681,0,0,1-.517.3c-.6.041-.834-.306-.64-.87.082-.236.147-.477.251-.817m-1.119-1.162c.639-.007.987-.242.966-.652a1.41,1.41,0,0,0-1.094-1.057.889.889,0,0,0-.851.905c.02.54.351.811.979.8" transform="translate(-616.969 -99.803)" fill="#fff"/>
        <path id="Path_651" data-name="Path 651" d="M687.25,188.661a2.039,2.039,0,0,1,2.333-2.256,2.207,2.207,0,0,1,2.227,2.4,2.112,2.112,0,0,1-2.387,2.064,1.966,1.966,0,0,1-2.172-2.209m1.325-.012c.009.656.261.969.791.976a.948.948,0,0,0,1.039-1.035.839.839,0,0,0-.936-.859c-.646,0-.9.267-.894.918" transform="translate(-623.593 -96.178)" fill="#fff"/>
        <path id="Path_652" data-name="Path 652" d="M563.264,129.726a2.127,2.127,0,0,1-2.281,2.218,2.238,2.238,0,0,1-2.24-2.449,1.993,1.993,0,0,1,2.407-1.987c1.563.111,2.242.747,2.114,2.217m-2.169-.99a.945.945,0,0,0-1,.763,1.025,1.025,0,0,0,.82,1.1,1,1,0,0,0,1.111-.871.953.953,0,0,0-.927-.987" transform="translate(-557.288 -65.785)" fill="#fff"/>
        <path id="Path_653" data-name="Path 653" d="M695.3,183.23c.909-.7,1.172-.711,1.971-.019a5.93,5.93,0,0,1,2.007,4.523c.018.535-.315.558-.7.583-.409.028-.562-.124-.566-.55a5.07,5.07,0,0,0-2.065-4.024c-.2-.163-.406-.322-.646-.513" transform="translate(-627.747 -94.266)" fill="#fff"/>
        <path id="Path_654" data-name="Path 654" d="M654.844,196.127c.044.662-.28.728-.6.774a.389.389,0,0,1-.476-.5c.065-.249.3-.587.514-.625.195-.036.452.274.566.352" transform="translate(-606.307 -101.011)" fill="#fff"/>
        <path id="Path_655" data-name="Path 655" d="M569.829,130.178c-.29,0-.449-.135-.452-.384a.426.426,0,0,1,.442-.417.44.44,0,0,1,.469.416c0,.271-.131.384-.459.385" transform="translate(-562.775 -66.753)" fill="#fff"/>
        <path id="Path_656" data-name="Path 656" d="M569.829,132.178c-.29,0-.449-.135-.452-.384a.426.426,0,0,1,.442-.417.44.44,0,0,1,.469.416c0,.271-.131.384-.459.385" transform="translate(-562.775 -67.785)" fill="#fff"/>
        <path id="Path_657" data-name="Path 657" d="M569.769,138.98c-.29,0-.449-.135-.452-.384a.426.426,0,0,1,.442-.417.44.44,0,0,1,.469.416c0,.271-.131.384-.459.385" transform="translate(-562.745 -71.295)" fill="#fff"/>
        <path id="Path_658" data-name="Path 658" d="M572.88,148.286c-.29,0-.449-.135-.452-.384a.426.426,0,0,1,.442-.417.44.44,0,0,1,.469.416c0,.271-.131.384-.459.385" transform="translate(-564.349 -76.096)" fill="#fff"/>
        <path id="Path_659" data-name="Path 659" d="M576.88,158.286c-.29,0-.449-.135-.452-.384a.426.426,0,0,1,.442-.417.44.44,0,0,1,.469.416c0,.271-.131.384-.459.385" transform="translate(-566.413 -81.256)" fill="#fff"/>
        <path id="Path_660" data-name="Path 660" d="M578.88,160.286c-.29,0-.449-.135-.452-.384a.426.426,0,0,1,.442-.417.44.44,0,0,1,.469.416c0,.271-.131.384-.459.385" transform="translate(-567.445 -82.288)" fill="#fff"/>
        <path id="Path_661" data-name="Path 661" d="M584.88,168.286c-.29,0-.449-.135-.452-.384a.426.426,0,0,1,.442-.417.44.44,0,0,1,.469.416c0,.271-.131.384-.459.385" transform="translate(-570.541 -86.416)" fill="#fff"/>
        <path id="Path_662" data-name="Path 662" d="M593.88,178.286c-.29,0-.449-.135-.452-.384a.426.426,0,0,1,.442-.417.44.44,0,0,1,.469.416c0,.271-.131.384-.459.385" transform="translate(-575.185 -91.575)" fill="#fff"/>
        <path id="Path_663" data-name="Path 663" d="M633.3,196.606c-.29-.014-.442-.157-.432-.407a.425.425,0,0,1,.462-.394.441.441,0,0,1,.448.44c-.009.271-.15.377-.478.361" transform="translate(-595.535 -101.027)" fill="#fff"/>
        <path id="Path_664" data-name="Path 664" d="M630.305,196.454c-.29-.014-.441-.157-.432-.407a.426.426,0,0,1,.462-.394.441.441,0,0,1,.448.44c-.009.271-.15.377-.478.361" transform="translate(-593.989 -100.949)" fill="#fff"/>
        <path id="Path_665" data-name="Path 665" d="M689.341,184.411c-.245.155-.452.126-.588-.083a.426.426,0,0,1,.151-.589.44.44,0,0,1,.619.1c.149.226.095.394-.182.571" transform="translate(-624.336 -94.76)" fill="#fff"/>
        <path id="Path_666" data-name="Path 666" d="M686.967,185.7c-.245.155-.452.126-.588-.083a.426.426,0,0,1,.151-.589.441.441,0,0,1,.619.1c.149.226.095.394-.182.571" transform="translate(-623.111 -95.424)" fill="#fff"/>
        <path id="Path_667" data-name="Path 667" d="M711.922,163.412c-.214.2-.422.2-.593.023a.426.426,0,0,1,.044-.606.441.441,0,0,1,.627-.011c.187.2.164.372-.078.594" transform="translate(-635.962 -83.942)" fill="#fff"/>
        <path id="Path_668" data-name="Path 668" d="M710.816,165.1c-.213.2-.422.2-.593.023a.426.426,0,0,1,.044-.606.441.441,0,0,1,.627-.011c.187.2.163.372-.078.594" transform="translate(-635.391 -84.814)" fill="#fff"/>
        <path id="Path_669" data-name="Path 669" d="M714.816,181.1c-.213.2-.422.2-.593.023a.426.426,0,0,1,.044-.606.441.441,0,0,1,.627-.011c.187.2.164.372-.078.594" transform="translate(-637.456 -93.07)" fill="#fff"/>
        <path id="Path_670" data-name="Path 670" d="M716.84,154.29c-.182.226-.387.264-.583.109a.426.426,0,0,1-.045-.606.441.441,0,0,1,.619-.1c.213.167.216.344.009.6" transform="translate(-638.482 -79.254)" fill="#fff"/>
        <path id="Path_671" data-name="Path 671" d="M715.992,156.122c-.183.226-.387.264-.583.109a.426.426,0,0,1-.045-.606.441.441,0,0,1,.619-.1c.213.167.216.344.009.6" transform="translate(-638.045 -80.199)" fill="#fff"/>
        <path id="Path_672" data-name="Path 672" d="M720.84,145.29c-.182.226-.387.264-.583.109a.426.426,0,0,1-.045-.606.441.441,0,0,1,.619-.1c.213.167.216.344.009.6" transform="translate(-640.546 -74.61)" fill="#fff"/>
        <path id="Path_673" data-name="Path 673" d="M723.84,130.29c-.182.226-.387.264-.583.109a.426.426,0,0,1-.045-.606.441.441,0,0,1,.619-.1c.213.167.216.344.009.6" transform="translate(-642.094 -66.871)" fill="#fff"/>
        <g id="Group_151077" data-name="Group 151077" transform="translate(46.987 40.831)">
          <path id="Path_641" data-name="Path 641" d="M657.3,84.454v8.657s-3.582.055-5.191,0" transform="translate(-652.11 -84.454)" fill="#fff"/>
          <path id="Path_674" data-name="Path 674" d="M652.11,84.454v8.657s3.582.055,5.191,0" transform="translate(-646.801 -84.454)" fill="#fff"/>
        </g>
        <g id="Group_151078" data-name="Group 151078" transform="translate(30.798 40.831)">
          <path id="Path_675" data-name="Path 675" d="M657.3,84.454v8.657s-3.582.055-5.191,0" transform="translate(-652.11 -84.454)" fill="#fff"/>
          <path id="Path_676" data-name="Path 676" d="M652.11,84.454v8.657s3.582.055,5.191,0" transform="translate(-646.801 -84.454)" fill="#fff"/>
        </g>
        <path id="Path_677" data-name="Path 677" d="M624.8,159.777c1.248-.324,1.412-.526,1.415-1.56,0-.634,0-1.267,0-1.917-.947.153-1.406.654-1.414,1.447-.007.651,0,1.3,0,2.029" transform="translate(-570.521 -80.799)" fill="#fff"/>
      </g>
    </g>
  </g>
</svg>
