<svg xmlns="http://www.w3.org/2000/svg" width="10.413" height="20" viewBox="0 0 10.413 20">
  <path id="metro-dollar2" d="M20.371,15.429a4.246,4.246,0,0,1-1.11,2.941,4.793,4.793,0,0,1-2.885,1.523v1.953a.344.344,0,0,1-.357.357H14.511a.362.362,0,0,1-.357-.357V19.893a7.035,7.035,0,0,1-1.423-.346,6.854,6.854,0,0,1-1.959-1.032,6.361,6.361,0,0,1-.519-.419q-.139-.134-.2-.2a.339.339,0,0,1-.022-.458l1.15-1.507a.347.347,0,0,1,.257-.134.277.277,0,0,1,.268.1l.022.022a5.828,5.828,0,0,0,2.712,1.4,3.9,3.9,0,0,0,.826.089,2.706,2.706,0,0,0,1.59-.48,1.563,1.563,0,0,0,.686-1.362,1.132,1.132,0,0,0-.167-.592,2.091,2.091,0,0,0-.374-.469,3.063,3.063,0,0,0-.653-.419q-.446-.229-.737-.357t-.893-.363q-.435-.179-.686-.279t-.686-.3q-.435-.2-.7-.346t-.631-.4a3.93,3.93,0,0,1-.6-.474,6.956,6.956,0,0,1-.486-.547,2.73,2.73,0,0,1-.4-.647,4.476,4.476,0,0,1-.234-.742,3.874,3.874,0,0,1-.095-.871,3.816,3.816,0,0,1,1.094-2.7,5.107,5.107,0,0,1,2.846-1.5V2.561a.362.362,0,0,1,.357-.357h1.507a.344.344,0,0,1,.357.357V4.525a6.208,6.208,0,0,1,1.233.257,7.151,7.151,0,0,1,.971.374,5.377,5.377,0,0,1,.709.419q.335.234.435.324t.167.156a.323.323,0,0,1,.056.424l-.9,1.629a.3.3,0,0,1-.257.179.356.356,0,0,1-.3-.078q-.033-.033-.162-.134t-.435-.3a5.759,5.759,0,0,0-.653-.357,4.985,4.985,0,0,0-.831-.29A3.724,3.724,0,0,0,15.449,7a2.9,2.9,0,0,0-1.73.48,1.5,1.5,0,0,0-.575,1.775,1.256,1.256,0,0,0,.329.463,4.918,4.918,0,0,0,.441.368,3.931,3.931,0,0,0,.625.346q.419.2.675.3t.781.307q.592.223.9.352t.848.391a6.743,6.743,0,0,1,.843.474,7.125,7.125,0,0,1,.692.558,2.89,2.89,0,0,1,.592.709,4.045,4.045,0,0,1,.352.854,3.682,3.682,0,0,1,.145,1.049Z" transform="translate(-9.957 -2.203)" fill="#fff"/>
</svg>
