<svg id="money-send" xmlns="http://www.w3.org/2000/svg" width="24" height="24" viewBox="0 0 24 24">
  <g id="money-send-2" data-name="money-send">
    <path id="Vector" d="M24,0V24H0V0Z" fill="#fff" opacity="0"/>
    <path id="Vector-2" data-name="Vector" d="M.49,1.52,1,1.7V0H.7A.748.748,0,0,0,0,.78C0,1.32.15,1.4.49,1.52Z" transform="translate(10.25 9.25)" fill="#fff"/>
    <path id="Vector-3" data-name="Vector" d="M.3,1.7A.742.742,0,0,0,1,.92C1,.38.85.3.51.18L0,0V1.7Z" transform="translate(12.75 13.051)" fill="#fff"/>
    <path id="Vector-4" data-name="Vector" d="M10,20A10,10,0,1,1,16.52,2.42L14.47,4.47A.749.749,0,1,0,15.53,5.53L17.58,3.48A10,10,0,0,1,10,20ZM7.5,11a.756.756,0,0,0-.75.76,2.463,2.463,0,0,0,2.42,2.5h.08v.25a.76.76,0,0,0,.75.751.751.751,0,0,0,.75-.751v-.25h.3a2.243,2.243,0,0,0,2.2-2.28,2.041,2.041,0,0,0-1.5-2.16l-1-.35V7.25h.08a.964.964,0,0,1,.921,1A.751.751,0,0,0,12.5,9a.76.76,0,0,0,.75-.75,2.464,2.464,0,0,0-2.42-2.5h-.08V5.5A.751.751,0,0,0,10,4.75a.76.76,0,0,0-.75.75v.24h-.3a2.243,2.243,0,0,0-2.2,2.28,2.062,2.062,0,0,0,1.5,2.16l1,.35v2.22H9.17a.963.963,0,0,1-.92-1A.751.751,0,0,0,7.5,11Z" transform="translate(2 2)" fill="#fff"/>
    <path id="Vector-5" data-name="Vector" d="M5.03.05A.868.868,0,0,0,4.75,0h-4A.755.755,0,0,0,0,.75a.755.755,0,0,0,.75.75H2.94L1.27,3.17A10.607,10.607,0,0,1,2.33,4.23L4,2.56V4.75a.75.75,0,0,0,1.5,0v-4A.753.753,0,0,0,5.44.46.782.782,0,0,0,5.03.05Z" transform="translate(17.25 1.25)" fill="#fff"/>
  </g>
</svg>
