<svg xmlns="http://www.w3.org/2000/svg" width="16.956" height="17.426" viewBox="0 0 16.956 17.426">
  <g id="pdf-svgrepo-com" transform="translate(-6.6)">
    <g id="Group_152074" data-name="Group 152074" transform="translate(6.6)">
      <path id="Path_3767" data-name="Path 3767" d="M8.563,409c-1.078,0-1.963.651-1.963,1.437,0,.8.886,1.437,1.963,1.437h10.5a1.931,1.931,0,0,1,0-2.878H8.563Z" transform="translate(-6.6 -394.452)" fill="#1e9f3b"/>
      <path id="Path_3768" data-name="Path 3768" d="M8.151,1.6A2.288,2.288,0,0,0,6.6,3.884V16.07a2.884,2.884,0,0,1,1.551-.651Z" transform="translate(-6.6 -1.543)" fill="#1e9f3b"/>
      <path id="Path_3769" data-name="Path 3769" d="M74.966,4.329h5.243V0H70V13.833H80.208V10.61H74.966Z" transform="translate(-67.745)" fill="#1e9f3b"/>
      <g id="Group_152073" data-name="Group 152073" transform="translate(7.925 5.047)">
        <path id="Path_3770" data-name="Path 3770" d="M344.142,188.7H343.9v1.529h.242a.767.767,0,0,0,0-1.529Z" transform="translate(-339.827 -187.035)" fill="#1e9f3b"/>
        <path id="Path_3771" data-name="Path 3771" d="M229.4,141.9v4.855h9.031V141.9Zm2.138,2.621h-.224v.765a.219.219,0,0,1-.434,0v-1.914a.2.2,0,0,1,.217-.192h.441a.719.719,0,0,1,.761.669A.727.727,0,0,1,231.538,144.521Zm2.177.953h-.459a.2.2,0,0,1-.217-.192v-1.914a.2.2,0,0,1,.217-.192h.459a1.149,1.149,0,0,1,0,2.3Zm3.027-1.337a.194.194,0,1,1,0,.384h-.64v.765a.219.219,0,0,1-.434,0v-1.914a.2.2,0,0,1,.217-.192h.857a.194.194,0,1,1,0,.384h-.64v.573Z" transform="translate(-229.4 -141.9)" fill="#1e9f3b"/>
        <path id="Path_3772" data-name="Path 3772" d="M283.424,188.7H283.2v.573h.224a.309.309,0,0,0,.327-.288A.313.313,0,0,0,283.424,188.7Z" transform="translate(-281.286 -187.035)" fill="#1e9f3b"/>
      </g>
    </g>
  </g>
</svg>
