<svg id="pdf-svgrepo" xmlns="http://www.w3.org/2000/svg" width="55.05" height="56.574" viewBox="0 0 55.05 56.574">
  <path id="Path_3767" data-name="Path 3767" d="M12.975,409.012c-3.5,0-6.375,2.113-6.375,4.666,0,2.61,2.875,4.665,6.375,4.665h34.09a6.27,6.27,0,0,1,0-9.342H12.975Z" transform="translate(-6.6 -361.768)" fill="#1e9f3b"/>
  <path id="Path_3768" data-name="Path 3768" d="M11.635,1.6C8.76,2.362,6.6,5.376,6.6,9.014V48.578a9.362,9.362,0,0,1,5.035-2.113Z" transform="translate(-6.6 -1.415)" fill="#1e9f3b"/>
  <path id="Path_3769" data-name="Path 3769" d="M86.121,14.054h17.022V0H70V44.911h33.143V34.448H86.121Z" transform="translate(-62.678)" fill="#1e9f3b"/>
  <g id="Group_152073" data-name="Group 152073" transform="translate(25.729 16.387)">
    <path id="Path_3770" data-name="Path 3770" d="M344.685,188.7H343.9v4.966h.785a2.489,2.489,0,0,0,0-4.966Z" transform="translate(-330.677 -183.295)" fill="#1e9f3b"/>
    <path id="Path_3771" data-name="Path 3771" d="M229.4,141.9v15.763h29.321V141.9Zm6.94,8.511h-.728v2.483a.71.71,0,0,1-1.409,0v-6.213a.664.664,0,0,1,.7-.624h1.432a2.336,2.336,0,0,1,2.471,2.171A2.36,2.36,0,0,1,236.34,150.411Zm7.067,3.095h-1.49a.664.664,0,0,1-.7-.624v-6.213a.664.664,0,0,1,.7-.624h1.49a3.73,3.73,0,0,1,0,7.46Zm9.827-4.342a.628.628,0,1,1,0,1.247h-2.079v2.483a.71.71,0,0,1-1.409,0v-6.213a.664.664,0,0,1,.7-.624h2.783a.628.628,0,1,1,0,1.247h-2.079v1.859Z" transform="translate(-229.4 -141.9)" fill="#1e9f3b"/>
    <path id="Path_3772" data-name="Path 3772" d="M283.928,188.7H283.2v1.859h.728a1,1,0,0,0,1.062-.935A1.015,1.015,0,0,0,283.928,188.7Z" transform="translate(-276.987 -183.295)" fill="#1e9f3b"/>
  </g>
</svg>
