<svg id="smsG" xmlns="http://www.w3.org/2000/svg" width="24" height="24" viewBox="0 0 24 24">
  <g id="vuesax_outline_sms" data-name="vuesax/outline/sms">
    <g id="sms">
      <path id="Vector" d="M15.75,18.5h-10C2.1,18.5,0,16.4,0,12.75v-7C0,2.1,2.1,0,5.75,0h10C19.4,0,21.5,2.1,21.5,5.75v7C21.5,16.4,19.4,18.5,15.75,18.5Zm-10-17C2.89,1.5,1.5,2.89,1.5,5.75v7C1.5,15.61,2.89,17,5.75,17h10C18.61,17,20,15.61,20,12.75v-7c0-2.86-1.39-4.25-4.25-4.25Z" transform="translate(1.25 2.75)" fill="#1e9f3b"/>
      <path id="Vector-2" data-name="Vector" d="M3.413,3.836l-3.13-2.5a.747.747,0,1,1,.93-1.17l3.13,2.5a2.386,2.386,0,0,0,2.81,0l3.13-2.5a.738.738,0,0,1,1.05.12.738.738,0,0,1-.12,1.05l-3.13,2.5a3.67,3.67,0,0,1-2.33.79A3.717,3.717,0,0,1,3.413,3.836Z" transform="translate(6.246 8.244)" fill="#1e9f3b"/>
      <path id="Vector-3" data-name="Vector" d="M24,0V24H0V0Z" fill="#1e9f3b" opacity="0"/>
    </g>
  </g>
</svg>
